{
.appVersion = "3151";
.formatVersion = 3;
customParameters = (
{
name = vendorID;
value = "1BOU";
},
{
name = panose;
value = (
0,
0,
9,
0,
0,
0,
0,
0,
0,
0
);
},
{
name = unicodeRanges;
value = (
0,
1,
2,
3,
5,
13,
31,
33,
35,
38,
45,
60,
63,
67
);
},
{
name = codePageRanges;
value = (
"1252"
);
},
{
name = glyphOrder;
value = (
.notdef,
uni000D,
space,
exclam,
quotedbl,
numbersign,
dollar,
percent,
ampersand,
quotesingle,
parenleft,
parenright,
asterisk,
plus,
comma,
hyphen,
period,
slash,
zero,
one,
two,
three,
four,
five,
six,
seven,
eight,
nine,
colon,
semicolon,
less,
equal,
greater,
question,
at,
A,
B,
C,
D,
E,
F,
G,
H,
I,
J,
K,
L,
M,
N,
O,
P,
Q,
R,
S,
T,
U,
V,
W,
X,
Y,
Z,
bracketleft,
backslash,
bracketright,
asciicircum,
underscore,
grave,
a,
b,
c,
d,
e,
f,
g,
h,
i,
j,
k,
l,
m,
n,
o,
p,
q,
r,
s,
t,
u,
v,
w,
x,
y,
z,
braceleft,
bar,
braceright,
asciitilde,
exclamdown,
cent,
sterling,
yen,
brokenbar,
section,
dieresis,
copyright,
ordfeminine,
guillemotleft,
uni00AD,
registered,
macron,
degree,
plusminus,
twosuperior,
threesuperior,
acute,
paragraph,
periodcentered,
cedilla,
onesuperior,
ordmasculine,
guillemotright,
onequarter,
onehalf,
threequarters,
questiondown,
Agrave,
Aacute,
Acircumflex,
Atilde,
Adieresis,
Aring,
AE,
Ccedilla,
Egrave,
Eacute,
Ecircumflex,
Edieresis,
Igrave,
Iacute,
Icircumflex,
Idieresis,
Eth,
Ntilde,
Ograve,
Oacute,
Ocircumflex,
Otilde,
Odieresis,
multiply,
Oslash,
Ugrave,
Uacute,
Ucircumflex,
Udieresis,
Yacute,
Thorn,
germandbls,
agrave,
aacute,
acircumflex,
atilde,
adieresis,
aring,
ae,
ccedilla,
egrave,
eacute,
ecircumflex,
edieresis,
igrave,
iacute,
icircumflex,
idieresis,
eth,
ntilde,
ograve,
oacute,
ocircumflex,
otilde,
odieresis,
divide,
oslash,
ugrave,
uacute,
ucircumflex,
udieresis,
yacute,
thorn,
ydieresis,
dotlessi,
Lslash,
lslash,
OE,
oe,
Scaron,
scaron,
Ydieresis,
Zcaron,
zcaron,
florin,
circumflex,
caron,
breve,
dotaccent,
ring,
ogonek,
tilde,
hungarumlaut,
uni03BC,
uni060C,
uni061B,
uni061F,
uni0621,
uni0622,
uni0623,

glyphs = (
{
glyphname = .notdef;
layers = (
{
layerId = m01;
shapes = (
{
closed = 1;
nodes = (
(210,-3,o),
(227,14,o),
(252,14,cs),
(276,14,o),
(293,-4,o),
(293,-29,cs),
(293,-54,o),
(276,-72,o),
(252,-72,cs),
(227,-72,o),
(211,-56,o),
(209,-29,c)
);
},
{
closed = 1;
nodes = (
(225,88,ls),
(225,114,o),
(238,134,o),
(277,165,cs),
(316,197,o),
(330,218,o),
(331,247,cs),
(331,284,o),
(304,306,o),
(259,307,cs),
(221,308,o),
(199,302,o),
(147,277,c),
(142,294,ls),
(140,300,o),
(139,307,o),
(138,312,cs),
(137,328,o),
(146,338,o),
(169,347,cs),
(200,360,o),
(228,365,o),
(261,365,cs),
(349,365,o),
(400,327,o),
(402,262,cs),
(403,207,o),
(381,176,o),
(295,112,cs),
(280,101,o),
(275,91,o),
(275,75,cs),
(275,67,l),
(225,67,l)
);
},
{
closed = 1;
nodes = (
(496,545,l),
(496,-254,l),
(35,-254,l),
(35,545,l)
);
},
{
closed = 1;
nodes = (
(83,-206,l),
(448,-206,l),
(448,497,l),
(83,497,l)
);
}
);
width = 531;
}
);
note = ".notdef";
},
{
glyphname = exclam;
layers = (
{
layerId = m01;
shapes = (
{
closed = 1;
nodes = (
(48,157,o),
(49,154,o),
(55,154,cs),
(103,154,ls),
(109,154,o),
(111,157,o),
(111,162,cs),
(117,485,ls),
(118,533,o),
(94,556,o),
(55,556,cs),
(49,556,ls),
(43,556,o),
(40,553,o),
(40,547,cs),
(48,162,ls)
);
},
{
closed = 1;
nodes = (
(51,99,o),
(26,74,o),
(26,44,cs),
(26,14,o),
(51,-11,o),
(80,-11,cs),
(110,-11,o),
(134,14,o),
(134,44,cs),
(134,74,o),
(110,99,o),
(80,99,cs)
);
}
);
width = 160;
}
);
note = exclam;
unicode = 33;
},
{
glyphname = quotedbl;
layers = (
{
layerId = m01;
shapes = (
{
closed = 1;
nodes = (
(44,374,o),
(45,371,o),
(51,371,cs),
(86,371,ls),
(92,371,o),
(93,374,o),
(94,379,cs),
(103,488,ls),
(106,539,o),
(91,556,o),
(48,556,cs),
(36,556,ls),
(30,556,o),
(27,553,o),
(28,547,cs),
(43,379,ls)
);
},
{
closed = 1;
nodes = (
(166,374,o),
(168,371,o),
(173,371,cs),
(208,371,ls),
(214,371,o),
(216,374,o),
(216,379,cs),
(225,488,ls),
(229,539,o),
(213,556,o),
(171,556,cs),
(158,556,ls),
(154,556,o),
(149,553,o),
(150,547,cs),
(165,379,ls)
);
}
);
width = 257;
}
);
note = quotedbl;
unicode = 34;
},
{
glyphname = numbersign;
layers = (
{
layerId = m01;
shapes = (
{
closed = 1;
nodes = (
(65,9,ls),
(64,4,o),
(66,0,o),
(71,0,cs),
(129,0,ls),
(134,0,o),
(136,3,o),
(136,9,c),
(172,151,l),
(315,151,l),
(281,9,ls),
(280,4,o),
(281,0,o),
(286,0,cs),
(344,0,ls),
(349,0,o),
(351,3,o),
(352,9,cs),
(388,151,l),
(456,151,ls),
(461,151,o),
(465,153,o),
(466,159,cs),
(476,198,l),
(479,204,o),
(475,207,o),
(470,207,cs),
(402,207,l),
(437,347,l),
(505,347,ls),
(511,347,o),
(513,350,o),
(515,356,cs),
(525,394,ls),
(527,401,o),
(524,403,o),
(518,403,cs),
(451,403,l),
(475,502,ls),
(484,537,o),
(472,556,o),
(441,556,cs),
(424,556,ls),
(418,556,o),
(416,553,o),
(415,547,cs),
(379,403,l),
(235,403,l),
(260,502,ls),
(269,537,o),
(257,556,o),
(225,556,cs),
(208,556,ls),
(203,556,o),
(200,553,o),
(199,547,cs),
(164,403,l),
(95,403,ls),
(89,403,o),
(87,401,o),
(85,394,cs),
(75,356,ls),
(73,350,o),
(76,347,o),
(82,347,cs),
(150,347,l),
(115,207,l),
(46,207,ls),
(40,207,o),
(37,204,o),
(35,198,cs),
(25,159,ls),
(23,153,o),
(26,151,o),
(32,151,cs),
(100,151,l)
);
},
{
closed = 1;
nodes = (
(222,347,l),
(365,347,l),
(329,207,l),
(186,207,l)
);
}
);
width = 548;
}
);
note = numbersign;
unicode = 35;
},
{
glyphname = dollar;
layers = (
{
layerId = m01;
shapes = (
{
closed = 1;
nodes = (
(140,59,o),
(93,87,o),
(53,133,cs),
(49,138,o),
(45,141,o),
(40,141,cs),
(32,141,o),
(27,132,o),
(27,120,cs),
(27,68,o),
(83,-7,o),
(210,-11,c),
(210,-56,ls),
(210,-62,o),
(212,-64,o),
(218,-64,cs),
(250,-64,ls),
(256,-64,o),
(258,-62,o),
(258,-56,cs),
(258,-8,l),
(360,4,o),
(422,68,o),
(422,159,cs),
(422,254,o),
(337,285,o),
(258,311,c),
(258,497,l),
(303,493,o),
(342,478,o),
(377,456,cs),
(383,453,o),
(387,451,o),
(391,451,cs),
(397,451,o),
(398,454,o),
(400,461,cs),
(405,479,ls),
(413,508,o),
(400,527,o),
(367,539,cs),
(335,553,o),
(300,563,o),
(258,566,c),
(258,612,ls),
(258,618,o),
(256,621,o),
(250,621,cs),
(218,621,ls),
(212,621,o),
(210,618,o),
(210,612,cs),
(210,566,l),
(114,558,o),
(44,500,o),
(44,414,cs),
(44,315,o),
(130,282,o),
(210,254,c),
(210,57,l)
);
},
{
closed = 1;
nodes = (
(309,218,o),
(349,196,o),
(349,149,cs),
(349,103,o),
(315,71,o),
(258,61,c),
(258,238,l)
);
},
{
closed = 1;
nodes = (
(158,348,o),
(116,371,o),
(116,418,cs),
(116,463,o),
(154,494,o),
(210,498,c),
(210,328,l)
);
}
);
width = 454;
}
);
note = dollar;
unicode = 36;
},
{
glyphname = percent;
layers = (
{
layerId = m01;
shapes = (
{
closed = 1;
nodes = (
(552,45,o),
(513,64,o),
(513,162,cs),
(513,259,o),
(552,281,o),
(590,281,cs),
(628,281,o),
(667,259,o),
(667,162,cs),
(667,64,o),
(628,45,o),
(590,45,cs)
);
},
{
closed = 1;
nodes = (
(133,276,o),
(95,296,o),
(95,393,cs),
(95,491,o),
(133,513,o),
(171,513,cs),
(210,513,o),
(248,491,o),
(248,393,cs),
(248,296,o),
(210,277,o),
(171,276,cs)
);
},
{
closed = 1;
nodes = (
(257,0,ls),
(263,0,o),
(266,3,o),
(270,9,cs),
(538,496,ls),
(557,531,o),
(548,556,o),
(515,556,cs),
(502,556,ls),
(497,556,o),
(494,553,o),
(490,547,cs),
(195,9,ls),
(192,4,o),
(193,0,o),
(198,0,cs)
);
},
{
closed = 1;
nodes = (
(675,-9,o),
(728,59,o),
(728,163,cs),
(728,266,o),
(674,335,o),
(590,335,cs),
(505,335,o),
(452,266,o),
(452,163,cs),
(452,59,o),
(505,-9,o),
(590,-9,cs)
);
},
{
closed = 1;
nodes = (
(257,223,o),
(309,290,o),
(309,394,cs),
(309,498,o),
(256,567,o),
(171,567,cs),
(87,567,o),
(34,498,o),
(34,394,cs),
(34,290,o),
(87,223,o),
(171,223,cs)
);
}
);
width = 761;
}
);
note = percent;
unicode = 37;
},
{
glyphname = ampersand;
layers = (
{
layerId = m01;
shapes = (
{
closed = 1;
nodes = (
(266,291,l),
(342,332,o),
(393,382,o),
(393,444,cs),
(393,520,o),
(334,567,o),
(246,567,cs),
(154,567,o),
(93,517,o),
(93,438,cs),
(93,388,o),
(121,351,o),
(161,307,c),
(93,271,o),
(39,227,o),
(39,148,cs),
(39,58,o),
(106,-7,o),
(205,-7,cs),
(278,-7,o),
(329,34,o),
(361,73,c),
(405,22,ls),
(417,6,o),
(428,0,o),
(455,0,cs),
(503,0,ls),
(508,0,o),
(510,6,o),
(507,10,cs),
(403,133,l),
(501,281,ls),
(503,285,o),
(502,290,o),
(496,290,cs),
(445,290,ls),
(436,290,o),
(431,287,o),
(426,279,cs),
(363,180,l)
);
},
{
closed = 1;
nodes = (
(196,371,o),
(170,407,o),
(170,439,cs),
(170,480,o),
(200,506,o),
(247,506,cs),
(290,506,o),
(321,479,o),
(321,442,cs),
(321,397,o),
(285,366,o),
(228,337,c)
);
},
{
closed = 1;
nodes = (
(292,84,o),
(263,57,o),
(211,57,cs),
(154,57,o),
(115,92,o),
(115,152,cs),
(115,203,o),
(152,232,o),
(202,259,c),
(322,120,l)
);
}
);
width = 532;
}
);
note = ampersand;
unicode = 38;
},
{
glyphname = quotesingle;
layers = (
{
layerId = m01;
shapes = (
{
closed = 1;
nodes = (
(44,374,o),
(45,371,o),
(51,371,cs),
(86,371,ls),
(92,371,o),
(94,374,o),
(94,379,cs),
(103,488,ls),
(106,539,o),
(91,556,o),
(49,556,cs),
(36,556,ls),
(30,556,o),
(27,553,o),
(28,547,cs),
(43,379,ls)
);
}
);
width = 134;
}
);
note = quotesingle;
unicode = 39;
},
{
glyphname = parenleft;
layers = (
{
layerId = m01;
shapes = (
{
closed = 1;
nodes = (
(56,39,o),
(167,-102,o),
(269,-144,cs),
(274,-146,o),
(278,-146,o),
(278,-138,cs),
(278,-134,o),
(279,-125,o),
(277,-118,c),
(275,-80,o),
(262,-74,o),
(249,-61,cs),
(166,20,o),
(127,127,o),
(128,277,cs),
(127,426,o),
(166,533,o),
(249,614,cs),
(262,627,o),
(275,633,o),
(277,671,c),
(279,678,o),
(278,687,o),
(278,691,cs),
(278,699,o),
(274,699,o),
(269,697,cs),
(167,655,o),
(56,513,o),
(57,277,cs)
);
}
);
width = 343;
}
);
note = parenleft;
unicode = 40;
},
{
glyphname = parenright;
layers = (
{
layerId = m01;
shapes = (
{
closed = 1;
nodes = (
(278,513,o),
(167,655,o),
(65,697,cs),
(59,699,o),
(56,699,o),
(56,691,cs),
(56,687,o),
(55,678,o),
(57,671,c),
(58,633,o),
(72,627,o),
(85,614,cs),
(168,533,o),
(207,426,o),
(206,277,cs),
(207,127,o),
(168,20,o),
(85,-61,cs),
(72,-74,o),
(58,-80,o),
(57,-118,c),
(55,-125,o),
(56,-134,o),
(56,-138,cs),
(56,-146,o),
(59,-146,o),
(65,-144,cs),
(167,-102,o),
(278,39,o),
(277,277,cs)
);
}
);
width = 338;
}
);
note = parenright;
unicode = 41;
},
{
glyphname = asterisk;
layers = (
{
layerId = m01;
shapes = (
{
closed = 1;
nodes = (
(70,300,l),
(68,296,o),
(68,292,o),
(73,289,cs),
(117,262,l),
(120,258,o),
(125,257,o),
(128,262,cs),
(178,348,l),
(232,262,l),
(234,257,o),
(238,258,o),
(243,262,cs),
(285,289,ls),
(290,292,o),
(291,296,o),
(287,300,c),
(227,377,l),
(320,402,ls),
(325,403,o),
(327,407,o),
(325,413,cs),
(309,463,ls),
(307,468,o),
(303,470,o),
(298,468,cs),
(209,431,l),
(215,531,ls),
(215,537,o),
(213,539,o),
(208,539,cs),
(150,539,ls),
(145,539,o),
(142,537,o),
(142,531,cs),
(149,431,l),
(60,468,ls),
(55,470,o),
(52,468,o),
(50,463,cs),
(33,413,ls),
(31,407,o),
(33,403,o),
(38,402,cs),
(132,377,l)
);
}
);
width = 356;
}
);
note = asterisk;
unicode = 42;
},
{
glyphname = plus;
layers = (
{
layerId = m01;
shapes = (
{
closed = 1;
nodes = (
(168,101,ls),
(168,96,o),
(170,92,o),
(176,92,cs),
(227,92,ls),
(233,92,o),
(235,96,o),
(235,101,cs),
(235,238,l),
(358,238,ls),
(364,238,o),
(366,242,o),
(366,247,cs),
(366,295,ls),
(366,301,o),
(364,304,o),
(358,304,cs),
(235,304,l),
(235,389,ls),
(235,432,o),
(218,450,o),
(176,450,cs),
(170,450,o),
(168,447,o),
(168,441,cs),
(168,304,l),
(45,304,ls),
(39,304,o),
(37,301,o),
(37,295,cs),
(37,247,ls),
(37,242,o),
(39,238,o),
(45,238,cs),
(168,238,l)
);
}
);
width = 403;
}
);
note = plus;
unicode = 43;
},
{
glyphname = comma;
layers = (
{
layerId = m01;
shapes = (
{
closed = 1;
nodes = (
(47,99,o),
(24,74,o),
(24,44,cs),
(24,18,o),
(41,-6,o),
(70,-11,c),
(65,-31,o),
(52,-48,o),
(43,-59,cs),
(32,-71,o),
(25,-89,o),
(42,-105,cs),
(44,-107,o),
(46,-108,o),
(47,-106,c),
(93,-69,o),
(131,-17,o),
(131,42,cs),
(131,74,o),
(106,99,o),
(77,99,cs)
);
}
);
width = 155;
}
);
note = comma;
unicode = 44;
},
{
glyphname = hyphen;
layers = (
{
layerId = m01;
shapes = (
{
closed = 1;
nodes = (
(257,168,ls),
(263,168,o),
(265,171,o),
(265,177,cs),
(265,229,ls),
(265,236,o),
(263,238,o),
(257,238,cs),
(45,238,ls),
(39,238,o),
(37,236,o),
(37,229,cs),
(37,177,ls),
(37,171,o),
(39,168,o),
(45,168,cs)
);
}
);
width = 301;
}
);
note = hyphen;
unicode = 45;
},
{
glyphname = period;
layers = (
{
layerId = m01;
shapes = (
{
closed = 1;
nodes = (
(49,99,o),
(24,74,o),
(24,44,cs),
(24,14,o),
(49,-11,o),
(78,-11,cs),
(108,-11,o),
(132,14,o),
(132,44,cs),
(132,74,o),
(108,99,o),
(78,99,cs)
);
}
);
width = 156;
}
);
note = period;
unicode = 46;
},
{
glyphname = slash;
layers = (
{
layerId = m01;
shapes = (
{
closed = 1;
nodes = (
(63,0,ls),
(69,0,o),
(73,3,o),
(75,9,cs),
(279,493,ls),
(295,530,o),
(283,556,o),
(252,556,cs),
(243,556,ls),
(237,556,o),
(233,553,o),
(229,547,c),
(3,9,ls),
(1,4,o),
(1,0,o),
(7,0,cs)
);
}
);
width = 286;
}
);
note = slash;
unicode = 47;
},
{
glyphname = zero;
layers = (
{
layerId = m01;
shapes = (
{
closed = 1;
nodes = (
(173,61,o),
(125,114,o),
(125,278,cs),
(125,441,o),
(173,496,o),
(252,496,cs),
(329,496,o),
(378,441,o),
(378,278,cs),
(378,114,o),
(329,61,o),
(252,61,cs)
);
},
{
closed = 1;
nodes = (
(383,-10,o),
(455,89,o),
(455,278,cs),
(455,466,o),
(380,567,o),
(252,567,cs),
(122,567,o),
(48,466,o),
(48,278,cs),
(48,89,o),
(120,-10,o),
(252,-10,cs)
);
}
);
width = 502;
}
);
note = zero;
unicode = 48;
},
{
glyphname = one;
layers = (
{
layerId = m01;
shapes = (
{
closed = 1;
nodes = (
(44,69,ls),
(38,69,o),
(36,67,o),
(36,61,cs),
(36,9,ls),
(36,3,o),
(38,0,o),
(44,0,cs),
(319,0,ls),
(328,0,o),
(330,4,o),
(330,11,cs),
(330,26,ls),
(330,54,o),
(315,69,o),
(285,69,cs),
(219,69,l),
(219,501,ls),
(219,537,o),
(203,556,o),
(170,556,cs),
(157,556,ls),
(140,556,o),
(125,553,o),
(108,547,cs),
(47,525,ls),
(40,523,o),
(37,518,o),
(37,511,cs),
(37,453,ls),
(37,448,o),
(41,445,o),
(46,447,cs),
(144,484,l),
(144,69,l)
);
}
);
width = 353;
}
);
note = one;
unicode = 49;
},
{
glyphname = two;
layers = (
{
layerId = m01;
shapes = (
{
closed = 1;
nodes = (
(138,195,o),
(395,223,o),
(395,407,cs),
(395,512,o),
(326,567,o),
(218,567,cs),
(166,567,o),
(124,553,o),
(88,538,cs),
(55,524,o),
(43,507,o),
(52,478,cs),
(58,458,ls),
(60,453,o),
(62,450,o),
(66,450,cs),
(70,450,o),
(74,452,o),
(79,455,cs),
(121,482,o),
(165,498,o),
(213,498,cs),
(280,498,o),
(318,464,o),
(318,406,cs),
(318,243,o),
(37,258,o),
(37,9,cs),
(37,3,o),
(39,0,o),
(45,0,cs),
(388,0,ls),
(396,0,o),
(399,4,o),
(399,11,cs),
(399,27,ls),
(399,54,o),
(384,69,o),
(354,69,cs),
(125,69,l)
);
}
);
width = 446;
}
);
note = two;
unicode = 50;
},
{
glyphname = three;
layers = (
{
layerId = m01;
shapes = (
{
closed = 1;
nodes = (
(354,315,o),
(383,363,o),
(383,419,cs),
(383,515,o),
(309,567,o),
(204,567,cs),
(153,567,o),
(108,552,o),
(77,538,cs),
(45,523,o),
(32,507,o),
(41,478,cs),
(47,458,ls),
(49,453,o),
(51,450,o),
(56,450,cs),
(59,450,o),
(63,453,o),
(68,456,cs),
(109,483,o),
(149,499,o),
(201,499,cs),
(261,499,o),
(308,475,o),
(308,412,cs),
(308,355,o),
(272,324,o),
(207,324,cs),
(116,324,ls),
(109,324,o),
(106,318,o),
(106,311,cs),
(106,294,ls),
(106,266,o),
(118,254,o),
(148,254,cs),
(205,254,ls),
(267,254,o),
(324,228,o),
(324,159,cs),
(324,97,o),
(276,58,o),
(202,58,cs),
(135,58,o),
(88,86,o),
(54,129,cs),
(48,136,o),
(45,139,o),
(39,139,cs),
(30,139,o),
(25,129,o),
(25,117,cs),
(25,68,o),
(82,-10,o),
(208,-10,cs),
(324,-10,o),
(401,59,o),
(401,157,cs),
(401,238,o),
(345,279,o),
(294,291,c)
);
}
);
width = 441;
}
);
note = three;
unicode = 51;
},
{
glyphname = four;
layers = (
{
layerId = m01;
shapes = (
{
closed = 1;
nodes = (
(279,9,ls),
(279,3,o),
(281,0,o),
(287,0,cs),
(347,0,ls),
(353,0,o),
(354,3,o),
(354,9,cs),
(354,128,l),
(424,128,ls),
(432,128,o),
(435,132,o),
(435,138,cs),
(435,154,ls),
(435,182,o),
(420,197,o),
(390,197,cs),
(354,197,l),
(354,508,ls),
(354,543,o),
(335,556,o),
(307,556,cs),
(277,556,ls),
(259,556,o),
(249,548,o),
(243,537,c),
(26,208,ls),
(17,195,o),
(16,190,o),
(16,177,cs),
(16,136,ls),
(16,130,o),
(18,128,o),
(24,128,cs),
(279,128,l)
);
},
{
closed = 1;
nodes = (
(279,476,l),
(279,197,l),
(95,197,l)
);
}
);
width = 458;
}
);
note = four;
unicode = 52;
},
{
glyphname = five;
layers = (
{
layerId = m01;
shapes = (
{
closed = 1;
nodes = (
(364,486,ls),
(371,486,o),
(375,490,o),
(375,497,cs),
(375,513,ls),
(375,541,o),
(359,556,o),
(329,556,cs),
(63,556,ls),
(58,556,o),
(56,553,o),
(56,547,cs),
(56,268,ls),
(56,261,o),
(60,257,o),
(68,259,c),
(106,273,o),
(156,286,o),
(211,286,cs),
(286,286,o),
(331,247,o),
(331,175,cs),
(331,104,o),
(283,58,o),
(203,58,cs),
(141,58,o),
(95,83,o),
(59,128,cs),
(53,135,o),
(50,137,o),
(44,137,cs),
(35,137,o),
(29,128,o),
(29,116,cs),
(29,59,o),
(96,-10,o),
(210,-10,cs),
(322,-10,o),
(407,64,o),
(407,179,cs),
(407,286,o),
(338,353,o),
(224,353,cs),
(183,353,o),
(152,346,o),
(130,340,c),
(130,486,l)
);
}
);
width = 448;
}
);
note = five;
unicode = 53;
},
{
glyphname = six;
layers = (
{
layerId = m01;
shapes = (
{
closed = 1;
nodes = (
(270,479,ls),
(299,527,o),
(281,567,o),
(247,567,cs),
(240,567,o),
(236,563,o),
(232,557,cs),
(108,353,ls),
(68,287,o),
(42,236,o),
(42,174,cs),
(42,64,o),
(125,-10,o),
(236,-10,cs),
(349,-10,o),
(428,63,o),
(428,184,cs),
(428,280,o),
(357,362,o),
(253,362,cs),
(226,362,o),
(207,356,o),
(191,349,c)
);
},
{
closed = 1;
nodes = (
(116,247,o),
(165,296,o),
(236,296,cs),
(309,296,o),
(353,244,o),
(353,177,cs),
(353,108,o),
(309,59,o),
(237,59,cs),
(163,59,o),
(116,107,o),
(116,177,cs)
);
}
);
width = 463;
}
);
note = six;
unicode = 54;
},
{
glyphname = seven;
layers = (
{
layerId = m01;
shapes = (
{
closed = 1;
nodes = (
(87,9,ls),
(85,5,o),
(87,0,o),
(93,0,cs),
(154,0,ls),
(163,0,o),
(166,3,o),
(170,12,cs),
(374,456,ls),
(382,474,o),
(385,484,o),
(385,502,cs),
(385,513,ls),
(385,541,o),
(369,556,o),
(339,556,cs),
(35,556,ls),
(29,556,o),
(27,553,o),
(27,547,cs),
(27,495,ls),
(27,489,o),
(29,486,o),
(35,486,cs),
(306,486,l)
);
}
);
width = 423;
}
);
note = seven;
unicode = 55;
},
{
glyphname = eight;
layers = (
{
layerId = m01;
shapes = (
{
closed = 1;
nodes = (
(111,223,o),
(165,261,o),
(231,261,cs),
(298,261,o),
(352,223,o),
(352,156,cs),
(352,94,o),
(305,54,o),
(231,54,cs),
(158,54,o),
(111,94,o),
(111,156,cs)
);
},
{
closed = 1;
nodes = (
(125,470,o),
(172,503,o),
(231,503,cs),
(292,503,o),
(337,470,o),
(337,412,cs),
(337,363,o),
(295,324,o),
(231,324,cs),
(167,324,o),
(125,363,o),
(125,412,cs)
);
},
{
closed = 1;
nodes = (
(69,269,o),
(36,216,o),
(36,155,cs),
(36,59,o),
(110,-11,o),
(231,-11,cs),
(353,-11,o),
(427,59,o),
(427,155,cs),
(427,216,o),
(394,269,o),
(322,294,c),
(370,315,o),
(410,354,o),
(410,422,cs),
(410,512,o),
(332,567,o),
(231,567,cs),
(130,567,o),
(52,512,o),
(52,422,cs),
(52,354,o),
(92,315,o),
(140,294,c)
);
}
);
width = 462;
}
);
note = eight;
unicode = 56;
},
{
glyphname = nine;
layers = (
{
layerId = m01;
shapes = (
{
closed = 1;
nodes = (
(194,77,ls),
(168,34,o),
(180,-10,o),
(217,-10,cs),
(225,-10,o),
(228,-7,o),
(233,1,cs),
(356,204,ls),
(396,269,o),
(422,320,o),
(422,382,cs),
(422,492,o),
(343,567,o),
(231,567,cs),
(120,567,o),
(36,493,o),
(36,372,cs),
(36,272,o),
(109,194,o),
(212,194,cs),
(238,194,o),
(257,200,o),
(275,209,c)
);
},
{
closed = 1;
nodes = (
(155,261,o),
(111,307,o),
(111,379,cs),
(111,448,o),
(158,498,o),
(229,498,cs),
(303,498,o),
(347,449,o),
(347,379,cs),
(347,310,o),
(299,261,o),
(228,261,cs)
);
}
);
width = 463;
}
);
note = nine;
unicode = 57;
},
{
glyphname = colon;
layers = (
{
layerId = m01;
shapes = (
{
closed = 1;
nodes = (
(59,324,o),
(34,299,o),
(34,269,cs),
(34,239,o),
(59,214,o),
(88,214,cs),
(118,214,o),
(142,239,o),
(142,269,cs),
(142,299,o),
(118,324,o),
(88,324,cs)
);
},
{
closed = 1;
nodes = (
(59,99,o),
(34,74,o),
(34,44,cs),
(34,14,o),
(59,-11,o),
(88,-11,cs),
(118,-11,o),
(142,14,o),
(142,44,cs),
(142,74,o),
(118,99,o),
(88,99,cs)
);
}
);
width = 176;
}
);
note = colon;
unicode = 58;
},
{
glyphname = semicolon;
layers = (
{
layerId = m01;
shapes = (
{
closed = 1;
nodes = (
(118,214,o),
(142,239,o),
(142,269,cs),
(142,299,o),
(118,324,o),
(88,324,cs),
(59,324,o),
(34,299,o),
(34,269,cs),
(34,239,o),
(59,214,o),
(88,214,cs)
);
},
{
closed = 1;
nodes = (
(57,99,o),
(34,74,o),
(34,44,cs),
(34,18,o),
(51,-6,o),
(80,-11,c),
(75,-31,o),
(62,-48,o),
(53,-59,cs),
(42,-71,o),
(35,-89,o),
(52,-105,cs),
(54,-107,o),
(56,-108,o),
(57,-106,c),
(103,-69,o),
(141,-17,o),
(141,42,cs),
(141,74,o),
(116,99,o),
(87,99,cs)
);
}
);
width = 176;
}
);
note = semicolon;
unicode = 59;
},
{
glyphname = less;
layers = (
{
layerId = m01;
shapes = (
{
closed = 1;
nodes = (
(393,377,ls),
(403,381,o),
(407,386,o),
(407,396,cs),
(407,445,ls),
(407,451,o),
(403,453,o),
(397,451,cs),
(45,303,ls),
(39,300,o),
(37,297,o),
(37,290,cs),
(37,251,ls),
(37,243,o),
(39,239,o),
(45,238,c),
(399,88,l),
(404,87,o),
(407,88,o),
(407,94,cs),
(407,99,ls),
(407,139,o),
(394,164,o),
(354,180,cs),
(133,271,l)
);
}
);
width = 450;
}
);
note = less;
unicode = 60;
},
{
glyphname = equal;
layers = (
{
layerId = m01;
shapes = (
{
closed = 1;
nodes = (
(358,325,ls),
(364,325,o),
(366,328,o),
(366,334,cs),
(366,343,ls),
(366,372,o),
(348,391,o),
(315,391,cs),
(45,391,ls),
(39,391,o),
(37,388,o),
(37,382,cs),
(37,334,ls),
(37,328,o),
(39,325,o),
(45,325,cs)
);
},
{
closed = 1;
nodes = (
(358,148,ls),
(364,148,o),
(366,151,o),
(366,157,cs),
(366,166,ls),
(366,195,o),
(348,214,o),
(315,214,cs),
(45,214,ls),
(39,214,o),
(37,211,o),
(37,205,cs),
(37,157,ls),
(37,151,o),
(39,148,o),
(45,148,cs)
);
}
);
width = 403;
}
);
note = equal;
unicode = 61;
},
{
glyphname = greater;
layers = (
{
layerId = m01;
shapes = (
{
closed = 1;
nodes = (
(96,180,ls),
(56,164,o),
(43,139,o),
(43,99,cs),
(43,94,ls),
(43,88,o),
(47,87,o),
(52,88,c),
(406,238,l),
(412,239,o),
(414,243,o),
(414,251,cs),
(414,290,ls),
(414,297,o),
(412,300,o),
(406,303,cs),
(53,451,ls),
(48,453,o),
(43,451,o),
(43,445,cs),
(43,396,ls),
(43,386,o),
(48,381,o),
(57,377,cs),
(318,271,l)
);
}
);
width = 450;
}
);
note = greater;
unicode = 62;
},
{
glyphname = question;
layers = (
{
layerId = m01;
shapes = (
{
closed = 1;
nodes = (
(144,154,o),
(146,152,o),
(152,152,cs),
(201,152,ls),
(206,152,o),
(209,154,o),
(209,160,cs),
(209,183,ls),
(209,203,o),
(211,213,o),
(228,226,cs),
(301,283,o),
(364,332,o),
(364,413,cs),
(364,513,o),
(293,567,o),
(184,567,cs),
(133,567,o),
(95,554,o),
(61,539,cs),
(28,524,o),
(17,507,o),
(26,479,cs),
(32,459,ls),
(34,453,o),
(36,451,o),
(40,451,cs),
(44,451,o),
(48,453,o),
(53,456,cs),
(98,485,o),
(136,497,o),
(184,497,cs),
(248,497,o),
(288,463,o),
(288,407,cs),
(288,304,o),
(144,290,o),
(144,192,cs),
(144,160,ls)
);
},
{
closed = 1;
nodes = (
(148,99,o),
(123,74,o),
(123,44,cs),
(123,14,o),
(148,-11,o),
(178,-11,cs),
(207,-11,o),
(231,14,o),
(231,44,cs),
(231,74,o),
(207,99,o),
(178,99,cs)
);
}
);
width = 393;
}
);
note = question;
unicode = 63;
},
{
glyphname = at;
layers = (
{
layerId = m01;
shapes = (
{
closed = 1;
nodes = (
(304,101,o),
(269,145,o),
(269,208,cs),
(269,286,o),
(315,344,o),
(384,344,cs),
(445,344,o),
(480,304,o),
(480,242,cs),
(480,157,o),
(436,101,o),
(361,101,cs)
);
},
{
closed = 1;
nodes = (
(476,68,o),
(503,35,o),
(551,35,cs),
(654,35,o),
(724,133,o),
(724,271,cs),
(724,458,o),
(575,568,o),
(396,568,cs),
(198,568,o),
(43,416,o),
(43,222,cs),
(43,8,o),
(187,-131,o),
(396,-131,cs),
(549,-131,o),
(639,-48,o),
(639,-11,cs),
(639,-4,o),
(635,1,o),
(630,1,cs),
(624,1,o),
(620,-2,o),
(614,-7,cs),
(577,-34,o),
(509,-69,o),
(403,-69,cs),
(233,-69,o),
(114,38,o),
(114,221,cs),
(114,384,o),
(229,507,o),
(397,507,cs),
(548,507,o),
(656,422,o),
(656,267,cs),
(656,147,o),
(615,96,o),
(567,96,cs),
(550,96,o),
(539,106,o),
(539,126,cs),
(539,136,o),
(541,148,o),
(542,163,cs),
(564,393,ls),
(564,398,o),
(562,403,o),
(557,403,cs),
(551,403,ls),
(520,403,o),
(499,386,o),
(492,352,c),
(472,386,o),
(431,409,o),
(379,409,cs),
(275,409,o),
(195,323,o),
(195,214,cs),
(195,104,o),
(264,34,o),
(347,34,cs),
(412,34,o),
(454,69,o),
(474,103,c)
);
}
);
width = 766;
}
);
note = at;
unicode = 64;
},
{
glyphname = A;
kernLeft = A;
kernRight = A;
layers = (
{
layerId = m01;
shapes = (
{
closed = 1;
nodes = (
(253,463,l),
(342,221,l),
(165,221,l)
);
},
{
closed = 1;
nodes = (
(366,153,l),
(417,12,l),
(421,4,o),
(423,0,o),
(435,0,cs),
(494,0,ls),
(500,0,o),
(503,4,o),
(501,9,cs),
(316,500,ls),
(300,543,o),
(282,556,o),
(243,556,cs),
(224,556,ls),
(218,556,o),
(215,553,o),
(213,547,cs),
(11,9,ls),
(9,4,o),
(11,0,o),
(17,0,cs),
(76,0,ls),
(85,0,o),
(88,3,o),
(91,12,cs),
(141,153,l)
);
}
);
width = 510;
}
);
note = A;
unicode = 65;
},
{
glyphname = B;
layers = (
{
layerId = m01;
shapes = (
{
closed = 1;
nodes = (
(140,258,l),
(268,258,ls),
(343,258,o),
(376,217,o),
(376,164,cs),
(376,78,o),
(317,68,o),
(267,68,cs),
(140,68,l)
);
},
{
closed = 1;
nodes = (
(140,488,l),
(264,488,ls),
(325,488,o),
(356,458,o),
(356,409,cs),
(356,359,o),
(327,325,o),
(271,325,cs),
(140,325,l)
);
},
{
closed = 1;
nodes = (
(390,310,o),
(431,345,o),
(431,414,cs),
(431,505,o),
(368,556,o),
(260,556,cs),
(72,556,ls),
(66,556,o),
(64,553,o),
(64,547,cs),
(64,9,ls),
(64,3,o),
(66,0,o),
(72,0,cs),
(277,0,ls),
(391,0,o),
(455,59,o),
(455,157,cs),
(455,227,o),
(407,278,o),
(346,292,c)
);
}
);
width = 486;
}
);
note = B;
unicode = 66;
},
{
glyphname = C;
kernLeft = C;
kernRight = C;
layers = (
{
layerId = m01;
shapes = (
{
closed = 1;
nodes = (
(441,-11,o),
(491,82,o),
(491,122,cs),
(491,133,o),
(487,142,o),
(477,142,cs),
(472,142,o),
(468,140,o),
(462,132,cs),
(433,96,o),
(383,61,o),
(311,61,cs),
(198,61,o),
(128,138,o),
(128,276,cs),
(128,417,o),
(198,495,o),
(309,495,cs),
(365,495,o),
(408,478,o),
(448,452,cs),
(454,448,o),
(458,446,o),
(462,446,cs),
(467,446,o),
(471,449,o),
(472,456,cs),
(477,477,ls),
(484,506,o),
(472,523,o),
(439,538,cs),
(403,553,o),
(364,567,o),
(309,567,cs),
(157,567,o),
(50,456,o),
(50,277,cs),
(50,97,o),
(151,-11,o),
(301,-11,cs)
);
}
);
width = 512;
}
);
note = C;
unicode = 67;
},
{
glyphname = D;
layers = (
{
layerId = m01;
shapes = (
{
closed = 1;
nodes = (
(140,485,l),
(224,485,ls),
(356,485,o),
(427,431,o),
(427,283,cs),
(427,140,o),
(357,71,o),
(228,71,cs),
(140,71,l)
);
},
{
closed = 1;
nodes = (
(220,0,ls),
(393,0,o),
(506,87,o),
(506,286,cs),
(506,474,o),
(391,556,o),
(228,556,cs),
(72,556,ls),
(66,556,o),
(64,553,o),
(64,547,cs),
(64,9,ls),
(64,3,o),
(66,0,o),
(72,0,cs)
);
}
);
width = 556;
}
);
note = D;
unicode = 68;
},
{
glyphname = E;
kernRight = E;
layers = (
{
layerId = m01;
shapes = (
{
closed = 1;
nodes = (
(140,242,l),
(343,242,ls),
(351,242,o),
(354,246,o),
(354,252,cs),
(354,268,ls),
(354,296,o),
(340,312,o),
(310,312,cs),
(140,312,l),
(140,485,l),
(362,485,ls),
(369,485,o),
(373,489,o),
(373,496,cs),
(373,513,ls),
(373,541,o),
(357,556,o),
(328,556,cs),
(72,556,ls),
(66,556,o),
(64,552,o),
(64,547,cs),
(64,9,ls),
(64,3,o),
(66,0,o),
(72,0,cs),
(371,0,ls),
(379,0,o),
(382,4,o),
(382,11,cs),
(382,27,ls),
(382,54,o),
(367,71,o),
(337,71,cs),
(140,71,l)
);
}
);
width = 412;
}
);
note = E;
unicode = 69;
},
{
glyphname = F;
layers = (
{
layerId = m01;
shapes = (
{
closed = 1;
nodes = (
(341,239,ls),
(350,239,o),
(353,243,o),
(353,251,cs),
(353,266,ls),
(353,294,o),
(337,310,o),
(308,310,cs),
(140,310,l),
(140,485,l),
(362,485,ls),
(370,485,o),
(373,489,o),
(373,496,cs),
(373,513,ls),
(373,541,o),
(357,556,o),
(328,556,cs),
(72,556,ls),
(66,556,o),
(64,553,o),
(64,547,cs),
(64,9,ls),
(64,3,o),
(66,0,o),
(72,0,cs),
(132,0,ls),
(138,0,o),
(140,3,o),
(140,9,cs),
(140,239,l)
);
}
);
width = 397;
}
);
note = F;
unicode = 70;
},
{
glyphname = G;
layers = (
{
layerId = m01;
shapes = (
{
closed = 1;
nodes = (
(400,72,o),
(355,61,o),
(308,61,cs),
(195,61,o),
(127,139,o),
(127,274,cs),
(127,421,o),
(198,495,o),
(317,495,cs),
(370,495,o),
(420,479,o),
(462,454,cs),
(468,450,o),
(472,448,o),
(476,448,cs),
(481,448,o),
(483,451,o),
(486,458,c),
(491,479,ls),
(497,508,o),
(486,526,o),
(452,539,cs),
(414,556,o),
(372,567,o),
(313,567,cs),
(153,567,o),
(49,454,o),
(49,279,cs),
(49,89,o),
(161,-11,o),
(308,-11,cs),
(382,-11,o),
(444,16,o),
(496,59,cs),
(511,73,o),
(515,81,o),
(515,101,cs),
(515,285,ls),
(515,291,o),
(511,295,o),
(505,295,cs),
(303,295,ls),
(297,295,o),
(293,291,o),
(293,284,cs),
(293,268,ls),
(293,241,o),
(308,224,o),
(338,224,cs),
(442,224,l),
(442,107,l)
);
}
);
width = 563;
}
);
note = G;
unicode = 71;
},
{
glyphname = H;
layers = (
{
layerId = m01;
shapes = (
{
closed = 1;
nodes = (
(386,239,l),
(386,9,ls),
(386,3,o),
(388,0,o),
(394,0,cs),
(454,0,ls),
(459,0,o),
(462,3,o),
(462,9,cs),
(462,485,ls),
(462,533,o),
(440,556,o),
(401,556,cs),
(394,556,ls),
(388,556,o),
(386,553,o),
(386,547,cs),
(386,310,l),
(140,310,l),
(140,485,ls),
(140,533,o),
(118,556,o),
(79,556,cs),
(72,556,ls),
(66,556,o),
(64,553,o),
(64,547,cs),
(64,9,ls),
(64,3,o),
(66,0,o),
(72,0,cs),
(132,0,ls),
(138,0,o),
(140,3,o),
(140,9,cs),
(140,239,l)
);
}
);
width = 527;
}
);
note = H;
unicode = 72;
},
{
glyphname = I;
kernRight = I;
layers = (
{
layerId = m01;
shapes = (
{
closed = 1;
nodes = (
(132,0,ls),
(138,0,o),
(140,3,o),
(140,9,cs),
(140,485,ls),
(140,533,o),
(118,556,o),
(79,556,cs),
(72,556,ls),
(66,556,o),
(64,552,o),
(64,547,cs),
(64,9,ls),
(64,3,o),
(66,0,o),
(72,0,cs)
);
}
);
width = 205;
}
);
note = I;
unicode = 73;
},
{
glyphname = J;
layers = (
{
layerId = m01;
shapes = (
{
closed = 1;
nodes = (
(6,31,o),
(50,-10,o),
(111,-10,cs),
(190,-10,o),
(232,40,o),
(232,114,cs),
(232,485,ls),
(232,533,o),
(209,556,o),
(171,556,cs),
(164,556,ls),
(158,556,o),
(156,553,o),
(156,547,cs),
(156,117,ls),
(156,81,o),
(135,54,o),
(94,54,cs),
(68,54,o),
(48,67,o),
(25,92,cs),
(22,96,o),
(19,97,o),
(17,97,cs),
(11,97,o),
(6,91,o),
(6,81,cs)
);
}
);
width = 294;
}
);
note = J;
unicode = 74;
},
{
glyphname = K;
layers = (
{
layerId = m01;
shapes = (
{
closed = 1;
nodes = (
(222,276,l),
(385,11,ls),
(390,3,o),
(394,0,o),
(404,0,cs),
(468,0,ls),
(476,0,o),
(477,5,o),
(473,10,c),
(274,336,l),
(451,547,l),
(454,549,o),
(453,556,o),
(447,556,cs),
(385,556,ls),
(376,556,o),
(373,553,o),
(365,544,cs),
(140,276,l),
(140,485,ls),
(140,533,o),
(118,556,o),
(79,556,cs),
(72,556,ls),
(66,556,o),
(64,553,o),
(64,547,cs),
(64,9,ls),
(64,3,o),
(66,0,o),
(72,0,cs),
(132,0,ls),
(138,0,o),
(140,3,o),
(140,9,cs),
(140,178,l)
);
}
);
width = 489;
}
);
note = K;
unicode = 75;
},
{
glyphname = L;
layers = (
{
layerId = m01;
shapes = (
{
closed = 1;
nodes = (
(140,485,ls),
(140,533,o),
(118,556,o),
(79,556,cs),
(72,556,ls),
(66,556,o),
(64,553,o),
(64,547,cs),
(64,9,ls),
(64,3,o),
(66,0,o),
(72,0,cs),
(341,0,ls),
(348,0,o),
(351,4,o),
(351,11,cs),
(351,27,ls),
(351,54,o),
(336,71,o),
(307,71,cs),
(140,71,l)
);
}
);
width = 370;
}
);
note = L;
unicode = 76;
},
{
glyphname = M;
layers = (
{
layerId = m01;
shapes = (
{
closed = 1;
nodes = (
(182,511,ls),
(172,544,o),
(154,556,o),
(116,556,cs),
(84,556,ls),
(79,556,o),
(76,552,o),
(76,547,cs),
(46,9,ls),
(46,3,o),
(48,0,o),
(53,0,cs),
(115,0,ls),
(120,0,o),
(122,3,o),
(122,9,cs),
(144,412,l),
(272,9,ls),
(274,4,o),
(278,0,o),
(283,0,cs),
(338,0,ls),
(344,0,o),
(348,3,o),
(350,9,cs),
(483,416,l),
(504,9,ls),
(504,3,o),
(507,0,o),
(512,0,cs),
(573,0,ls),
(578,0,o),
(580,3,o),
(580,9,cs),
(553,500,ls),
(551,534,o),
(528,556,o),
(497,556,cs),
(464,556,ls),
(459,556,o),
(455,553,o),
(454,547,c),
(313,108,l)
);
}
);
width = 625;
}
);
note = M;
unicode = 77;
},
{
glyphname = N;
kernRight = N;
layers = (
{
layerId = m01;
shapes = (
{
closed = 1;
nodes = (
(160,511,ls),
(141,542,o),
(128,556,o),
(90,556,cs),
(72,556,ls),
(66,556,o),
(64,552,o),
(64,547,cs),
(64,9,ls),
(64,3,o),
(66,0,o),
(72,0,cs),
(132,0,ls),
(138,0,o),
(140,3,o),
(140,9,cs),
(140,403,l),
(380,13,ls),
(386,3,o),
(392,0,o),
(402,0,cs),
(456,0,ls),
(462,0,o),
(463,3,o),
(463,9,cs),
(463,485,ls),
(463,533,o),
(443,556,o),
(403,556,cs),
(396,556,ls),
(391,556,o),
(388,552,o),
(388,547,cs),
(388,138,l)
);
}
);
width = 529;
}
);
note = N;
unicode = 78;
},
{
glyphname = O;
kernLeft = O;
kernRight = O;
layers = (
{
layerId = m01;
shapes = (
{
closed = 1;
nodes = (
(212,62,o),
(127,109,o),
(127,277,cs),
(127,444,o),
(212,495,o),
(301,495,cs),
(389,495,o),
(475,444,o),
(475,277,cs),
(475,109,o),
(389,62,o),
(301,62,cs)
);
},
{
closed = 1;
nodes = (
(461,-10,o),
(552,101,o),
(552,277,cs),
(552,453,o),
(458,566,o),
(301,566,cs),
(143,566,o),
(49,453,o),
(49,277,cs),
(49,101,o),
(142,-10,o),
(301,-10,cs)
);
}
);
width = 602;
}
);
note = O;
unicode = 79;
},
{
glyphname = P;
layers = (
{
layerId = m01;
shapes = (
{
closed = 1;
nodes = (
(140,485,l),
(269,485,ls),
(333,485,o),
(379,447,o),
(379,382,cs),
(379,294,o),
(320,273,o),
(266,273,cs),
(140,273,l)
);
},
{
closed = 1;
nodes = (
(270,203,ls),
(385,203,o),
(456,274,o),
(456,382,cs),
(456,488,o),
(387,556,o),
(263,556,cs),
(72,556,ls),
(66,556,o),
(64,553,o),
(64,547,cs),
(64,9,ls),
(64,3,o),
(66,0,o),
(72,0,cs),
(132,0,ls),
(138,0,o),
(140,3,o),
(140,9,cs),
(140,203,l)
);
}
);
width = 489;
}
);
note = P;
unicode = 80;
},
{
glyphname = Q;
layers = (
{
layerId = m01;
shapes = (
{
closed = 1;
nodes = (
(288,-68,o),
(332,-111,o),
(410,-111,cs),
(488,-111,o),
(536,-57,o),
(536,-17,cs),
(536,-9,o),
(532,-2,o),
(525,-2,cs),
(522,-2,o),
(520,-3,o),
(515,-7,cs),
(488,-34,o),
(462,-45,o),
(430,-45,cs),
(391,-45,o),
(367,-27,o),
(353,-3,c),
(482,17,o),
(552,121,o),
(552,277,cs),
(552,453,o),
(459,567,o),
(301,567,cs),
(143,567,o),
(49,453,o),
(49,277,cs),
(49,114,o),
(128,8,o),
(264,-8,c)
);
},
{
closed = 1;
nodes = (
(212,62,o),
(127,109,o),
(127,277,cs),
(127,444,o),
(212,495,o),
(301,495,cs),
(389,495,o),
(475,444,o),
(475,277,cs),
(475,109,o),
(389,62,o),
(301,62,cs)
);
}
);
width = 602;
}
);
note = Q;
unicode = 81;
},
{
glyphname = R;
layers = (
{
layerId = m01;
shapes = (
{
closed = 1;
nodes = (
(140,485,l),
(270,485,ls),
(336,485,o),
(380,448,o),
(380,382,cs),
(380,307,o),
(337,273,o),
(266,273,cs),
(140,273,l)
);
},
{
closed = 1;
nodes = (
(264,203,l),
(373,11,ls),
(378,3,o),
(383,0,o),
(393,0,cs),
(456,0,ls),
(462,0,o),
(463,5,o),
(461,9,cs),
(341,214,l),
(408,238,o),
(457,293,o),
(457,379,cs),
(457,488,o),
(391,556,o),
(262,556,cs),
(72,556,ls),
(66,556,o),
(64,553,o),
(64,547,cs),
(64,9,ls),
(64,3,o),
(66,0,o),
(72,0,cs),
(132,0,ls),
(138,0,o),
(140,3,o),
(140,9,cs),
(140,203,l)
);
}
);
width = 498;
}
);
note = R;
unicode = 82;
},
{
glyphname = S;
kernLeft = S;
kernRight = S;
layers = (
{
layerId = m01;
shapes = (
{
closed = 1;
nodes = (
(21,68,o),
(80,-11,o),
(217,-11,cs),
(342,-11,o),
(416,58,o),
(416,159,cs),
(416,343,o),
(114,294,o),
(114,418,cs),
(114,468,o),
(160,498,o),
(223,498,cs),
(277,498,o),
(329,481,o),
(370,455,cs),
(377,451,o),
(380,449,o),
(385,449,cs),
(390,449,o),
(392,453,o),
(393,459,cs),
(398,479,ls),
(406,508,o),
(393,527,o),
(360,539,c),
(323,556,o),
(278,566,o),
(224,566,cs),
(116,566,o),
(37,507,o),
(37,414,cs),
(37,223,o),
(339,271,o),
(339,150,cs),
(339,94,o),
(291,59,o),
(209,59,cs),
(136,59,o),
(87,88,o),
(47,136,cs),
(43,141,o),
(39,143,o),
(34,143,cs),
(26,143,o),
(21,135,o),
(21,123,cs)
);
}
);
width = 444;
}
);
note = S;
unicode = 83;
},
{
glyphname = T;
layers = (
{
layerId = m01;
shapes = (
{
closed = 1;
nodes = (
(173,9,ls),
(173,3,o),
(176,0,o),
(182,0,cs),
(241,0,ls),
(247,0,o),
(248,3,o),
(248,9,cs),
(248,485,l),
(400,485,ls),
(407,485,o),
(411,489,o),
(411,496,cs),
(411,513,ls),
(411,541,o),
(395,556,o),
(365,556,cs),
(22,556,ls),
(16,556,o),
(14,553,o),
(14,547,cs),
(14,494,ls),
(14,488,o),
(16,485,o),
(22,485,cs),
(173,485,l)
);
}
);
width = 424;
}
);
note = T;
unicode = 84;
},
{
glyphname = U;
kernLeft = U;
kernRight = U;
layers = (
{
layerId = m01;
shapes = (
{
closed = 1;
nodes = (
(427,-10,o),
(462,117,o),
(462,201,cs),
(462,485,ls),
(462,533,o),
(441,556,o),
(402,556,cs),
(395,556,ls),
(389,556,o),
(387,552,o),
(387,547,cs),
(387,213,ls),
(387,127,o),
(355,61,o),
(261,61,cs),
(169,61,o),
(139,124,o),
(139,212,cs),
(139,485,ls),
(139,533,o),
(117,556,o),
(78,556,cs),
(71,556,ls),
(65,556,o),
(63,552,o),
(63,547,cs),
(63,199,ls),
(63,101,o),
(104,-10,o),
(262,-10,cs)
);
}
);
width = 525;
}
);
note = U;
unicode = 85;
},
{
glyphname = V;
layers = (
{
layerId = m01;
shapes = (
{
closed = 1;
nodes = (
(111,503,ls),
(96,547,o),
(78,556,o),
(46,556,cs),
(20,556,ls),
(14,556,o),
(12,551,o),
(14,546,cs),
(196,9,l),
(199,4,o),
(201,0,o),
(209,0,cs),
(276,0,ls),
(281,0,o),
(285,2,o),
(287,9,cs),
(469,547,ls),
(471,552,o),
(468,556,o),
(463,556,cs),
(406,556,ls),
(396,556,o),
(393,553,o),
(389,544,c),
(244,89,l)
);
}
);
width = 481;
}
);
note = V;
unicode = 86;
},
{
glyphname = W;
layers = (
{
layerId = m01;
shapes = (
{
closed = 1;
nodes = (
(115,503,ls),
(103,547,o),
(82,556,o),
(49,556,cs),
(32,556,ls),
(26,556,o),
(24,551,o),
(25,546,cs),
(163,9,ls),
(164,4,o),
(168,0,o),
(175,0,cs),
(240,0,ls),
(246,0,o),
(248,3,o),
(251,9,c),
(372,454,l),
(498,9,ls),
(499,4,o),
(502,0,o),
(509,0,cs),
(573,0,ls),
(580,0,o),
(582,3,o),
(585,9,c),
(726,547,ls),
(728,553,o),
(725,556,o),
(720,556,cs),
(663,556,ls),
(653,556,o),
(649,552,o),
(647,544,cs),
(539,99,l),
(426,503,ls),
(415,547,o),
(397,556,o),
(365,556,cs),
(345,556,ls),
(336,556,o),
(332,552,o),
(330,544,cs),
(213,99,l)
);
}
);
width = 749;
}
);
note = W;
unicode = 87;
},
{
glyphname = X;
layers = (
{
layerId = m01;
shapes = (
{
closed = 1;
nodes = (
(385,12,l),
(389,4,o),
(394,0,o),
(404,0,cs),
(465,0,ls),
(471,0,o),
(474,4,o),
(470,9,c),
(293,292,l),
(449,547,ls),
(452,552,o),
(449,556,o),
(444,556,cs),
(385,556,ls),
(375,556,o),
(372,552,o),
(367,544,cs),
(242,341,l),
(137,510,ls),
(113,549,o),
(99,556,o),
(65,556,cs),
(37,556,ls),
(31,556,o),
(29,549,o),
(32,546,c),
(189,289,l),
(14,9,ls),
(11,4,o),
(13,0,o),
(19,0,cs),
(79,0,ls),
(88,0,o),
(93,4,o),
(98,12,cs),
(242,241,l)
);
}
);
width = 480;
}
);
note = X;
unicode = 88;
},
{
glyphname = Y;
kernLeft = Y;
kernRight = Y;
layers = (
{
layerId = m01;
shapes = (
{
closed = 1;
nodes = (
(186,9,ls),
(186,3,o),
(187,0,o),
(194,0,cs),
(253,0,ls),
(259,0,o),
(261,3,o),
(261,9,cs),
(261,212,l),
(441,544,ls),
(444,551,o),
(442,556,o),
(435,556,cs),
(377,556,ls),
(369,556,o),
(364,552,o),
(360,543,cs),
(226,292,l),
(112,506,ls),
(92,542,o),
(74,556,o),
(39,556,cs),
(11,556,ls),
(4,556,o),
(3,551,o),
(5,547,cs),
(186,213,l)
);
}
);
width = 445;
}
);
note = Y;
unicode = 89;
},
{
glyphname = Z;
kernLeft = Z;
kernRight = Z;
layers = (
{
layerId = m01;
shapes = (
{
closed = 1;
nodes = (
(399,455,ls),
(409,470,o),
(412,478,o),
(412,492,cs),
(412,505,ls),
(412,543,o),
(389,556,o),
(356,556,cs),
(48,556,ls),
(42,556,o),
(40,552,o),
(40,547,cs),
(40,494,ls),
(40,488,o),
(42,485,o),
(48,485,cs),
(328,485,l),
(46,88,ls),
(36,73,o),
(33,66,o),
(33,51,cs),
(33,9,ls),
(33,3,o),
(35,0,o),
(41,0,cs),
(402,0,ls),
(410,0,o),
(414,4,o),
(414,11,cs),
(414,27,ls),
(414,54,o),
(399,71,o),
(369,71,cs),
(124,71,l)
);
}
);
width = 449;
}
);
note = Z;
unicode = 90;
},
{
glyphname = bracketleft;
layers = (
{
layerId = m01;
shapes = (
{
closed = 1;
nodes = (
(245,-144,o),
(250,-139,o),
(250,-131,cs),
(250,-126,ls),
(250,-98,o),
(231,-80,o),
(199,-80,cs),
(153,-80,ls),
(141,-80,o),
(136,-72,o),
(136,-62,cs),
(136,614,ls),
(136,624,o),
(141,632,o),
(153,632,cs),
(199,632,ls),
(231,632,o),
(250,649,o),
(250,678,cs),
(250,683,ls),
(250,691,o),
(245,696,o),
(238,696,cs),
(131,696,ls),
(92,696,o),
(67,672,o),
(67,633,cs),
(67,-82,ls),
(67,-120,o),
(92,-144,o),
(131,-144,cs),
(238,-144,ls)
);
}
);
width = 306;
}
);
note = bracketleft;
unicode = 91;
},
{
glyphname = backslash;
layers = (
{
layerId = m01;
shapes = (
{
closed = 1;
nodes = (
(232,3,o),
(236,0,o),
(242,0,cs),
(297,0,ls),
(303,0,o),
(304,4,o),
(302,9,cs),
(93,502,ls),
(77,539,o),
(61,556,o),
(19,556,cs),
(8,556,ls),
(1,556,o),
(0,551,o),
(2,547,cs),
(229,9,ls)
);
}
);
width = 302;
}
);
note = backslash;
unicode = 92;
},
{
glyphname = bracketright;
layers = (
{
layerId = m01;
shapes = (
{
closed = 1;
nodes = (
(214,-144,o),
(239,-120,o),
(239,-82,cs),
(239,633,ls),
(239,672,o),
(214,696,o),
(175,696,cs),
(69,696,ls),
(61,696,o),
(56,691,o),
(56,683,cs),
(56,678,ls),
(56,649,o),
(75,632,o),
(107,632,cs),
(153,632,ls),
(165,632,o),
(170,624,o),
(170,614,cs),
(170,-62,ls),
(170,-72,o),
(165,-80,o),
(153,-80,cs),
(107,-80,ls),
(75,-80,o),
(56,-98,o),
(56,-126,cs),
(56,-131,ls),
(56,-139,o),
(61,-144,o),
(69,-144,cs),
(175,-144,ls)
);
}
);
width = 306;
}
);
note = bracketright;
unicode = 93;
},
{
glyphname = asciicircum;
layers = (
{
layerId = m01;
shapes = (
{
closed = 1;
nodes = (
(307,282,ls),
(312,273,o),
(315,271,o),
(325,271,cs),
(375,271,ls),
(380,271,o),
(384,276,o),
(382,279,cs),
(257,512,ls),
(239,544,o),
(218,556,o),
(188,556,cs),
(177,556,o),
(173,553,o),
(169,544,cs),
(28,279,ls),
(26,276,o),
(28,271,o),
(34,271,cs),
(84,271,ls),
(94,271,o),
(98,273,o),
(102,282,cs),
(205,477,l)
);
}
);
width = 407;
}
);
note = asciicircum;
unicode = 94;
},
{
glyphname = underscore;
layers = (
{
layerId = m01;
shapes = (
{
closed = 1;
nodes = (
(432,-188,ls),
(438,-188,o),
(441,-186,o),
(441,-180,cs),
(441,-131,ls),
(441,-125,o),
(438,-122,o),
(432,-122,cs),
(2,-122,ls),
(-4,-122,o),
(-6,-125,o),
(-6,-131,cs),
(-6,-180,ls),
(-6,-186,o),
(-4,-188,o),
(2,-188,cs)
);
}
);
width = 434;
}
);
note = underscore;
unicode = 95;
},
{
glyphname = grave;
layers = (
{
layerId = m01;
shapes = (
{
closed = 1;
nodes = (
(98,506,ls),
(90,513,o),
(85,516,o),
(73,516,cs),
(9,516,ls),
(3,516,o),
(1,510,o),
(5,507,cs),
(87,441,l),
(95,433,o),
(103,430,o),
(115,430,cs),
(168,430,ls),
(174,430,o),
(176,436,o),
(172,439,cs)
);
}
);
width = 173;
}
);
note = grave;
unicode = 96;
},
{
glyphname = a;
kernLeft = a;
kernRight = a;
layers = (
{
layerId = m01;
shapes = (
{
closed = 1;
nodes = (
(331,9,ls),
(331,3,o),
(333,0,o),
(339,0,cs),
(398,0,ls),
(404,0,o),
(405,3,o),
(405,9,cs),
(405,359,ls),
(405,366,o),
(404,368,o),
(398,368,cs),
(393,368,ls),
(362,368,o),
(341,354,o),
(335,319,c),
(311,353,o),
(268,377,o),
(212,377,cs),
(108,377,o),
(37,295,o),
(37,184,cs),
(37,78,o),
(99,-9,o),
(209,-9,cs),
(259,-9,o),
(302,10,o),
(331,52,c)
);
},
{
closed = 1;
nodes = (
(172,61,o),
(114,94,o),
(114,184,cs),
(114,266,o),
(165,306,o),
(223,306,cs),
(269,306,o),
(331,282,o),
(331,184,cs),
(331,87,o),
(269,61,o),
(220,61,cs)
);
}
);
width = 459;
}
);
note = a;
unicode = 97;
},
{
glyphname = b;
layers = (
{
layerId = m01;
shapes = (
{
closed = 1;
nodes = (
(154,10,o),
(200,-9,o),
(252,-9,cs),
(360,-9,o),
(422,77,o),
(422,184,cs),
(422,300,o),
(355,377,o),
(251,377,cs),
(193,377,o),
(151,352,o),
(127,316,c),
(127,487,ls),
(127,534,o),
(105,556,o),
(66,556,cs),
(61,556,ls),
(55,556,o),
(53,553,o),
(53,547,cs),
(53,9,ls),
(53,3,o),
(55,0,o),
(61,0,cs),
(120,0,ls),
(125,0,o),
(127,3,o),
(127,9,cs),
(127,49,l)
);
},
{
closed = 1;
nodes = (
(191,61,o),
(127,87,o),
(127,184,cs),
(127,282,o),
(190,306,o),
(236,306,cs),
(294,306,o),
(345,266,o),
(345,184,cs),
(345,94,o),
(287,61,o),
(237,61,cs)
);
}
);
width = 459;
}
);
note = b;
unicode = 98;
},
{
glyphname = c;
kernLeft = c;
kernRight = c;
layers = (
{
layerId = m01;
shapes = (
{
closed = 1;
nodes = (
(315,280,o),
(318,279,o),
(320,279,cs),
(324,279,o),
(326,282,o),
(327,287,cs),
(332,307,ls),
(339,333,o),
(331,351,o),
(304,362,cs),
(279,372,o),
(254,377,o),
(220,377,cs),
(112,377,o),
(38,300,o),
(38,183,cs),
(38,63,o),
(109,-10,o),
(215,-10,cs),
(301,-10,o),
(344,45,o),
(344,86,cs),
(344,94,o),
(341,101,o),
(334,101,cs),
(330,101,o),
(325,97,o),
(322,94,cs),
(304,76,o),
(275,57,o),
(231,57,cs),
(156,57,o),
(115,104,o),
(115,182,cs),
(115,262,o),
(160,306,o),
(223,306,cs),
(260,306,o),
(282,298,o),
(312,282,cs)
);
}
);
width = 363;
}
);
note = c;
unicode = 99;
},
{
glyphname = d;
layers = (
{
layerId = m01;
shapes = (
{
closed = 1;
nodes = (
(309,356,o),
(266,377,o),
(215,377,cs),
(107,377,o),
(38,295,o),
(38,184,cs),
(38,78,o),
(101,-9,o),
(210,-9,cs),
(260,-9,o),
(304,10,o),
(332,52,c),
(332,9,ls),
(332,3,o),
(334,0,o),
(340,0,cs),
(399,0,ls),
(404,0,o),
(407,3,o),
(407,9,cs),
(407,487,ls),
(407,534,o),
(384,556,o),
(345,556,cs),
(340,556,ls),
(334,556,o),
(332,553,o),
(332,547,cs),
(332,320,l)
);
},
{
closed = 1;
nodes = (
(173,61,o),
(115,94,o),
(115,184,cs),
(115,266,o),
(166,306,o),
(224,306,cs),
(270,306,o),
(332,282,o),
(332,184,cs),
(332,87,o),
(271,61,o),
(221,61,cs)
);
}
);
width = 459;
}
);
note = d;
unicode = 100;
},
{
glyphname = e;
kernLeft = e;
kernRight = e;
layers = (
{
layerId = m01;
shapes = (
{
closed = 1;
nodes = (
(359,157,ls),
(369,157,o),
(373,160,o),
(374,169,cs),
(375,179,o),
(376,191,o),
(376,208,cs),
(376,294,o),
(329,377,o),
(212,377,cs),
(108,377,o),
(37,296,o),
(37,184,cs),
(37,51,o),
(126,-9,o),
(224,-9,cs),
(320,-9,o),
(370,44,o),
(370,87,cs),
(370,94,o),
(367,101,o),
(360,101,cs),
(356,101,o),
(351,96,o),
(346,93,cs),
(318,73,o),
(289,56,o),
(233,56,cs),
(164,56,o),
(119,87,o),
(111,157,c)
);
},
{
closed = 1;
nodes = (
(119,275,o),
(155,311,o),
(211,311,cs),
(284,311,o),
(304,259,o),
(302,214,c),
(113,214,l)
);
}
);
width = 412;
}
);
note = e;
unicode = 101;
},
{
glyphname = f;
kernLeft = f;
layers = (
{
layerId = m01;
shapes = (
{
closed = 1;
nodes = (
(82,9,ls),
(82,3,o),
(83,0,o),
(90,0,cs),
(148,0,ls),
(154,0,o),
(156,3,o),
(156,9,cs),
(156,302,l),
(247,302,ls),
(252,302,o),
(255,304,o),
(255,310,cs),
(255,359,ls),
(255,366,o),
(252,368,o),
(247,368,cs),
(156,368,l),
(156,438,ls),
(156,480,o),
(172,496,o),
(199,496,cs),
(221,496,o),
(237,486,o),
(252,474,c),
(256,472,o),
(257,471,o),
(261,471,cs),
(266,471,o),
(270,477,o),
(270,485,cs),
(270,514,o),
(242,562,o),
(181,562,cs),
(123,562,o),
(82,524,o),
(82,442,cs),
(82,368,l),
(22,368,ls),
(16,368,o),
(14,366,o),
(14,359,cs),
(14,310,ls),
(14,304,o),
(16,302,o),
(22,302,cs),
(82,302,l)
);
}
);
width = 289;
}
);
note = f;
unicode = 102;
},
{
glyphname = g;
layers = (
{
layerId = m01;
shapes = (
{
closed = 1;
nodes = (
(332,12,ls),
(332,-59,o),
(299,-101,o),
(207,-101,cs),
(145,-101,o),
(107,-82,o),
(81,-58,cs),
(76,-54,o),
(74,-51,o),
(69,-51,cs),
(62,-51,o),
(58,-59,o),
(58,-68,cs),
(58,-116,o),
(121,-171,o),
(220,-171,cs),
(345,-171,o),
(407,-98,o),
(407,12,cs),
(407,360,ls),
(407,366,o),
(404,368,o),
(399,368,cs),
(394,368,ls),
(363,368,o),
(342,354,o),
(337,319,c),
(312,354,o),
(269,377,o),
(213,377,cs),
(109,377,o),
(38,295,o),
(38,184,cs),
(38,78,o),
(101,-6,o),
(210,-6,cs),
(260,-6,o),
(304,14,o),
(332,54,c)
);
},
{
closed = 1;
nodes = (
(173,61,o),
(115,94,o),
(115,184,cs),
(115,266,o),
(166,306,o),
(224,306,cs),
(270,306,o),
(332,282,o),
(332,184,cs),
(332,87,o),
(271,61,o),
(221,61,cs)
);
}
);
width = 459;
}
);
note = g;
unicode = 103;
},
{
glyphname = h;
layers = (
{
layerId = m01;
shapes = (
{
closed = 1;
nodes = (
(127,487,ls),
(127,534,o),
(105,556,o),
(66,556,cs),
(61,556,ls),
(55,556,o),
(53,553,o),
(53,547,cs),
(53,9,ls),
(53,3,o),
(55,0,o),
(61,0,cs),
(120,0,ls),
(125,0,o),
(127,3,o),
(127,9,cs),
(127,199,ls),
(127,273,o),
(164,308,o),
(224,308,cs),
(280,308,o),
(316,273,o),
(316,204,cs),
(316,9,ls),
(316,3,o),
(318,0,o),
(324,0,cs),
(383,0,ls),
(389,0,o),
(391,3,o),
(391,9,cs),
(391,217,ls),
(391,316,o),
(332,377,o),
(241,377,cs),
(186,377,o),
(147,353,o),
(127,323,c)
);
}
);
width = 441;
}
);
note = h;
unicode = 104;
},
{
glyphname = i;
kernLeft = i;
kernRight = i;
layers = (
{
layerId = m01;
shapes = (
{
closed = 1;
nodes = (
(120,0,ls),
(125,0,o),
(128,3,o),
(128,9,cs),
(128,299,ls),
(128,346,o),
(105,368,o),
(66,368,cs),
(61,368,ls),
(55,368,o),
(53,366,o),
(53,359,cs),
(53,9,ls),
(53,3,o),
(55,0,o),
(61,0,cs)
);
},
{
closed = 1;
nodes = (
(46,442,o),
(66,422,o),
(91,422,cs),
(115,422,o),
(135,442,o),
(135,467,cs),
(135,493,o),
(115,513,o),
(91,513,cs),
(66,513,o),
(46,493,o),
(46,467,cs)
);
}
);
width = 180;
}
);
note = i;
unicode = 105;
},
{
glyphname = j;
layers = (
{
layerId = m01;
shapes = (
{
closed = 1;
nodes = (
(-45,-78,o),
(-47,-78,o),
(-50,-78,cs),
(-56,-78,o),
(-59,-83,o),
(-59,-92,cs),
(-59,-119,o),
(-32,-171,o),
(33,-171,cs),
(92,-171,o),
(127,-130,o),
(127,-48,cs),
(127,299,ls),
(127,346,o),
(104,368,o),
(65,368,cs),
(60,368,ls),
(54,368,o),
(53,366,o),
(53,360,cs),
(53,-42,ls),
(53,-84,o),
(43,-106,o),
(11,-106,cs),
(-10,-106,o),
(-25,-94,o),
(-42,-81,cs)
);
},
{
closed = 1;
nodes = (
(45,442,o),
(65,422,o),
(90,422,cs),
(115,422,o),
(135,442,o),
(135,467,cs),
(135,493,o),
(115,513,o),
(90,513,cs),
(65,513,o),
(45,493,o),
(45,467,cs)
);
}
);
width = 180;
}
);
note = j;
unicode = 106;
},
{
glyphname = k;
layers = (
{
layerId = m01;
shapes = (
{
closed = 1;
nodes = (
(173,181,l),
(276,11,ls),
(280,3,o),
(285,0,o),
(295,0,cs),
(358,0,ls),
(363,0,o),
(365,5,o),
(363,9,cs),
(224,234,l),
(346,360,ls),
(349,363,o),
(348,368,o),
(342,368,cs),
(280,368,ls),
(270,368,o),
(266,366,o),
(257,358,cs),
(127,224,l),
(127,487,ls),
(127,534,o),
(105,556,o),
(66,556,cs),
(61,556,ls),
(55,556,o),
(53,553,o),
(53,547,cs),
(53,9,ls),
(53,3,o),
(55,0,o),
(61,0,cs),
(120,0,ls),
(125,0,o),
(127,3,o),
(127,9,cs),
(127,135,l)
);
}
);
width = 376;
}
);
note = k;
unicode = 107;
},
{
glyphname = l;
kernRight = l;
layers = (
{
layerId = m01;
shapes = (
{
closed = 1;
nodes = (
(209,-9,o),
(232,43,o),
(232,76,cs),
(232,82,o),
(229,89,o),
(223,89,cs),
(219,89,o),
(216,87,o),
(213,83,cs),
(199,68,o),
(186,59,o),
(165,59,cs),
(139,59,o),
(126,78,o),
(126,111,cs),
(126,487,ls),
(126,533,o),
(104,556,o),
(65,556,cs),
(60,556,ls),
(54,556,o),
(52,552,o),
(52,547,cs),
(52,106,ls),
(52,26,o),
(88,-9,o),
(145,-9,cs)
);
}
);
width = 233;
}
);
note = l;
unicode = 108;
},
{
glyphname = m;
layers = (
{
layerId = m01;
shapes = (
{
closed = 1;
nodes = (
(119,351,o),
(97,368,o),
(66,368,cs),
(61,368,ls),
(55,368,o),
(53,366,o),
(53,360,cs),
(53,9,ls),
(53,3,o),
(55,0,o),
(61,0,cs),
(120,0,ls),
(125,0,o),
(127,3,o),
(127,9,cs),
(127,199,ls),
(127,272,o),
(163,307,o),
(222,307,cs),
(276,307,o),
(310,273,o),
(310,203,cs),
(310,9,ls),
(310,3,o),
(312,0,o),
(318,0,cs),
(377,0,ls),
(383,0,o),
(385,3,o),
(385,9,cs),
(385,199,ls),
(385,272,o),
(421,307,o),
(479,307,cs),
(534,307,o),
(568,273,o),
(568,203,cs),
(568,9,ls),
(568,3,o),
(570,0,o),
(576,0,cs),
(634,0,ls),
(640,0,o),
(642,3,o),
(642,9,cs),
(642,216,ls),
(642,315,o),
(587,376,o),
(492,376,cs),
(429,376,o),
(388,343,o),
(364,308,c),
(339,351,o),
(296,376,o),
(237,376,cs),
(183,376,o),
(145,350,o),
(125,319,c)
);
}
);
width = 693;
}
);
note = m;
unicode = 109;
},
{
glyphname = n;
kernLeft = n;
kernRight = n;
layers = (
{
layerId = m01;
shapes = (
{
closed = 1;
nodes = (
(119,350,o),
(96,368,o),
(65,368,cs),
(60,368,ls),
(54,368,o),
(52,366,o),
(52,359,cs),
(52,9,ls),
(52,3,o),
(54,0,o),
(60,0,cs),
(119,0,ls),
(124,0,o),
(126,3,o),
(126,9,cs),
(126,198,ls),
(126,272,o),
(163,307,o),
(223,307,cs),
(279,307,o),
(315,272,o),
(315,202,cs),
(315,9,ls),
(315,3,o),
(317,0,o),
(323,0,cs),
(382,0,ls),
(388,0,o),
(390,3,o),
(390,9,cs),
(390,216,ls),
(390,315,o),
(333,376,o),
(240,376,cs),
(186,376,o),
(145,351,o),
(124,318,c)
);
}
);
width = 441;
}
);
note = n;
unicode = 110;
},
{
glyphname = o;
kernLeft = o;
kernRight = o;
layers = (
{
layerId = m01;
shapes = (
{
closed = 1;
nodes = (
(336,-9,o),
(409,68,o),
(409,184,cs),
(409,299,o),
(335,377,o),
(222,377,cs),
(110,377,o),
(37,299,o),
(37,183,cs),
(37,67,o),
(110,-9,o),
(223,-9,cs)
);
},
{
closed = 1;
nodes = (
(158,62,o),
(114,104,o),
(114,183,cs),
(114,261,o),
(158,306,o),
(222,306,cs),
(284,306,o),
(332,261,o),
(332,183,cs),
(332,102,o),
(284,62,o),
(222,62,cs)
);
}
);
width = 447;
}
);
note = o;
unicode = 111;
},
{
glyphname = p;
layers = (
{
layerId = m01;
shapes = (
{
closed = 1;
nodes = (
(154,9,o),
(200,-9,o),
(252,-9,cs),
(360,-9,o),
(422,77,o),
(422,184,cs),
(422,296,o),
(357,377,o),
(247,377,cs),
(190,377,o),
(147,350,o),
(125,316,c),
(119,344,o),
(102,368,o),
(66,368,cs),
(61,368,ls),
(55,368,o),
(53,366,o),
(53,360,cs),
(53,-151,ls),
(53,-157,o),
(55,-160,o),
(61,-160,cs),
(120,-160,ls),
(125,-160,o),
(127,-157,o),
(127,-151,cs),
(127,49,l)
);
},
{
closed = 1;
nodes = (
(192,61,o),
(127,87,o),
(127,184,cs),
(127,282,o),
(190,306,o),
(236,306,cs),
(294,306,o),
(345,266,o),
(345,184,cs),
(345,94,o),
(286,61,o),
(238,61,cs)
);
}
);
width = 459;
}
);
note = p;
unicode = 112;
},
{
glyphname = q;
layers = (
{
layerId = m01;
shapes = (
{
closed = 1;
nodes = (
(332,-151,ls),
(332,-157,o),
(334,-160,o),
(340,-160,cs),
(399,-160,ls),
(404,-160,o),
(407,-157,o),
(407,-151,cs),
(407,360,ls),
(407,366,o),
(404,368,o),
(399,368,cs),
(394,368,ls),
(363,368,o),
(342,354,o),
(337,319,c),
(312,353,o),
(269,377,o),
(213,377,cs),
(109,377,o),
(38,295,o),
(38,184,cs),
(38,78,o),
(101,-9,o),
(210,-9,cs),
(260,-9,o),
(304,10,o),
(332,52,c)
);
},
{
closed = 1;
nodes = (
(173,61,o),
(115,94,o),
(115,184,cs),
(115,266,o),
(166,306,o),
(224,306,cs),
(270,306,o),
(332,282,o),
(332,184,cs),
(332,87,o),
(271,61,o),
(221,61,cs)
);
}
);
width = 459;
}
);
note = q;
unicode = 113;
},
{
glyphname = r;
kernLeft = r;
layers = (
{
layerId = m01;
shapes = (
{
closed = 1;
nodes = (
(121,350,o),
(99,368,o),
(66,368,cs),
(61,368,ls),
(55,368,o),
(53,366,o),
(53,360,cs),
(53,9,ls),
(53,3,o),
(55,0,o),
(61,0,cs),
(120,0,ls),
(125,0,o),
(127,3,o),
(127,9,cs),
(127,184,ls),
(127,261,o),
(149,296,o),
(220,296,cs),
(244,296,ls),
(250,296,o),
(252,299,o),
(252,305,cs),
(252,360,ls),
(252,366,o),
(250,368,o),
(244,368,cs),
(233,368,ls),
(180,368,o),
(149,356,o),
(125,315,c)
);
}
);
width = 278;
}
);
note = r;
unicode = 114;
},
{
glyphname = s;
kernLeft = s;
layers = (
{
layerId = m01;
shapes = (
{
closed = 1;
nodes = (
(261,287,o),
(265,285,o),
(268,285,cs),
(271,285,o),
(274,287,o),
(275,292,cs),
(278,305,ls),
(284,333,o),
(278,348,o),
(251,359,cs),
(227,371,o),
(199,377,o),
(166,377,cs),
(91,377,o),
(30,337,o),
(30,267,cs),
(30,150,o),
(220,167,o),
(220,101,cs),
(220,72,o),
(196,53,o),
(148,53,cs),
(98,53,o),
(67,73,o),
(42,96,cs),
(40,98,o),
(36,101,o),
(33,101,cs),
(26,101,o),
(22,96,o),
(22,84,cs),
(22,40,o),
(72,-11,o),
(155,-11,cs),
(242,-11,o),
(295,37,o),
(295,108,cs),
(295,223,o),
(106,209,o),
(106,273,cs),
(106,299,o),
(130,313,o),
(165,313,cs),
(199,313,o),
(227,305,o),
(259,288,cs)
);
}
);
width = 317;
}
);
note = s;
unicode = 115;
},
{
glyphname = t;
layers = (
{
layerId = m01;
shapes = (
{
closed = 1;
nodes = (
(92,9,ls),
(92,3,o),
(93,0,o),
(99,0,cs),
(158,0,ls),
(164,0,o),
(166,3,o),
(166,9,cs),
(166,302,l),
(243,302,ls),
(248,302,o),
(250,304,o),
(250,310,cs),
(250,360,ls),
(250,366,o),
(248,368,o),
(243,368,cs),
(166,368,l),
(166,431,ls),
(166,478,o),
(143,501,o),
(104,501,cs),
(99,501,ls),
(93,501,o),
(92,498,o),
(92,492,cs),
(92,368,l),
(24,368,ls),
(18,368,o),
(16,366,o),
(16,360,cs),
(16,310,ls),
(16,304,o),
(18,302,o),
(24,302,cs),
(92,302,l)
);
}
);
width = 276;
}
);
note = t;
unicode = 116;
},
{
glyphname = u;
kernLeft = u;
kernRight = u;
layers = (
{
layerId = m01;
shapes = (
{
closed = 1;
nodes = (
(322,-10,o),
(378,57,o),
(378,167,cs),
(378,299,ls),
(378,346,o),
(356,368,o),
(316,368,cs),
(311,368,ls),
(306,368,o),
(303,366,o),
(303,359,cs),
(303,161,ls),
(303,88,o),
(267,59,o),
(213,59,cs),
(158,59,o),
(123,93,o),
(123,164,cs),
(123,299,ls),
(123,346,o),
(101,368,o),
(62,368,cs),
(57,368,ls),
(51,368,o),
(49,366,o),
(49,359,cs),
(49,172,ls),
(49,59,o),
(103,-10,o),
(213,-10,cs)
);
}
);
width = 426;
}
);
note = u;
unicode = 117;
},
{
glyphname = v;
layers = (
{
layerId = m01;
shapes = (
{
closed = 1;
nodes = (
(110,306,ls),
(95,355,o),
(76,368,o),
(36,368,cs),
(20,368,ls),
(15,368,o),
(13,365,o),
(15,360,cs),
(137,8,l),
(140,2,o),
(142,0,o),
(149,0,cs),
(213,0,ls),
(220,0,o),
(221,2,o),
(223,8,cs),
(345,360,ls),
(346,364,o),
(345,368,o),
(340,368,cs),
(285,368,ls),
(275,368,o),
(272,366,o),
(269,357,cs),
(181,82,l)
);
}
);
width = 359;
}
);
note = v;
unicode = 118;
},
{
glyphname = w;
layers = (
{
layerId = m01;
shapes = (
{
closed = 1;
nodes = (
(111,306,ls),
(99,354,o),
(78,368,o),
(38,368,cs),
(25,368,ls),
(19,368,o),
(18,364,o),
(19,360,cs),
(127,8,l),
(130,3,o),
(132,0,o),
(139,0,cs),
(196,0,ls),
(202,0,o),
(204,3,o),
(206,8,cs),
(287,269,l),
(370,8,ls),
(372,3,o),
(375,0,o),
(381,0,cs),
(436,0,ls),
(444,0,o),
(445,3,o),
(447,8,cs),
(556,360,ls),
(558,365,o),
(556,368,o),
(550,368,cs),
(500,368,ls),
(490,368,o),
(487,366,o),
(484,357,cs),
(409,96,l),
(344,306,ls),
(329,354,o),
(312,368,o),
(272,368,cs),
(262,368,ls),
(257,368,o),
(252,366,o),
(250,359,cs),
(170,96,l)
);
}
);
width = 574;
}
);
note = w;
unicode = 119;
},
{
glyphname = x;
layers = (
{
layerId = m01;
shapes = (
{
closed = 1;
nodes = (
(267,11,ls),
(272,2,o),
(275,0,o),
(286,0,cs),
(345,0,ls),
(350,0,o),
(352,5,o),
(349,9,cs),
(228,199,l),
(328,360,ls),
(330,364,o),
(329,368,o),
(324,368,cs),
(270,368,ls),
(260,368,o),
(254,365,o),
(249,357,cs),
(181,247,l),
(138,313,ls),
(112,355,o),
(98,368,o),
(59,368,cs),
(33,368,ls),
(27,368,o),
(26,364,o),
(29,360,cs),
(133,194,l),
(14,9,ls),
(11,5,o),
(13,0,o),
(18,0,cs),
(75,0,ls),
(84,0,o),
(88,3,o),
(93,11,cs),
(179,149,l)
);
}
);
width = 363;
}
);
note = x;
unicode = 120;
},
{
glyphname = y;
kernLeft = y;
kernRight = y;
layers = (
{
layerId = m01;
shapes = (
{
closed = 1;
nodes = (
(115,-84,o),
(99,-106,o),
(63,-106,cs),
(44,-106,o),
(29,-97,o),
(11,-82,cs),
(8,-79,o),
(6,-78,o),
(2,-78,cs),
(-5,-78,o),
(-8,-86,o),
(-8,-93,cs),
(-8,-131,o),
(25,-171,o),
(76,-171,cs),
(152,-171,o),
(182,-108,o),
(216,-9,cs),
(347,359,l),
(348,364,o),
(347,368,o),
(342,368,cs),
(287,368,ls),
(278,368,o),
(274,366,o),
(271,357,cs),
(183,88,l),
(111,306,ls),
(94,354,o),
(78,368,o),
(37,368,cs),
(20,368,ls),
(15,368,o),
(14,364,o),
(15,359,c),
(143,-7,l)
);
}
);
width = 361;
}
);
note = y;
unicode = 121;
},
{
glyphname = z;
kernLeft = z;
kernRight = z;
layers = (
{
layerId = m01;
shapes = (
{
closed = 1;
nodes = (
(290,275,ls),
(300,287,o),
(304,296,o),
(304,313,cs),
(304,354,o),
(290,368,o),
(251,368,cs),
(44,368,ls),
(38,368,o),
(36,366,o),
(36,359,cs),
(36,310,ls),
(36,304,o),
(38,302,o),
(44,302,cs),
(224,302,l),
(44,76,ls),
(34,63,o),
(31,58,o),
(31,46,cs),
(31,9,ls),
(31,3,o),
(33,0,o),
(39,0,cs),
(297,0,ls),
(303,0,o),
(304,3,o),
(304,9,cs),
(304,57,ls),
(304,63,o),
(303,66,o),
(297,66,cs),
(124,66,l)
);
}
);
width = 337;
}
);
note = z;
unicode = 122;
},
{
glyphname = braceleft;
layers = (
{
layerId = m01;
shapes = (
{
closed = 1;
nodes = (
(286,-144,o),
(291,-139,o),
(291,-131,cs),
(291,-126,ls),
(291,-98,o),
(271,-80,o),
(240,-80,cs),
(194,-80,ls),
(182,-80,o),
(177,-72,o),
(177,-62,cs),
(177,199,ls),
(177,244,o),
(161,264,o),
(147,276,c),
(161,288,o),
(177,308,o),
(177,352,cs),
(177,614,ls),
(177,624,o),
(182,632,o),
(194,632,cs),
(240,632,ls),
(271,632,o),
(291,649,o),
(291,678,cs),
(291,683,ls),
(291,691,o),
(286,696,o),
(278,696,cs),
(172,696,ls),
(133,696,o),
(107,672,o),
(107,633,cs),
(107,357,ls),
(107,319,o),
(86,309,o),
(68,307,cs),
(61,306,o),
(56,301,o),
(56,294,cs),
(56,258,ls),
(56,251,o),
(61,246,o),
(68,245,cs),
(86,243,o),
(107,233,o),
(107,196,cs),
(107,-82,ls),
(107,-120,o),
(133,-144,o),
(172,-144,cs),
(278,-144,ls)
);
}
);
width = 346;
}
);
note = braceleft;
unicode = 123;
},
{
glyphname = bar;
layers = (
{
layerId = m01;
shapes = (
{
closed = 1;
nodes = (
(120,-149,ls),
(126,-149,o),
(129,-146,o),
(129,-140,cs),
(129,498,ls),
(129,544,o),
(106,567,o),
(70,567,cs),
(64,567,o),
(62,563,o),
(62,558,cs),
(62,-140,ls),
(62,-146,o),
(64,-149,o),
(70,-149,cs)
);
}
);
width = 190;
}
);
note = bar;
unicode = 124;
},
{
glyphname = braceright;
layers = (
{
layerId = m01;
shapes = (
{
closed = 1;
nodes = (
(214,-144,o),
(240,-120,o),
(240,-82,cs),
(240,196,ls),
(240,233,o),
(261,243,o),
(279,245,cs),
(286,246,o),
(291,251,o),
(291,258,cs),
(291,294,ls),
(291,301,o),
(286,306,o),
(279,307,cs),
(261,309,o),
(240,319,o),
(240,357,cs),
(240,633,ls),
(240,672,o),
(214,696,o),
(175,696,cs),
(69,696,ls),
(61,696,o),
(56,691,o),
(56,683,cs),
(56,678,ls),
(56,649,o),
(76,632,o),
(107,632,cs),
(153,632,ls),
(165,632,o),
(170,624,o),
(170,614,cs),
(170,352,ls),
(170,308,o),
(186,288,o),
(200,276,c),
(186,264,o),
(170,244,o),
(170,199,cs),
(170,-62,ls),
(170,-72,o),
(165,-80,o),
(153,-80,cs),
(107,-80,ls),
(76,-80,o),
(56,-98,o),
(56,-126,cs),
(56,-131,ls),
(56,-139,o),
(61,-144,o),
(69,-144,cs),
(175,-144,ls)
);
}
);
width = 346;
}
);
note = braceright;
unicode = 125;
},
{
glyphname = asciitilde;
layers = (
{
layerId = m01;
shapes = (
{
closed = 1;
nodes = (
(320,290,o),
(302,283,o),
(271,283,cs),
(222,283,o),
(183,316,o),
(129,316,cs),
(99,316,o),
(76,307,o),
(52,288,cs),
(44,281,o),
(43,276,o),
(43,262,cs),
(43,219,ls),
(43,214,o),
(49,214,o),
(52,217,cs),
(78,242,o),
(97,248,o),
(129,248,cs),
(177,248,o),
(214,216,o),
(271,216,cs),
(304,216,o),
(324,224,o),
(346,243,cs),
(355,251,o),
(355,257,o),
(355,271,cs),
(355,312,ls),
(355,317,o),
(351,318,o),
(347,315,cs)
);
}
);
width = 398;
}
);
note = asciitilde;
unicode = 126;
},
{
glyphname = exclamdown;
layers = (
{
layerId = m01;
shapes = (
{
closed = 1;
nodes = (
(109,266,o),
(134,292,o),
(134,322,cs),
(134,352,o),
(109,377,o),
(79,377,cs),
(50,377,o),
(26,352,o),
(26,322,cs),
(26,292,o),
(50,266,o),
(79,266,cs)
);
},
{
closed = 1;
nodes = (
(117,-189,o),
(119,-186,o),
(119,-180,cs),
(113,142,ls),
(112,189,o),
(92,212,o),
(57,212,cs),
(50,212,o),
(49,209,o),
(49,204,cs),
(42,-180,ls),
(42,-186,o),
(44,-189,o),
(49,-189,cs),
(111,-189,ls)
);
}
);
width = 165;
}
);
note = exclamdown;
unicode = 161;
},
{
glyphname = cent;
layers = (
{
layerId = m01;
shapes = (
{
closed = 1;
nodes = (
(309,4,o),
(342,49,o),
(342,84,cs),
(342,93,o),
(338,99,o),
(333,99,cs),
(328,99,o),
(324,96,o),
(320,92,cs),
(304,76,o),
(280,59,o),
(243,57,c),
(243,307,l),
(269,304,o),
(288,297,o),
(312,284,cs),
(314,283,o),
(317,282,o),
(318,282,cs),
(323,282,o),
(324,284,o),
(325,289,cs),
(329,307,ls),
(335,333,o),
(329,351,o),
(302,362,cs),
(284,370,o),
(266,374,o),
(243,376,c),
(243,429,ls),
(243,436,o),
(241,438,o),
(235,438,cs),
(200,438,ls),
(194,438,o),
(191,436,o),
(191,429,cs),
(191,374,l),
(99,364,o),
(36,290,o),
(36,183,cs),
(36,72,o),
(98,1,o),
(191,-9,c),
(191,-59,ls),
(191,-66,o),
(194,-68,o),
(200,-68,cs),
(235,-68,ls),
(241,-68,o),
(243,-66,o),
(243,-59,cs),
(243,-7,l)
);
},
{
closed = 1;
nodes = (
(139,73,o),
(112,117,o),
(112,182,cs),
(112,248,o),
(144,292,o),
(191,304,c),
(191,61,l)
);
}
);
width = 363;
}
);
note = cent;
unicode = 162;
},
{
glyphname = sterling;
layers = (
{
layerId = m01;
shapes = (
{
closed = 1;
nodes = (
(223,102,o),
(240,143,o),
(240,193,cs),
(240,214,o),
(235,229,o),
(228,249,c),
(370,249,ls),
(378,249,o),
(381,253,o),
(381,261,cs),
(381,276,ls),
(381,303,o),
(366,319,o),
(337,319,cs),
(198,319,l),
(182,352,o),
(169,378,o),
(169,411,cs),
(169,466,o),
(212,498,o),
(273,498,cs),
(318,498,o),
(356,485,o),
(397,458,cs),
(403,454,o),
(407,452,o),
(411,452,cs),
(416,452,o),
(417,455,o),
(419,461,cs),
(426,480,ls),
(436,508,o),
(423,525,o),
(389,539,cs),
(354,556,o),
(322,567,o),
(270,567,cs),
(167,567,o),
(94,512,o),
(94,412,cs),
(94,376,o),
(103,350,o),
(120,319,c),
(54,319,ls),
(48,319,o),
(46,316,o),
(46,310,cs),
(46,258,ls),
(46,252,o),
(48,249,o),
(54,249,cs),
(152,249,l),
(163,228,o),
(168,212,o),
(168,193,cs),
(168,146,o),
(150,98,o),
(138,69,c),
(54,69,ls),
(48,69,o),
(46,67,o),
(46,61,cs),
(46,9,ls),
(46,3,o),
(48,0,o),
(54,0,cs),
(421,0,ls),
(428,0,o),
(431,4,o),
(431,11,cs),
(431,26,ls),
(431,54,o),
(416,69,o),
(386,69,cs),
(209,69,l)
);
}
);
width = 471;
}
);
note = sterling;
unicode = 163;
},
{
glyphname = yen;
layers = (
{
layerId = m01;
shapes = (
{
closed = 1;
nodes = (
(199,9,ls),
(199,3,o),
(202,0,o),
(208,0,cs),
(267,0,ls),
(272,0,o),
(274,3,o),
(274,9,cs),
(274,128,l),
(417,128,ls),
(423,128,o),
(424,131,o),
(424,137,cs),
(424,178,ls),
(424,184,o),
(423,187,o),
(417,187,cs),
(274,187,l),
(274,214,l),
(296,251,l),
(417,251,ls),
(423,251,o),
(424,253,o),
(424,259,cs),
(424,301,ls),
(424,307,o),
(423,309,o),
(417,309,cs),
(327,309,l),
(455,544,ls),
(459,551,o),
(456,556,o),
(448,556,cs),
(392,556,ls),
(382,556,o),
(377,552,o),
(373,544,cs),
(239,292,l),
(125,506,ls),
(107,542,o),
(87,556,o),
(52,556,cs),
(24,556,ls),
(17,556,o),
(16,551,o),
(18,547,cs),
(146,309,l),
(53,309,ls),
(48,309,o),
(45,307,o),
(45,301,cs),
(45,259,ls),
(45,253,o),
(48,251,o),
(53,251,cs),
(178,251,l),
(199,213,l),
(199,187,l),
(53,187,ls),
(48,187,o),
(45,184,o),
(45,178,cs),
(45,137,ls),
(45,131,o),
(48,128,o),
(53,128,cs),
(199,128,l)
);
}
);
width = 472;
}
);
note = yen;
unicode = 165;
},
{
glyphname = brokenbar;
layers = (
{
layerId = m01;
shapes = (
{
closed = 1;
nodes = (
(120,263,ls),
(126,263,o),
(129,266,o),
(129,272,cs),
(129,498,ls),
(129,544,o),
(106,567,o),
(70,567,cs),
(64,567,o),
(62,563,o),
(62,558,cs),
(62,272,ls),
(62,266,o),
(64,263,o),
(70,263,cs)
);
},
{
closed = 1;
nodes = (
(120,-149,ls),
(126,-149,o),
(129,-146,o),
(129,-140,cs),
(129,145,ls),
(129,151,o),
(126,154,o),
(120,154,cs),
(70,154,ls),
(64,154,o),
(62,151,o),
(62,145,cs),
(62,-140,ls),
(62,-146,o),
(64,-149,o),
(70,-149,cs)
);
}
);
width = 190;
}
);
note = brokenbar;
unicode = 166;
},
{
glyphname = section;
layers = (
{
layerId = m01;
shapes = (
{
closed = 1;
nodes = (
(184,184,o),
(127,209,o),
(127,257,cs),
(127,294,o),
(157,320,o),
(185,338,c),
(236,311,o),
(297,287,o),
(297,243,cs),
(297,202,o),
(268,174,o),
(242,154,c)
);
},
{
closed = 1;
nodes = (
(75,19,o),
(70,17,o),
(68,11,cs),
(63,-1,ls),
(53,-25,o),
(63,-43,o),
(87,-62,cs),
(113,-82,o),
(156,-98,o),
(203,-98,cs),
(296,-98,o),
(352,-42,o),
(352,29,cs),
(352,71,o),
(326,99,o),
(292,123,c),
(329,148,o),
(370,189,o),
(370,252,cs),
(370,374,o),
(161,384,o),
(161,460,cs),
(161,490,o),
(185,507,o),
(228,507,cs),
(259,507,o),
(287,498,o),
(317,479,cs),
(320,477,o),
(324,475,o),
(326,475,cs),
(330,475,o),
(330,477,o),
(332,482,cs),
(336,494,ls),
(344,518,o),
(339,534,o),
(311,549,cs),
(291,558,o),
(260,568,o),
(221,568,cs),
(142,568,o),
(85,525,o),
(85,457,cs),
(85,416,o),
(110,391,o),
(139,368,c),
(101,345,o),
(55,308,o),
(55,248,cs),
(55,125,o),
(276,106,o),
(276,21,cs),
(276,-12,o),
(247,-38,o),
(196,-38,cs),
(146,-38,o),
(108,-12,o),
(80,15,cs)
);
}
);
width = 421;
}
);
note = section;
unicode = 167;
},
{
glyphname = dieresis;
layers = (
{
layerId = m01;
shapes = (
{
closed = 1;
nodes = (
(0,442,o),
(20,422,o),
(44,422,cs),
(69,422,o),
(89,442,o),
(89,467,cs),
(89,493,o),
(69,513,o),
(44,513,cs),
(20,513,o),
(0,493,o),
(0,467,cs)
);
},
{
closed = 1;
nodes = (
(136,442,o),
(156,422,o),
(181,422,cs),
(206,422,o),
(226,442,o),
(226,467,cs),
(226,493,o),
(206,513,o),
(181,513,cs),
(156,513,o),
(136,493,o),
(136,467,cs)
);
}
);
width = 226;
}
);
note = dieresis;
unicode = 168;
},
{
glyphname = copyright;
layers = (
{
layerId = m01;
shapes = (
{
closed = 1;
nodes = (
(30,206,o),
(118,116,o),
(252,116,cs),
(386,116,o),
(475,206,o),
(475,340,cs),
(475,474,o),
(386,563,o),
(252,563,cs),
(118,563,o),
(30,474,o),
(30,340,cs)
);
},
{
closed = 1;
nodes = (
(144,159,o),
(73,231,o),
(73,340,cs),
(73,448,o),
(144,521,o),
(252,521,cs),
(361,521,o),
(431,448,o),
(431,340,cs),
(431,231,o),
(361,159,o),
(252,159,cs)
);
},
{
closed = 1;
nodes = (
(327,402,o),
(330,404,o),
(331,412,cs),
(333,431,ls),
(334,439,o),
(328,446,o),
(316,451,cs),
(300,458,o),
(284,463,o),
(262,463,cs),
(198,463,o),
(146,416,o),
(146,340,cs),
(146,266,o),
(191,219,o),
(256,219,cs),
(307,219,o),
(339,257,o),
(340,285,cs),
(340,289,o),
(338,293,o),
(334,293,cs),
(332,293,o),
(330,293,o),
(327,289,cs),
(310,268,o),
(289,257,o),
(262,257,cs),
(219,257,o),
(191,286,o),
(191,339,cs),
(191,393,o),
(219,423,o),
(262,423,cs),
(285,423,o),
(303,417,o),
(320,406,cs)
);
}
);
width = 505;
}
);
note = copyright;
unicode = 169;
},
{
glyphname = ordfeminine;
layers = (
{
layerId = m01;
shapes = (
{
closed = 1;
nodes = (
(257,266,ls),
(257,262,o),
(259,261,o),
(262,261,cs),
(314,261,ls),
(318,261,o),
(320,262,o),
(320,266,cs),
(320,544,ls),
(320,548,o),
(317,551,o),
(314,551,cs),
(309,551,ls),
(284,551,o),
(266,539,o),
(262,513,c),
(241,539,o),
(206,558,o),
(160,558,cs),
(77,558,o),
(18,493,o),
(18,406,cs),
(18,322,o),
(70,253,o),
(158,253,cs),
(199,253,o),
(235,268,o),
(257,300,c)
);
},
{
closed = 1;
nodes = (
(130,310,o),
(84,336,o),
(84,404,cs),
(84,470,o),
(125,500,o),
(170,500,cs),
(206,500,o),
(256,482,o),
(256,404,cs),
(256,330,o),
(207,310,o),
(167,310,cs)
);
}
);
width = 344;
}
);
note = ordfeminine;
unicode = 170;
},
{
glyphname = guillemotleft;
layers = (
{
layerId = m01;
shapes = (
{
closed = 1;
nodes = (
(364,329,ls),
(368,334,o),
(365,338,o),
(359,338,cs),
(304,338,ls),
(295,338,o),
(291,337,o),
(284,328,cs),
(187,203,ls),
(183,198,o),
(180,194,o),
(180,189,cs),
(180,184,o),
(183,180,o),
(187,175,cs),
(284,49,ls),
(290,41,o),
(295,39,o),
(304,39,cs),
(359,39,ls),
(365,39,o),
(368,43,o),
(364,48,cs),
(257,189,l)
);
},
{
closed = 1;
nodes = (
(209,329,l),
(214,334,o),
(210,338,o),
(205,338,cs),
(151,338,ls),
(142,338,o),
(137,337,o),
(130,328,cs),
(33,203,ls),
(29,198,o),
(26,194,o),
(26,189,cs),
(26,184,o),
(29,180,o),
(33,175,cs),
(130,49,ls),
(136,41,o),
(142,39,o),
(151,39,cs),
(205,39,ls),
(210,39,o),
(214,43,o),
(209,48,c),
(103,189,l)
);
}
);
width = 389;
}
);
note = guillemotleft;
unicode = 171;
},
{
glyphname = uni00AD;
layers = (
{
layerId = m01;
shapes = (
{
closed = 1;
nodes = (
(257,168,ls),
(263,168,o),
(265,171,o),
(265,177,cs),
(265,229,ls),
(265,236,o),
(263,238,o),
(257,238,cs),
(45,238,ls),
(39,238,o),
(37,236,o),
(37,229,cs),
(37,177,ls),
(37,171,o),
(39,168,o),
(45,168,cs)
);
}
);
width = 301;
}
);
note = uni00AD;
unicode = 173;
},
{
glyphname = registered;
layers = (
{
layerId = m01;
shapes = (
{
closed = 1;
nodes = (
(30,206,o),
(118,116,o),
(252,116,cs),
(386,116,o),
(475,206,o),
(475,340,cs),
(475,474,o),
(386,563,o),
(252,563,cs),
(118,563,o),
(30,474,o),
(30,340,cs)
);
},
{
closed = 1;
nodes = (
(144,159,o),
(73,231,o),
(73,340,cs),
(73,448,o),
(144,521,o),
(252,521,cs),
(361,521,o),
(431,448,o),
(431,340,cs),
(431,231,o),
(361,159,o),
(252,159,cs)
);
},
{
closed = 1;
nodes = (
(209,422,l),
(256,422,ls),
(286,422,o),
(307,413,o),
(307,384,cs),
(307,354,o),
(286,343,o),
(253,343,cs),
(209,343,l)
);
},
{
closed = 1;
nodes = (
(257,306,l),
(304,229,ls),
(307,224,o),
(309,224,o),
(315,224,cs),
(349,224,ls),
(352,224,o),
(354,227,o),
(352,228,c),
(298,310,l),
(330,322,o),
(349,348,o),
(349,384,cs),
(349,431,o),
(319,458,o),
(258,458,cs),
(171,458,ls),
(169,458,o),
(168,456,o),
(168,453,cs),
(168,228,ls),
(168,226,o),
(169,224,o),
(171,224,cs),
(206,224,ls),
(208,224,o),
(209,226,o),
(209,228,cs),
(209,306,l)
);
}
);
width = 505;
}
);
note = registered;
unicode = 174;
},
{
glyphname = macron;
layers = (
{
layerId = m01;
shapes = (
{
closed = 1;
nodes = (
(222,431,ls),
(228,431,o),
(231,433,o),
(231,439,cs),
(231,478,ls),
(231,484,o),
(228,486,o),
(222,486,cs),
(8,486,ls),
(2,486,o),
(0,484,o),
(0,478,cs),
(0,439,ls),
(0,433,o),
(2,431,o),
(8,431,cs)
);
}
);
width = 231;
}
);
note = macron;
unicode = 175;
},
{
glyphname = degree;
layers = (
{
layerId = m01;
shapes = (
{
closed = 1;
nodes = (
(191,369,o),
(234,414,o),
(234,475,cs),
(234,537,o),
(191,581,o),
(129,581,cs),
(66,581,o),
(23,537,o),
(23,475,cs),
(23,414,o),
(66,369,o),
(129,369,cs)
);
},
{
closed = 1;
nodes = (
(96,414,o),
(74,441,o),
(74,475,cs),
(74,508,o),
(96,534,o),
(129,534,cs),
(161,534,o),
(183,508,o),
(183,475,cs),
(183,441,o),
(161,414,o),
(129,414,cs)
);
}
);
width = 257;
}
);
note = degree;
unicode = 176;
},
{
glyphname = plusminus;
layers = (
{
layerId = m01;
shapes = (
{
closed = 1;
nodes = (
(168,130,ls),
(168,124,o),
(170,122,o),
(176,122,cs),
(227,122,ls),
(233,122,o),
(235,124,o),
(235,130,cs),
(235,267,l),
(358,267,ls),
(364,267,o),
(366,271,o),
(366,276,cs),
(366,324,ls),
(366,330,o),
(364,333,o),
(358,333,cs),
(235,333,l),
(235,418,ls),
(235,461,o),
(218,479,o),
(176,479,cs),
(170,479,o),
(168,476,o),
(168,470,cs),
(168,333,l),
(45,333,ls),
(39,333,o),
(37,330,o),
(37,324,cs),
(37,276,ls),
(37,271,o),
(39,267,o),
(45,267,cs),
(168,267,l)
);
},
{
closed = 1;
nodes = (
(358,0,ls),
(364,0,o),
(366,3,o),
(366,9,cs),
(366,18,ls),
(366,47,o),
(348,66,o),
(315,66,cs),
(45,66,ls),
(39,66,o),
(37,63,o),
(37,57,cs),
(37,9,ls),
(37,3,o),
(39,0,o),
(45,0,cs)
);
}
);
width = 403;
}
);
note = plusminus;
unicode = 177;
},
{
glyphname = twosuperior;
layers = (
{
layerId = m01;
shapes = (
{
closed = 1;
nodes = (
(124,348,o),
(264,366,o),
(264,471,cs),
(264,529,o),
(210,563,o),
(142,563,cs),
(112,563,o),
(83,558,o),
(57,543,cs),
(35,530,o),
(31,520,o),
(38,503,cs),
(45,487,ls),
(47,482,o),
(53,481,o),
(57,484,cs),
(64,489,o),
(98,510,o),
(139,510,cs),
(171,510,o),
(201,500,o),
(201,464,cs),
(201,379,o),
(32,389,o),
(32,238,cs),
(32,234,o),
(33,233,o),
(37,233,cs),
(259,233,ls),
(264,233,o),
(267,234,o),
(267,238,cs),
(267,254,ls),
(267,280,o),
(252,286,o),
(229,286,cs),
(105,286,l)
);
}
);
width = 296;
}
);
note = twosuperior;
unicode = 178;
},
{
glyphname = threesuperior;
layers = (
{
layerId = m01;
shapes = (
{
closed = 1;
nodes = (
(247,417,o),
(263,443,o),
(263,479,cs),
(263,534,o),
(216,563,o),
(144,563,cs),
(116,563,o),
(86,557,o),
(60,544,cs),
(39,534,o),
(32,523,o),
(39,507,cs),
(46,491,ls),
(49,484,o),
(56,484,o),
(60,486,cs),
(83,501,o),
(109,512,o),
(140,512,cs),
(180,512,o),
(204,497,o),
(204,472,cs),
(204,439,o),
(182,426,o),
(143,426,cs),
(90,426,ls),
(86,426,o),
(84,423,o),
(84,419,cs),
(84,398,ls),
(84,379,o),
(97,374,o),
(115,374,cs),
(143,374,ls),
(175,374,o),
(214,368,o),
(214,326,cs),
(214,295,o),
(192,278,o),
(145,278,cs),
(101,278,o),
(71,294,o),
(50,319,cs),
(47,323,o),
(44,325,o),
(41,325,cs),
(35,325,o),
(32,318,o),
(32,312,cs),
(32,282,o),
(70,227,o),
(151,227,cs),
(228,227,o),
(274,268,o),
(274,324,cs),
(274,367,o),
(250,391,o),
(210,403,c)
);
}
);
width = 305;
}
);
note = threesuperior;
unicode = 179;
},
{
glyphname = acute;
layers = (
{
layerId = m01;
shapes = (
{
closed = 1;
nodes = (
(1,436,o),
(3,430,o),
(9,430,cs),
(62,430,ls),
(73,430,o),
(82,433,o),
(90,441,c),
(172,507,ls),
(176,510,o),
(174,516,o),
(168,516,cs),
(102,516,ls),
(92,516,o),
(87,513,o),
(78,506,cs),
(5,439,ls)
);
}
);
width = 173;
}
);
note = acute;
unicode = 180;
},
{
glyphname = paragraph;
layers = (
{
layerId = m01;
shapes = (
{
closed = 1;
nodes = (
(211,8,ls),
(211,3,o),
(213,0,o),
(218,0,cs),
(252,0,ls),
(258,0,o),
(260,3,o),
(260,8,cs),
(260,504,l),
(323,504,l),
(323,8,ls),
(323,3,o),
(325,0,o),
(330,0,cs),
(364,0,ls),
(370,0,o),
(372,3,o),
(372,8,cs),
(372,478,ls),
(372,534,o),
(347,556,o),
(298,556,cs),
(227,556,ls),
(92,556,o),
(36,488,o),
(36,391,cs),
(36,288,o),
(105,221,o),
(207,221,cs),
(211,221,l)
);
}
);
width = 434;
}
);
note = paragraph;
unicode = 182;
},
{
glyphname = periodcentered;
layers = (
{
layerId = m01;
shapes = (
{
closed = 1;
nodes = (
(49,334,o),
(24,309,o),
(24,279,cs),
(24,249,o),
(49,224,o),
(78,224,cs),
(108,224,o),
(132,249,o),
(132,279,cs),
(132,309,o),
(108,334,o),
(78,334,cs)
);
}
);
width = 156;
}
);
note = periodcentered;
unicode = 183;
},
{
glyphname = cedilla;
layers = (
{
layerId = m01;
shapes = (
{
closed = 1;
nodes = (
(0,-93,o),
(1,-98,o),
(6,-98,cs),
(56,-98,ls),
(68,-98,o),
(75,-97,o),
(80,-87,cs),
(122,-3,l),
(123,1,o),
(122,5,o),
(117,5,cs),
(82,5,ls),
(71,5,o),
(62,4,o),
(56,-6,cs),
(2,-89,ls)
);
}
);
width = 121;
}
);
note = cedilla;
unicode = 184;
},
{
glyphname = onesuperior;
layers = (
{
layerId = m01;
shapes = (
{
closed = 1;
nodes = (
(96,241,ls),
(96,236,o),
(98,233,o),
(104,233,cs),
(152,233,ls),
(157,233,o),
(159,236,o),
(159,241,cs),
(159,523,ls),
(159,544,o),
(149,556,o),
(129,556,cs),
(104,556,ls),
(95,556,o),
(84,553,o),
(74,551,c),
(39,539,ls),
(33,537,o),
(31,533,o),
(31,527,cs),
(31,481,ls),
(31,477,o),
(34,475,o),
(37,476,cs),
(96,497,l)
);
}
);
width = 209;
}
);
note = onesuperior;
unicode = 185;
},
{
glyphname = ordmasculine;
layers = (
{
layerId = m01;
shapes = (
{
closed = 1;
nodes = (
(261,253,o),
(319,316,o),
(319,407,cs),
(319,499,o),
(260,558,o),
(167,558,cs),
(78,558,o),
(18,499,o),
(18,407,cs),
(18,315,o),
(79,253,o),
(168,253,cs)
);
},
{
closed = 1;
nodes = (
(119,312,o),
(84,346,o),
(84,407,cs),
(84,468,o),
(119,500,o),
(168,500,cs),
(216,500,o),
(254,468,o),
(254,407,cs),
(254,345,o),
(217,312,o),
(167,312,cs)
);
}
);
width = 337;
}
);
note = ordmasculine;
unicode = 186;
},
{
glyphname = guillemotright;
layers = (
{
layerId = m01;
shapes = (
{
closed = 1;
nodes = (
(28,48,ls),
(24,43,o),
(27,39,o),
(32,39,cs),
(88,39,ls),
(96,39,o),
(102,41,o),
(108,49,cs),
(205,175,ls),
(209,180,o),
(212,184,o),
(212,189,cs),
(212,194,o),
(209,198,o),
(205,203,cs),
(108,328,ls),
(101,337,o),
(96,338,o),
(88,338,cs),
(32,338,ls),
(27,338,o),
(24,334,o),
(28,329,cs),
(136,189,l)
);
},
{
closed = 1;
nodes = (
(182,48,ls),
(178,43,o),
(181,39,o),
(186,39,cs),
(241,39,ls),
(250,39,o),
(256,41,o),
(262,49,cs),
(359,175,ls),
(363,180,o),
(366,184,o),
(366,189,cs),
(366,194,o),
(363,198,o),
(359,203,cs),
(262,328,ls),
(255,337,o),
(250,338,o),
(241,338,cs),
(186,338,ls),
(181,338,o),
(178,334,o),
(182,329,cs),
(288,189,l)
);
}
);
width = 389;
}
);
note = guillemotright;
unicode = 187;
},
{
glyphname = onequarter;
layers = (
{
layerId = m01;
shapes = (
{
closed = 1;
nodes = (
(512,6,ls),
(512,2,o),
(514,0,o),
(518,0,cs),
(567,0,ls),
(570,0,o),
(573,2,o),
(573,6,cs),
(573,73,l),
(615,73,ls),
(620,73,o),
(623,76,o),
(623,79,cs),
(623,98,ls),
(623,116,o),
(613,124,o),
(595,124,cs),
(573,124,l),
(573,295,ls),
(573,315,o),
(561,323,o),
(543,323,cs),
(507,323,ls),
(497,323,o),
(492,319,o),
(487,312,cs),
(354,123,l),
(348,116,o),
(348,112,o),
(348,106,cs),
(348,79,ls),
(348,76,o),
(349,73,o),
(354,73,cs),
(512,73,l)
);
},
{
closed = 1;
nodes = (
(184,0,ls),
(190,0,o),
(193,3,o),
(196,9,cs),
(463,496,ls),
(483,531,o),
(473,556,o),
(441,556,cs),
(432,556,ls),
(425,556,o),
(422,553,o),
(419,547,cs),
(124,9,l),
(120,4,o),
(122,0,o),
(128,0,cs)
);
},
{
closed = 1;
nodes = (
(96,241,ls),
(96,236,o),
(98,233,o),
(104,233,cs),
(152,233,ls),
(157,233,o),
(159,236,o),
(159,241,cs),
(159,523,ls),
(159,544,o),
(149,556,o),
(129,556,cs),
(104,556,ls),
(95,556,o),
(84,553,o),
(74,551,c),
(39,539,ls),
(33,537,o),
(31,533,o),
(31,527,cs),
(31,481,ls),
(31,477,o),
(33,475,o),
(37,476,cs),
(96,497,l)
);
},
{
closed = 1;
nodes = (
(512,267,l),
(512,124,l),
(412,124,l)
);
}
);
width = 656;
}
);
note = onequarter;
unicode = 188;
},
{
glyphname = onehalf;
layers = (
{
layerId = m01;
shapes = (
{
closed = 1;
nodes = (
(96,241,ls),
(96,236,o),
(98,233,o),
(104,233,cs),
(152,233,ls),
(157,233,o),
(159,236,o),
(159,241,cs),
(159,523,ls),
(159,544,o),
(149,556,o),
(129,556,cs),
(104,556,ls),
(95,556,o),
(84,553,o),
(74,551,c),
(39,539,ls),
(33,537,o),
(31,533,o),
(31,527,cs),
(31,481,ls),
(31,477,o),
(33,474,o),
(37,476,cs),
(96,497,l)
);
},
{
closed = 1;
nodes = (
(512,116,o),
(653,133,o),
(653,238,cs),
(653,296,o),
(599,331,o),
(530,331,cs),
(500,331,o),
(470,325,o),
(445,310,cs),
(423,297,o),
(419,287,o),
(426,271,cs),
(433,254,ls),
(435,249,o),
(441,248,o),
(445,252,c),
(453,257,o),
(487,277,o),
(527,277,cs),
(559,277,o),
(589,267,o),
(589,232,cs),
(589,146,o),
(420,157,o),
(420,6,cs),
(420,2,o),
(421,0,o),
(425,0,cs),
(648,0,ls),
(653,0,o),
(654,2,o),
(654,6,cs),
(654,22,ls),
(654,48,o),
(639,54,o),
(617,54,cs),
(493,54,l)
);
},
{
closed = 1;
nodes = (
(184,0,ls),
(190,0,o),
(193,3,o),
(196,9,cs),
(463,496,ls),
(483,531,o),
(473,556,o),
(441,556,cs),
(432,556,ls),
(425,556,o),
(422,553,o),
(419,547,cs),
(124,9,l),
(120,4,o),
(122,0,o),
(128,0,cs)
);
}
);
width = 713;
}
);
note = onehalf;
unicode = 189;
},
{
glyphname = threequarters;
layers = (
{
layerId = m01;
shapes = (
{
closed = 1;
nodes = (
(586,6,ls),
(586,2,o),
(588,0,o),
(591,0,cs),
(640,0,ls),
(643,0,o),
(646,2,o),
(646,6,cs),
(646,73,l),
(689,73,ls),
(694,73,o),
(696,76,o),
(696,79,cs),
(696,98,ls),
(696,116,o),
(686,124,o),
(668,124,cs),
(646,124,l),
(646,295,ls),
(646,315,o),
(634,323,o),
(616,323,cs),
(581,323,ls),
(570,323,o),
(565,319,o),
(560,312,cs),
(428,123,l),
(422,116,o),
(422,112,o),
(422,106,cs),
(422,79,ls),
(422,76,o),
(423,73,o),
(428,73,cs),
(586,73,l)
);
},
{
closed = 1;
nodes = (
(258,0,ls),
(264,0,o),
(266,3,o),
(270,9,cs),
(536,496,ls),
(555,531,o),
(546,556,o),
(514,556,cs),
(505,556,ls),
(498,556,o),
(495,553,o),
(493,547,c),
(197,9,ls),
(194,4,o),
(195,0,o),
(201,0,cs)
);
},
{
closed = 1;
nodes = (
(586,267,l),
(586,124,l),
(485,124,l)
);
},
{
closed = 1;
nodes = (
(247,417,o),
(263,443,o),
(263,479,cs),
(263,534,o),
(216,563,o),
(144,563,cs),
(116,563,o),
(86,557,o),
(60,544,cs),
(39,534,o),
(32,523,o),
(39,507,cs),
(46,491,ls),
(49,484,o),
(56,484,o),
(60,486,cs),
(83,501,o),
(109,512,o),
(140,512,cs),
(180,512,o),
(204,497,o),
(204,472,cs),
(204,439,o),
(182,426,o),
(143,426,cs),
(90,426,ls),
(86,426,o),
(84,423,o),
(84,419,cs),
(84,398,ls),
(84,379,o),
(97,374,o),
(115,374,cs),
(143,374,ls),
(175,374,o),
(214,368,o),
(214,326,cs),
(214,295,o),
(192,278,o),
(145,278,cs),
(101,278,o),
(71,294,o),
(50,319,cs),
(47,323,o),
(44,325,o),
(41,325,cs),
(35,325,o),
(32,318,o),
(32,312,cs),
(32,282,o),
(70,227,o),
(151,227,cs),
(228,227,o),
(274,268,o),
(274,324,cs),
(274,367,o),
(250,391,o),
(210,403,c)
);
}
);
width = 729;
}
);
note = threequarters;
unicode = 190;
},
{
glyphname = questiondown;
layers = (
{
layerId = m01;
shapes = (
{
closed = 1;
nodes = (
(228,267,o),
(252,292,o),
(252,322,cs),
(252,352,o),
(228,377,o),
(199,377,cs),
(169,377,o),
(144,352,o),
(144,322,cs),
(144,292,o),
(169,267,o),
(199,267,cs)
);
},
{
closed = 1;
nodes = (
(11,-146,o),
(80,-200,o),
(190,-200,cs),
(252,-200,o),
(301,-183,o),
(352,-151,cs),
(358,-147,o),
(359,-143,o),
(357,-137,cs),
(343,-93,ls),
(341,-87,o),
(339,-86,o),
(335,-86,cs),
(332,-86,o),
(327,-87,o),
(322,-91,cs),
(281,-117,o),
(242,-130,o),
(190,-130,cs),
(127,-130,o),
(88,-97,o),
(88,-40,cs),
(88,63,o),
(230,78,o),
(230,173,cs),
(230,196,o),
(213,215,o),
(187,215,cs),
(174,215,ls),
(168,215,o),
(166,212,o),
(166,207,cs),
(166,180,ls),
(166,160,o),
(163,154,o),
(147,141,cs),
(73,83,o),
(11,35,o),
(11,-47,cs)
);
}
);
width = 335;
}
);
note = questiondown;
unicode = 191;
},
{
glyphname = Agrave;
kernLeft = A;
kernRight = A;
layers = (
{
layerId = m01;
shapes = (
{
closed = 1;
nodes = (
(253,463,l),
(342,221,l),
(165,221,l)
);
},
{
closed = 1;
nodes = (
(366,153,l),
(417,12,l),
(421,4,o),
(423,0,o),
(435,0,cs),
(494,0,ls),
(500,0,o),
(503,4,o),
(501,9,cs),
(316,500,ls),
(300,543,o),
(282,556,o),
(243,556,cs),
(224,556,ls),
(218,556,o),
(215,553,o),
(213,547,cs),
(11,9,ls),
(9,4,o),
(11,0,o),
(17,0,cs),
(76,0,ls),
(85,0,o),
(88,3,o),
(91,12,cs),
(141,153,l)
);
},
{
closed = 1;
nodes = (
(255,683,ls),
(247,691,o),
(242,693,o),
(230,693,cs),
(165,693,ls),
(159,693,o),
(157,688,o),
(161,684,c),
(243,619,ls),
(252,611,o),
(260,608,o),
(272,608,cs),
(324,608,ls),
(330,608,o),
(332,614,o),
(328,617,cs)
);
}
);
width = 510;
}
);
note = Agrave;
unicode = 192;
},
{
glyphname = Aacute;
kernLeft = A;
kernRight = A;
layers = (
{
layerId = m01;
shapes = (
{
closed = 1;
nodes = (
(253,463,l),
(342,221,l),
(165,221,l)
);
},
{
closed = 1;
nodes = (
(366,153,l),
(417,12,l),
(421,4,o),
(423,0,o),
(435,0,cs),
(494,0,ls),
(500,0,o),
(503,4,o),
(501,9,cs),
(316,500,ls),
(300,543,o),
(282,556,o),
(243,556,cs),
(224,556,ls),
(218,556,o),
(215,553,o),
(213,547,cs),
(11,9,ls),
(9,4,o),
(11,0,o),
(17,0,cs),
(76,0,ls),
(85,0,o),
(88,3,o),
(91,12,cs),
(141,153,l)
);
},
{
closed = 1;
nodes = (
(170,614,o),
(172,608,o),
(178,608,cs),
(231,608,ls),
(242,608,o),
(251,611,o),
(260,619,cs),
(341,684,ls),
(345,688,o),
(343,693,o),
(337,693,cs),
(271,693,ls),
(261,693,o),
(256,691,o),
(247,683,cs),
(174,617,ls)
);
}
);
width = 510;
}
);
note = Aacute;
unicode = 193;
},
{
glyphname = Acircumflex;
kernLeft = A;
kernRight = A;
layers = (
{
layerId = m01;
shapes = (
{
closed = 1;
nodes = (
(253,463,l),
(342,221,l),
(165,221,l)
);
},
{
closed = 1;
nodes = (
(366,153,l),
(417,12,l),
(421,4,o),
(423,0,o),
(435,0,cs),
(494,0,ls),
(500,0,o),
(503,4,o),
(501,9,cs),
(316,500,ls),
(300,543,o),
(282,556,o),
(243,556,cs),
(224,556,ls),
(218,556,o),
(215,553,o),
(213,547,cs),
(11,9,ls),
(9,4,o),
(11,0,o),
(17,0,cs),
(76,0,ls),
(85,0,o),
(88,3,o),
(91,12,cs),
(141,153,l)
);
},
{
closed = 1;
nodes = (
(295,620,ls),
(304,611,o),
(312,608,o),
(324,608,cs),
(371,608,ls),
(376,608,o),
(377,614,o),
(375,617,c),
(305,683,l),
(297,692,o),
(293,693,o),
(281,693,cs),
(227,693,ls),
(216,693,o),
(211,692,o),
(202,683,cs),
(134,617,l),
(130,614,o),
(132,608,o),
(138,608,cs),
(185,608,ls),
(197,608,o),
(206,611,o),
(213,620,c),
(254,663,l)
);
}
);
width = 510;
}
);
note = Acircumflex;
unicode = 194;
},
{
glyphname = Atilde;
kernLeft = A;
kernRight = A;
layers = (
{
layerId = m01;
shapes = (
{
closed = 1;
nodes = (
(253,463,l),
(342,221,l),
(165,221,l)
);
},
{
closed = 1;
nodes = (
(366,153,l),
(417,12,l),
(421,4,o),
(423,0,o),
(435,0,cs),
(494,0,ls),
(500,0,o),
(503,4,o),
(501,9,cs),
(316,500,ls),
(300,543,o),
(282,556,o),
(243,556,cs),
(224,556,ls),
(218,556,o),
(215,553,o),
(213,547,cs),
(11,9,ls),
(9,4,o),
(11,0,o),
(17,0,cs),
(76,0,ls),
(85,0,o),
(88,3,o),
(91,12,cs),
(141,153,l)
);
},
{
closed = 1;
nodes = (
(369,686,o),
(366,689,o),
(361,689,cs),
(326,689,ls),
(321,689,o),
(317,687,o),
(315,679,cs),
(312,668,o),
(307,662,o),
(295,662,cs),
(268,662,o),
(233,691,o),
(194,691,cs),
(157,691,o),
(135,664,o),
(132,616,cs),
(132,610,o),
(135,607,o),
(140,607,cs),
(175,607,ls),
(180,607,o),
(183,610,o),
(184,617,cs),
(186,628,o),
(191,636,o),
(204,636,cs),
(228,636,o),
(266,608,o),
(300,608,cs),
(342,608,o),
(364,633,o),
(369,681,cs)
);
}
);
width = 510;
}
);
note = Atilde;
unicode = 195;
},
{
glyphname = Adieresis;
kernLeft = A;
kernRight = A;
layers = (
{
layerId = m01;
shapes = (
{
closed = 1;
nodes = (
(253,463,l),
(342,221,l),
(165,221,l)
);
},
{
closed = 1;
nodes = (
(366,153,l),
(417,12,l),
(421,4,o),
(423,0,o),
(435,0,cs),
(494,0,ls),
(500,0,o),
(503,4,o),
(501,9,cs),
(316,500,ls),
(300,543,o),
(282,556,o),
(243,556,cs),
(224,556,ls),
(218,556,o),
(215,553,o),
(213,547,cs),
(11,9,ls),
(9,4,o),
(11,0,o),
(17,0,cs),
(76,0,ls),
(85,0,o),
(88,3,o),
(91,12,cs),
(141,153,l)
);
},
{
closed = 1;
nodes = (
(138,620,o),
(158,600,o),
(183,600,cs),
(208,600,o),
(228,620,o),
(228,645,cs),
(228,671,o),
(208,691,o),
(183,691,cs),
(158,691,o),
(138,671,o),
(138,645,cs)
);
},
{
closed = 1;
nodes = (
(275,620,o),
(295,600,o),
(320,600,cs),
(344,600,o),
(364,620,o),
(364,645,cs),
(364,671,o),
(344,691,o),
(320,691,cs),
(295,691,o),
(275,671,o),
(275,645,cs)
);
}
);
width = 510;
}
);
note = Adieresis;
unicode = 196;
},
{
glyphname = Aring;
kernLeft = A;
kernRight = A;
layers = (
{
layerId = m01;
shapes = (
{
closed = 1;
nodes = (
(253,463,l),
(342,221,l),
(165,221,l)
);
},
{
closed = 1;
nodes = (
(366,153,l),
(417,12,l),
(421,4,o),
(423,0,o),
(435,0,cs),
(494,0,ls),
(500,0,o),
(503,4,o),
(501,9,cs),
(316,500,ls),
(300,543,o),
(282,556,o),
(243,556,cs),
(224,556,ls),
(218,556,o),
(215,553,o),
(213,547,cs),
(11,9,ls),
(9,4,o),
(11,0,o),
(17,0,cs),
(76,0,ls),
(85,0,o),
(88,3,o),
(91,12,cs),
(141,153,l)
);
},
{
closed = 1;
nodes = (
(182,628,o),
(214,597,o),
(253,597,cs),
(291,597,o),
(323,628,o),
(323,667,cs),
(323,706,o),
(291,737,o),
(253,737,cs),
(214,737,o),
(182,706,o),
(182,667,cs)
);
},
{
closed = 1;
nodes = (
(234,633,o),
(220,648,o),
(220,667,cs),
(220,687,o),
(234,702,o),
(253,702,cs),
(271,702,o),
(286,687,o),
(286,667,cs),
(286,648,o),
(271,633,o),
(253,633,cs)
);
}
);
width = 510;
}
);
note = Aring;
unicode = 197;
},
{
glyphname = AE;
kernRight = E;
layers = (
{
layerId = m01;
shapes = (
{
closed = 1;
nodes = (
(341,153,l),
(341,9,ls),
(341,3,o),
(343,0,o),
(349,0,cs),
(648,0,ls),
(656,0,o),
(660,4,o),
(660,11,cs),
(660,27,ls),
(660,54,o),
(644,71,o),
(614,71,cs),
(418,71,l),
(418,242,l),
(620,242,ls),
(628,242,o),
(632,246,o),
(632,252,cs),
(632,268,ls),
(632,296,o),
(616,312,o),
(586,312,cs),
(418,312,l),
(418,485,l),
(639,485,ls),
(647,485,o),
(650,489,o),
(650,496,cs),
(650,513,ls),
(650,541,o),
(635,556,o),
(605,556,cs),
(312,556,ls),
(305,556,o),
(299,553,o),
(296,547,cs),
(5,9,ls),
(2,4,o),
(4,0,o),
(10,0,cs),
(71,0,ls),
(81,0,o),
(86,3,o),
(90,12,cs),
(164,153,l)
);
},
{
closed = 1;
nodes = (
(341,486,l),
(341,221,l),
(200,221,l)
);
}
);
width = 688;
}
);
note = AE;
unicode = 198;
},
{
glyphname = Ccedilla;
kernLeft = C;
kernRight = C;
layers = (
{
layerId = m01;
shapes = (
{
closed = 1;
nodes = (
(448,4,o),
(491,84,o),
(491,122,cs),
(491,133,o),
(487,142,o),
(477,142,cs),
(472,142,o),
(468,140,o),
(462,132,cs),
(433,96,o),
(383,61,o),
(311,61,cs),
(198,61,o),
(128,138,o),
(128,276,cs),
(128,417,o),
(198,495,o),
(309,495,cs),
(365,495,o),
(408,478,o),
(448,452,cs),
(454,448,o),
(458,446,o),
(462,446,cs),
(467,446,o),
(471,449,o),
(472,456,cs),
(477,477,ls),
(484,506,o),
(472,523,o),
(439,538,cs),
(403,553,o),
(364,567,o),
(309,567,cs),
(157,567,o),
(50,456,o),
(50,277,cs),
(50,111,o),
(137,5,o),
(269,-9,c),
(214,-96,ls),
(212,-99,o),
(213,-104,o),
(218,-104,cs),
(268,-104,ls),
(279,-104,o),
(287,-102,o),
(292,-92,cs),
(333,-9,l)
);
}
);
width = 512;
}
);
note = Ccedilla;
unicode = 199;
},
{
glyphname = Egrave;
kernRight = E;
layers = (
{
layerId = m01;
shapes = (
{
closed = 1;
nodes = (
(140,242,l),
(343,242,ls),
(351,242,o),
(354,246,o),
(354,252,cs),
(354,268,ls),
(354,296,o),
(340,312,o),
(310,312,cs),
(140,312,l),
(140,485,l),
(362,485,ls),
(369,485,o),
(373,489,o),
(373,496,cs),
(373,513,ls),
(373,541,o),
(357,556,o),
(328,556,cs),
(72,556,ls),
(66,556,o),
(64,552,o),
(64,547,cs),
(64,9,ls),
(64,3,o),
(66,0,o),
(72,0,cs),
(371,0,ls),
(379,0,o),
(382,4,o),
(382,11,cs),
(382,27,ls),
(382,54,o),
(367,71,o),
(337,71,cs),
(140,71,l)
);
},
{
closed = 1;
nodes = (
(207,683,ls),
(199,691,o),
(194,693,o),
(182,693,cs),
(117,693,ls),
(111,693,o),
(110,688,o),
(113,684,c),
(195,619,ls),
(204,611,o),
(212,608,o),
(224,608,cs),
(276,608,ls),
(282,608,o),
(285,614,o),
(280,617,c)
);
}
);
width = 412;
}
);
note = Egrave;
unicode = 200;
},
{
glyphname = Eacute;
kernRight = E;
layers = (
{
layerId = m01;
shapes = (
{
closed = 1;
nodes = (
(140,242,l),
(343,242,ls),
(351,242,o),
(354,246,o),
(354,252,cs),
(354,268,ls),
(354,296,o),
(340,312,o),
(310,312,cs),
(140,312,l),
(140,485,l),
(362,485,ls),
(369,485,o),
(373,489,o),
(373,496,cs),
(373,513,ls),
(373,541,o),
(357,556,o),
(328,556,cs),
(72,556,ls),
(66,556,o),
(64,552,o),
(64,547,cs),
(64,9,ls),
(64,3,o),
(66,0,o),
(72,0,cs),
(371,0,ls),
(379,0,o),
(382,4,o),
(382,11,cs),
(382,27,ls),
(382,54,o),
(367,71,o),
(337,71,cs),
(140,71,l)
);
},
{
closed = 1;
nodes = (
(142,614,o),
(144,608,o),
(150,608,cs),
(203,608,ls),
(215,608,o),
(223,611,o),
(232,619,cs),
(313,684,ls),
(317,688,o),
(315,693,o),
(309,693,cs),
(243,693,ls),
(233,693,o),
(228,691,o),
(220,683,cs),
(146,617,ls)
);
}
);
width = 412;
}
);
note = Eacute;
unicode = 201;
},
{
glyphname = Ecircumflex;
kernRight = E;
layers = (
{
layerId = m01;
shapes = (
{
closed = 1;
nodes = (
(140,242,l),
(343,242,ls),
(351,242,o),
(354,246,o),
(354,252,cs),
(354,268,ls),
(354,296,o),
(340,312,o),
(310,312,cs),
(140,312,l),
(140,485,l),
(362,485,ls),
(369,485,o),
(373,489,o),
(373,496,cs),
(373,513,ls),
(373,541,o),
(357,556,o),
(328,556,cs),
(72,556,ls),
(66,556,o),
(64,552,o),
(64,547,cs),
(64,9,ls),
(64,3,o),
(66,0,o),
(72,0,cs),
(371,0,ls),
(379,0,o),
(382,4,o),
(382,11,cs),
(382,27,ls),
(382,54,o),
(367,71,o),
(337,71,cs),
(140,71,l)
);
},
{
closed = 1;
nodes = (
(256,620,ls),
(265,611,o),
(272,608,o),
(285,608,cs),
(331,608,ls),
(337,608,o),
(338,614,o),
(335,617,cs),
(266,683,ls),
(257,692,o),
(253,693,o),
(242,693,cs),
(188,693,ls),
(176,693,o),
(171,692,o),
(163,683,cs),
(95,617,l),
(91,614,o),
(92,608,o),
(98,608,cs),
(145,608,ls),
(157,608,o),
(166,611,o),
(174,620,cs),
(215,663,l)
);
}
);
width = 412;
}
);
note = Ecircumflex;
unicode = 202;
},
{
glyphname = Edieresis;
kernRight = E;
layers = (
{
layerId = m01;
shapes = (
{
closed = 1;
nodes = (
(140,242,l),
(343,242,ls),
(351,242,o),
(354,246,o),
(354,252,cs),
(354,268,ls),
(354,296,o),
(340,312,o),
(310,312,cs),
(140,312,l),
(140,485,l),
(362,485,ls),
(369,485,o),
(373,489,o),
(373,496,cs),
(373,513,ls),
(373,541,o),
(357,556,o),
(328,556,cs),
(72,556,ls),
(66,556,o),
(64,552,o),
(64,547,cs),
(64,9,ls),
(64,3,o),
(66,0,o),
(72,0,cs),
(371,0,ls),
(379,0,o),
(382,4,o),
(382,11,cs),
(382,27,ls),
(382,54,o),
(367,71,o),
(337,71,cs),
(140,71,l)
);
},
{
closed = 1;
nodes = (
(103,620,o),
(123,600,o),
(148,600,cs),
(173,600,o),
(193,620,o),
(193,645,cs),
(193,671,o),
(173,691,o),
(148,691,cs),
(123,691,o),
(103,671,o),
(103,645,cs)
);
},
{
closed = 1;
nodes = (
(240,620,o),
(260,600,o),
(285,600,cs),
(309,600,o),
(329,620,o),
(329,645,cs),
(329,671,o),
(309,691,o),
(285,691,cs),
(260,691,o),
(240,671,o),
(240,645,cs)
);
}
);
width = 412;
}
);
note = Edieresis;
unicode = 203;
},
{
glyphname = Igrave;
kernRight = I;
layers = (
{
layerId = m01;
shapes = (
{
closed = 1;
nodes = (
(138,0,ls),
(144,0,o),
(146,3,o),
(146,9,cs),
(146,485,ls),
(146,533,o),
(124,556,o),
(86,556,cs),
(79,556,ls),
(73,556,o),
(71,552,o),
(71,547,cs),
(71,9,ls),
(71,3,o),
(73,0,o),
(79,0,cs)
);
},
{
closed = 1;
nodes = (
(112,683,ls),
(104,691,o),
(99,693,o),
(87,693,cs),
(23,693,ls),
(17,693,o),
(15,688,o),
(19,684,c),
(101,619,l),
(109,611,o),
(117,608,o),
(129,608,cs),
(182,608,ls),
(188,608,o),
(190,614,o),
(186,617,cs)
);
}
);
width = 205;
}
);
note = Igrave;
unicode = 204;
},
{
glyphname = Iacute;
kernRight = I;
layers = (
{
layerId = m01;
shapes = (
{
closed = 1;
nodes = (
(139,0,ls),
(146,0,o),
(147,3,o),
(147,9,cs),
(147,485,ls),
(147,533,o),
(126,556,o),
(87,556,cs),
(80,556,ls),
(74,556,o),
(72,552,o),
(72,547,cs),
(72,9,ls),
(72,3,o),
(74,0,o),
(80,0,cs)
);
},
{
closed = 1;
nodes = (
(15,614,o),
(17,608,o),
(23,608,cs),
(76,608,ls),
(87,608,o),
(96,611,o),
(104,619,c),
(186,684,l),
(190,688,o),
(188,693,o),
(182,693,cs),
(116,693,ls),
(106,693,o),
(101,691,o),
(92,683,cs),
(19,617,ls)
);
}
);
width = 205;
}
);
note = Iacute;
unicode = 205;
},
{
glyphname = Icircumflex;
kernRight = I;
layers = (
{
layerId = m01;
shapes = (
{
closed = 1;
nodes = (
(133,0,ls),
(140,0,o),
(141,3,o),
(141,9,cs),
(141,485,ls),
(141,533,o),
(120,556,o),
(81,556,cs),
(74,556,ls),
(68,556,o),
(66,552,o),
(66,547,cs),
(66,9,ls),
(66,3,o),
(68,0,o),
(74,0,cs)
);
},
{
closed = 1;
nodes = (
(144,620,ls),
(153,611,o),
(161,608,o),
(173,608,cs),
(220,608,ls),
(225,608,o),
(226,614,o),
(223,617,cs),
(154,683,ls),
(146,692,o),
(142,693,o),
(130,693,cs),
(76,693,ls),
(65,693,o),
(60,692,o),
(51,683,cs),
(-17,617,l),
(-21,614,o),
(-19,608,o),
(-13,608,cs),
(33,608,ls),
(46,608,o),
(55,611,o),
(62,620,c),
(103,663,l)
);
}
);
width = 205;
}
);
note = Icircumflex;
unicode = 206;
},
{
glyphname = Idieresis;
kernRight = I;
layers = (
{
layerId = m01;
shapes = (
{
closed = 1;
nodes = (
(132,0,ls),
(138,0,o),
(140,3,o),
(140,9,cs),
(140,485,ls),
(140,533,o),
(118,556,o),
(79,556,cs),
(73,556,ls),
(67,556,o),
(64,552,o),
(64,547,cs),
(64,9,ls),
(64,3,o),
(67,0,o),
(73,0,cs)
);
},
{
closed = 1;
nodes = (
(-10,620,o),
(10,600,o),
(34,600,cs),
(59,600,o),
(79,620,o),
(79,645,cs),
(79,671,o),
(59,691,o),
(34,691,cs),
(10,691,o),
(-10,671,o),
(-10,645,cs)
);
},
{
closed = 1;
nodes = (
(126,620,o),
(146,600,o),
(171,600,cs),
(196,600,o),
(216,620,o),
(216,645,cs),
(216,671,o),
(196,691,o),
(171,691,cs),
(146,691,o),
(126,671,o),
(126,645,cs)
);
}
);
width = 205;
}
);
note = Idieresis;
unicode = 207;
},
{
glyphname = Eth;
layers = (
{
layerId = m01;
shapes = (
{
closed = 1;
nodes = (
(80,9,ls),
(80,3,o),
(82,0,o),
(87,0,cs),
(236,0,ls),
(408,0,o),
(521,87,o),
(521,286,cs),
(521,474,o),
(407,556,o),
(243,556,cs),
(87,556,ls),
(82,556,o),
(80,553,o),
(80,547,cs),
(80,315,l),
(27,315,ls),
(21,315,o),
(19,313,o),
(19,307,cs),
(19,253,ls),
(19,247,o),
(21,244,o),
(27,244,cs),
(80,244,l)
);
},
{
closed = 1;
nodes = (
(155,244,l),
(317,244,ls),
(324,244,o),
(328,248,o),
(328,256,cs),
(328,272,ls),
(328,300,o),
(313,315,o),
(283,315,cs),
(155,315,l),
(155,485,l),
(240,485,ls),
(372,485,o),
(442,431,o),
(442,283,cs),
(442,140,o),
(373,71,o),
(245,71,cs),
(155,71,l)
);
}
);
width = 571;
}
);
note = Eth;
unicode = 208;
},
{
glyphname = Ntilde;
kernRight = N;
layers = (
{
layerId = m01;
shapes = (
{
closed = 1;
nodes = (
(160,511,ls),
(141,542,o),
(128,556,o),
(90,556,cs),
(72,556,ls),
(66,556,o),
(64,552,o),
(64,547,cs),
(64,9,ls),
(64,3,o),
(66,0,o),
(72,0,cs),
(132,0,ls),
(138,0,o),
(140,3,o),
(140,9,cs),
(140,403,l),
(380,13,ls),
(386,3,o),
(392,0,o),
(402,0,cs),
(456,0,ls),
(462,0,o),
(463,3,o),
(463,9,cs),
(463,485,ls),
(463,533,o),
(443,556,o),
(403,556,cs),
(396,556,ls),
(391,556,o),
(388,552,o),
(388,547,cs),
(388,138,l)
);
},
{
closed = 1;
nodes = (
(379,686,o),
(376,689,o),
(371,689,cs),
(336,689,ls),
(331,689,o),
(327,687,o),
(325,679,cs),
(322,668,o),
(317,662,o),
(305,662,cs),
(278,662,o),
(243,691,o),
(204,691,cs),
(167,691,o),
(145,664,o),
(142,616,cs),
(142,610,o),
(145,607,o),
(150,607,cs),
(185,607,ls),
(190,607,o),
(193,610,o),
(194,617,cs),
(196,628,o),
(201,636,o),
(214,636,cs),
(238,636,o),
(276,608,o),
(310,608,cs),
(352,608,o),
(374,633,o),
(379,681,cs)
);
}
);
width = 528;
}
);
note = Ntilde;
unicode = 209;
},
{
glyphname = Ograve;
kernLeft = O;
kernRight = O;
layers = (
{
layerId = m01;
shapes = (
{
closed = 1;
nodes = (
(212,62,o),
(127,109,o),
(127,277,cs),
(127,444,o),
(212,495,o),
(301,495,cs),
(389,495,o),
(475,444,o),
(475,277,cs),
(475,109,o),
(389,62,o),
(301,62,cs)
);
},
{
closed = 1;
nodes = (
(461,-10,o),
(552,101,o),
(552,277,cs),
(552,453,o),
(458,566,o),
(301,566,cs),
(143,566,o),
(49,453,o),
(49,277,cs),
(49,101,o),
(142,-10,o),
(301,-10,cs)
);
},
{
closed = 1;
nodes = (
(307,683,ls),
(299,691,o),
(294,693,o),
(282,693,cs),
(217,693,ls),
(211,693,o),
(210,688,o),
(213,684,c),
(295,619,ls),
(304,611,o),
(312,608,o),
(324,608,cs),
(376,608,ls),
(382,608,o),
(385,614,o),
(380,617,c)
);
}
);
width = 602;
}
);
note = Ograve;
unicode = 210;
},
{
glyphname = Oacute;
kernLeft = O;
kernRight = O;
layers = (
{
layerId = m01;
shapes = (
{
closed = 1;
nodes = (
(212,62,o),
(127,109,o),
(127,277,cs),
(127,444,o),
(212,495,o),
(301,495,cs),
(389,495,o),
(475,444,o),
(475,277,cs),
(475,109,o),
(389,62,o),
(301,62,cs)
);
},
{
closed = 1;
nodes = (
(461,-10,o),
(552,101,o),
(552,277,cs),
(552,453,o),
(458,566,o),
(301,566,cs),
(143,566,o),
(49,453,o),
(49,277,cs),
(49,101,o),
(142,-10,o),
(301,-10,cs)
);
},
{
closed = 1;
nodes = (
(216,614,o),
(218,608,o),
(224,608,cs),
(277,608,ls),
(288,608,o),
(297,611,o),
(306,619,cs),
(387,684,ls),
(391,688,o),
(389,693,o),
(383,693,cs),
(317,693,ls),
(307,693,o),
(302,691,o),
(293,683,cs),
(220,617,ls)
);
}
);
width = 602;
}
);
note = Oacute;
unicode = 211;
},
{
glyphname = Ocircumflex;
kernLeft = O;
kernRight = O;
layers = (
{
layerId = m01;
shapes = (
{
closed = 1;
nodes = (
(212,62,o),
(127,109,o),
(127,277,cs),
(127,444,o),
(212,495,o),
(301,495,cs),
(389,495,o),
(475,444,o),
(475,277,cs),
(475,109,o),
(389,62,o),
(301,62,cs)
);
},
{
closed = 1;
nodes = (
(461,-10,o),
(552,101,o),
(552,277,cs),
(552,453,o),
(458,566,o),
(301,566,cs),
(143,566,o),
(49,453,o),
(49,277,cs),
(49,101,o),
(142,-10,o),
(301,-10,cs)
);
},
{
closed = 1;
nodes = (
(341,620,ls),
(350,611,o),
(358,608,o),
(370,608,cs),
(417,608,ls),
(422,608,o),
(423,614,o),
(421,617,c),
(351,683,l),
(343,692,o),
(339,693,o),
(327,693,cs),
(273,693,ls),
(262,693,o),
(257,692,o),
(248,683,cs),
(180,617,l),
(176,614,o),
(178,608,o),
(184,608,cs),
(231,608,ls),
(243,608,o),
(252,611,o),
(260,620,cs),
(300,663,l)
);
}
);
width = 602;
}
);
note = Ocircumflex;
unicode = 212;
},
{
glyphname = Otilde;
kernLeft = O;
kernRight = O;
layers = (
{
layerId = m01;
shapes = (
{
closed = 1;
nodes = (
(212,62,o),
(127,109,o),
(127,277,cs),
(127,444,o),
(212,495,o),
(301,495,cs),
(389,495,o),
(475,444,o),
(475,277,cs),
(475,109,o),
(389,62,o),
(301,62,cs)
);
},
{
closed = 1;
nodes = (
(461,-10,o),
(552,101,o),
(552,277,cs),
(552,453,o),
(458,566,o),
(301,566,cs),
(143,566,o),
(49,453,o),
(49,277,cs),
(49,101,o),
(142,-10,o),
(301,-10,cs)
);
},
{
closed = 1;
nodes = (
(417,686,o),
(414,689,o),
(409,689,cs),
(375,689,ls),
(370,689,o),
(366,687,o),
(363,679,c),
(361,668,o),
(356,662,o),
(343,662,cs),
(317,662,o),
(281,691,o),
(242,691,cs),
(206,691,o),
(183,664,o),
(181,616,cs),
(181,610,o),
(183,607,o),
(188,607,cs),
(223,607,ls),
(228,607,o),
(231,610,o),
(232,617,cs),
(235,628,o),
(240,636,o),
(252,636,cs),
(276,636,o),
(314,608,o),
(348,608,cs),
(390,608,o),
(412,633,o),
(417,681,cs)
);
}
);
width = 602;
}
);
note = Otilde;
unicode = 213;
},
{
glyphname = Odieresis;
kernLeft = O;
kernRight = O;
layers = (
{
layerId = m01;
shapes = (
{
closed = 1;
nodes = (
(212,62,o),
(127,109,o),
(127,277,cs),
(127,444,o),
(212,495,o),
(301,495,cs),
(389,495,o),
(475,444,o),
(475,277,cs),
(475,109,o),
(389,62,o),
(301,62,cs)
);
},
{
closed = 1;
nodes = (
(461,-10,o),
(552,101,o),
(552,277,cs),
(552,453,o),
(458,566,o),
(301,566,cs),
(143,566,o),
(49,453,o),
(49,277,cs),
(49,101,o),
(142,-10,o),
(301,-10,cs)
);
},
{
closed = 1;
nodes = (
(188,620,o),
(208,600,o),
(233,600,cs),
(258,600,o),
(278,620,o),
(278,645,cs),
(278,671,o),
(258,691,o),
(233,691,cs),
(208,691,o),
(188,671,o),
(188,645,cs)
);
},
{
closed = 1;
nodes = (
(325,620,o),
(345,600,o),
(370,600,cs),
(394,600,o),
(414,620,o),
(414,645,cs),
(414,671,o),
(394,691,o),
(370,691,cs),
(345,691,o),
(325,671,o),
(325,645,cs)
);
}
);
width = 602;
}
);
note = Odieresis;
unicode = 214;
},
{
glyphname = multiply;
layers = (
{
layerId = m01;
shapes = (
{
closed = 1;
nodes = (
(54,168,ls),
(50,164,o),
(49,160,o),
(54,156,cs),
(85,126,ls),
(90,121,o),
(92,121,o),
(97,126,cs),
(202,232,l),
(277,155,ls),
(309,125,o),
(329,121,o),
(357,150,cs),
(362,155,o),
(361,158,o),
(357,162,cs),
(246,274,l),
(350,379,ls),
(355,384,o),
(355,387,o),
(350,392,cs),
(319,422,ls),
(315,426,o),
(312,426,o),
(309,422,c),
(203,317,l),
(126,393,ls),
(97,422,o),
(76,426,o),
(47,398,c),
(43,393,o),
(44,389,o),
(48,386,c),
(160,274,l)
);
}
);
width = 403;
}
);
note = multiply;
unicode = 215;
},
{
glyphname = Oslash;
kernLeft = O;
kernRight = O;
layers = (
{
layerId = m01;
shapes = (
{
closed = 1;
nodes = (
(142,158,o),
(127,208,o),
(127,277,cs),
(127,444,o),
(212,495,o),
(301,495,cs),
(331,495,o),
(360,489,o),
(387,472,c),
(166,125,l)
);
},
{
closed = 1;
nodes = (
(460,396,o),
(475,346,o),
(475,277,cs),
(475,109,o),
(389,62,o),
(301,62,cs),
(272,62,o),
(242,68,o),
(216,82,c),
(436,428,l)
);
},
{
closed = 1;
nodes = (
(461,-10,o),
(552,101,o),
(552,277,cs),
(552,453,o),
(459,567,o),
(301,567,cs),
(143,567,o),
(49,453,o),
(49,277,cs),
(49,101,o),
(142,-10,o),
(301,-10,cs)
);
}
);
width = 602;
}
);
note = Oslash;
unicode = 216;
},
{
glyphname = Ugrave;
kernLeft = U;
kernRight = U;
layers = (
{
layerId = m01;
shapes = (
{
closed = 1;
nodes = (
(427,-10,o),
(462,117,o),
(462,201,cs),
(462,485,ls),
(462,533,o),
(441,556,o),
(402,556,cs),
(395,556,ls),
(389,556,o),
(387,552,o),
(387,547,cs),
(387,213,ls),
(387,127,o),
(355,61,o),
(261,61,cs),
(169,61,o),
(139,124,o),
(139,212,cs),
(139,485,ls),
(139,533,o),
(117,556,o),
(78,556,cs),
(71,556,ls),
(65,556,o),
(63,552,o),
(63,547,cs),
(63,199,ls),
(63,101,o),
(104,-10,o),
(262,-10,cs)
);
},
{
closed = 1;
nodes = (
(250,683,ls),
(242,691,o),
(237,693,o),
(225,693,cs),
(161,693,ls),
(155,693,o),
(153,688,o),
(157,684,c),
(239,619,l),
(247,611,o),
(255,608,o),
(267,608,cs),
(320,608,ls),
(326,608,o),
(328,614,o),
(324,617,cs)
);
}
);
width = 521;
}
);
note = Ugrave;
unicode = 217;
},
{
glyphname = Uacute;
kernLeft = U;
kernRight = U;
layers = (
{
layerId = m01;
shapes = (
{
closed = 1;
nodes = (
(427,-10,o),
(462,117,o),
(462,201,cs),
(462,485,ls),
(462,533,o),
(441,556,o),
(402,556,cs),
(395,556,ls),
(389,556,o),
(387,552,o),
(387,547,cs),
(387,213,ls),
(387,127,o),
(355,61,o),
(261,61,cs),
(169,61,o),
(139,124,o),
(139,212,cs),
(139,485,ls),
(139,533,o),
(117,556,o),
(78,556,cs),
(71,556,ls),
(65,556,o),
(63,552,o),
(63,547,cs),
(63,199,ls),
(63,101,o),
(104,-10,o),
(262,-10,cs)
);
},
{
closed = 1;
nodes = (
(172,614,o),
(174,608,o),
(180,608,cs),
(232,608,ls),
(244,608,o),
(252,611,o),
(261,619,cs),
(342,684,ls),
(347,688,o),
(345,693,o),
(339,693,cs),
(273,693,ls),
(262,693,o),
(257,691,o),
(249,683,cs),
(176,617,ls)
);
}
);
width = 521;
}
);
note = Uacute;
unicode = 218;
},
{
glyphname = Ucircumflex;
kernLeft = U;
kernRight = U;
layers = (
{
layerId = m01;
shapes = (
{
closed = 1;
nodes = (
(427,-10,o),
(462,117,o),
(462,201,cs),
(462,485,ls),
(462,533,o),
(441,556,o),
(402,556,cs),
(395,556,ls),
(389,556,o),
(387,552,o),
(387,547,cs),
(387,213,ls),
(387,127,o),
(355,61,o),
(261,61,cs),
(169,61,o),
(139,124,o),
(139,212,cs),
(139,485,ls),
(139,533,o),
(117,556,o),
(78,556,cs),
(71,556,ls),
(65,556,o),
(63,552,o),
(63,547,cs),
(63,199,ls),
(63,101,o),
(104,-10,o),
(262,-10,cs)
);
},
{
closed = 1;
nodes = (
(301,620,ls),
(310,611,o),
(318,608,o),
(330,608,cs),
(377,608,ls),
(382,608,o),
(384,614,o),
(381,617,cs),
(311,683,l),
(303,692,o),
(299,693,o),
(287,693,cs),
(234,693,ls),
(222,693,o),
(217,692,o),
(209,683,cs),
(140,617,l),
(136,614,o),
(138,608,o),
(144,608,cs),
(191,608,ls),
(203,608,o),
(212,611,o),
(220,620,cs),
(260,663,l)
);
}
);
width = 521;
}
);
note = Ucircumflex;
unicode = 219;
},
{
glyphname = Udieresis;
kernLeft = U;
kernRight = U;
layers = (
{
layerId = m01;
shapes = (
{
closed = 1;
nodes = (
(427,-10,o),
(462,117,o),
(462,201,cs),
(462,485,ls),
(462,533,o),
(441,556,o),
(402,556,cs),
(395,556,ls),
(389,556,o),
(387,552,o),
(387,547,cs),
(387,213,ls),
(387,127,o),
(355,61,o),
(261,61,cs),
(169,61,o),
(139,124,o),
(139,212,cs),
(139,485,ls),
(139,533,o),
(117,556,o),
(78,556,cs),
(71,556,ls),
(65,556,o),
(63,552,o),
(63,547,cs),
(63,199,ls),
(63,101,o),
(104,-10,o),
(262,-10,cs)
);
},
{
closed = 1;
nodes = (
(144,620,o),
(164,600,o),
(189,600,cs),
(214,600,o),
(234,620,o),
(234,645,cs),
(234,671,o),
(214,691,o),
(189,691,cs),
(164,691,o),
(144,671,o),
(144,645,cs)
);
},
{
closed = 1;
nodes = (
(280,620,o),
(300,600,o),
(325,600,cs),
(350,600,o),
(370,620,o),
(370,645,cs),
(370,671,o),
(350,691,o),
(325,691,cs),
(300,691,o),
(280,671,o),
(280,645,cs)
);
}
);
width = 521;
}
);
note = Udieresis;
unicode = 220;
},
{
glyphname = Yacute;
kernLeft = Y;
kernRight = Y;
layers = (
{
layerId = m01;
shapes = (
{
closed = 1;
nodes = (
(186,9,ls),
(186,3,o),
(187,0,o),
(194,0,cs),
(253,0,ls),
(259,0,o),
(261,3,o),
(261,9,cs),
(261,212,l),
(441,544,ls),
(444,551,o),
(442,556,o),
(435,556,cs),
(377,556,ls),
(369,556,o),
(364,552,o),
(360,543,cs),
(226,292,l),
(112,506,ls),
(92,542,o),
(74,556,o),
(39,556,cs),
(11,556,ls),
(4,556,o),
(3,551,o),
(5,547,cs),
(186,213,l)
);
},
{
closed = 1;
nodes = (
(147,614,o),
(149,608,o),
(155,608,cs),
(208,608,ls),
(220,608,o),
(228,611,o),
(237,619,cs),
(318,684,ls),
(322,688,o),
(320,693,o),
(314,693,cs),
(249,693,ls),
(238,693,o),
(233,691,o),
(225,683,cs),
(151,617,ls)
);
}
);
width = 445;
}
);
note = Yacute;
unicode = 221;
},
{
glyphname = Thorn;
layers = (
{
layerId = m01;
shapes = (
{
closed = 1;
nodes = (
(140,386,l),
(269,386,ls),
(333,386,o),
(379,348,o),
(379,282,cs),
(379,195,o),
(320,173,o),
(266,173,cs),
(140,173,l)
);
},
{
closed = 1;
nodes = (
(270,102,ls),
(385,102,o),
(456,174,o),
(456,281,cs),
(456,388,o),
(387,456,o),
(263,456,cs),
(140,456,l),
(140,485,ls),
(140,533,o),
(118,556,o),
(79,556,cs),
(72,556,ls),
(66,556,o),
(64,553,o),
(64,547,cs),
(64,9,ls),
(64,3,o),
(66,0,o),
(72,0,cs),
(132,0,ls),
(138,0,o),
(140,3,o),
(140,9,cs),
(140,102,l)
);
}
);
width = 489;
}
);
note = Thorn;
unicode = 222;
},
{
glyphname = germandbls;
layers = (
{
layerId = m01;
shapes = (
{
closed = 1;
nodes = (
(120,0,ls),
(125,0,o),
(127,3,o),
(127,9,cs),
(127,404,ls),
(127,467,o),
(160,501,o),
(209,501,cs),
(261,501,o),
(287,472,o),
(287,441,cs),
(287,389,o),
(209,349,o),
(209,287,cs),
(209,190,o),
(350,179,o),
(350,103,cs),
(350,73,o),
(327,53,o),
(285,53,cs),
(240,53,o),
(215,72,o),
(190,94,c),
(188,97,o),
(184,99,o),
(181,99,cs),
(174,99,o),
(170,94,o),
(170,82,cs),
(170,42,o),
(216,-10,o),
(297,-10,cs),
(374,-10,o),
(426,38,o),
(426,108,cs),
(426,221,o),
(281,236,o),
(281,297,cs),
(281,336,o),
(361,387,o),
(361,457,cs),
(361,511,o),
(314,567,o),
(211,567,cs),
(122,567,o),
(53,510,o),
(53,407,cs),
(53,9,ls),
(53,3,o),
(55,0,o),
(61,0,cs)
);
}
);
width = 453;
}
);
note = germandbls;
unicode = 223;
},
{
glyphname = agrave;
kernLeft = a;
kernRight = a;
layers = (
{
layerId = m01;
shapes = (
{
closed = 1;
nodes = (
(331,9,ls),
(331,3,o),
(333,0,o),
(339,0,cs),
(398,0,ls),
(404,0,o),
(405,3,o),
(405,9,cs),
(405,359,ls),
(405,366,o),
(404,368,o),
(398,368,cs),
(393,368,ls),
(362,368,o),
(341,354,o),
(335,319,c),
(311,353,o),
(268,377,o),
(212,377,cs),
(108,377,o),
(37,295,o),
(37,184,cs),
(37,78,o),
(99,-9,o),
(209,-9,cs),
(259,-9,o),
(302,10,o),
(331,52,c)
);
},
{
closed = 1;
nodes = (
(172,61,o),
(114,94,o),
(114,184,cs),
(114,266,o),
(165,306,o),
(223,306,cs),
(269,306,o),
(331,282,o),
(331,184,cs),
(331,87,o),
(269,61,o),
(220,61,cs)
);
},
{
closed = 1;
nodes = (
(220,506,ls),
(213,513,o),
(208,516,o),
(195,516,cs),
(131,516,ls),
(125,516,o),
(123,510,o),
(127,507,cs),
(209,441,ls),
(218,433,o),
(225,430,o),
(238,430,cs),
(290,430,ls),
(296,430,o),
(298,436,o),
(294,439,cs)
);
}
);
width = 459;
}
);
note = agrave;
unicode = 224;
},
{
glyphname = aacute;
kernLeft = a;
kernRight = a;
layers = (
{
layerId = m01;
shapes = (
{
closed = 1;
nodes = (
(331,9,ls),
(331,3,o),
(333,0,o),
(339,0,cs),
(398,0,ls),
(404,0,o),
(405,3,o),
(405,9,cs),
(405,359,ls),
(405,366,o),
(404,368,o),
(398,368,cs),
(393,368,ls),
(362,368,o),
(341,354,o),
(335,319,c),
(311,353,o),
(268,377,o),
(212,377,cs),
(108,377,o),
(37,295,o),
(37,184,cs),
(37,78,o),
(99,-9,o),
(209,-9,cs),
(259,-9,o),
(302,10,o),
(331,52,c)
);
},
{
closed = 1;
nodes = (
(172,61,o),
(114,94,o),
(114,184,cs),
(114,266,o),
(165,306,o),
(223,306,cs),
(269,306,o),
(331,282,o),
(331,184,cs),
(331,87,o),
(269,61,o),
(220,61,cs)
);
},
{
closed = 1;
nodes = (
(141,436,o),
(143,430,o),
(149,430,cs),
(201,430,ls),
(213,430,o),
(221,433,o),
(230,441,cs),
(311,507,l),
(316,510,o),
(314,516,o),
(308,516,cs),
(242,516,ls),
(231,516,o),
(226,513,o),
(218,506,cs),
(145,439,ls)
);
}
);
width = 459;
}
);
note = aacute;
unicode = 225;
},
{
glyphname = acircumflex;
kernLeft = a;
kernRight = a;
layers = (
{
layerId = m01;
shapes = (
{
closed = 1;
nodes = (
(331,9,ls),
(331,3,o),
(333,0,o),
(339,0,cs),
(398,0,ls),
(404,0,o),
(405,3,o),
(405,9,cs),
(405,359,ls),
(405,366,o),
(404,368,o),
(398,368,cs),
(393,368,ls),
(362,368,o),
(341,354,o),
(335,319,c),
(311,353,o),
(268,377,o),
(212,377,cs),
(108,377,o),
(37,295,o),
(37,184,cs),
(37,78,o),
(99,-9,o),
(209,-9,cs),
(259,-9,o),
(302,10,o),
(331,52,c)
);
},
{
closed = 1;
nodes = (
(172,61,o),
(114,94,o),
(114,184,cs),
(114,266,o),
(165,306,o),
(223,306,cs),
(269,306,o),
(331,282,o),
(331,184,cs),
(331,87,o),
(269,61,o),
(220,61,cs)
);
},
{
closed = 1;
nodes = (
(269,442,ls),
(278,433,o),
(286,430,o),
(298,430,cs),
(345,430,ls),
(350,430,o),
(351,436,o),
(349,439,c),
(279,506,ls),
(271,514,o),
(267,516,o),
(255,516,cs),
(201,516,ls),
(190,516,o),
(185,514,o),
(176,506,cs),
(108,439,l),
(104,436,o),
(106,430,o),
(112,430,cs),
(159,430,ls),
(171,430,o),
(180,433,o),
(188,442,cs),
(228,485,l)
);
}
);
width = 459;
}
);
note = acircumflex;
unicode = 226;
},
{
glyphname = atilde;
kernLeft = a;
kernRight = a;
layers = (
{
layerId = m01;
shapes = (
{
closed = 1;
nodes = (
(331,9,ls),
(331,3,o),
(333,0,o),
(339,0,cs),
(398,0,ls),
(404,0,o),
(405,3,o),
(405,9,cs),
(405,359,ls),
(405,366,o),
(404,368,o),
(398,368,cs),
(393,368,ls),
(362,368,o),
(341,354,o),
(335,319,c),
(311,353,o),
(268,377,o),
(212,377,cs),
(108,377,o),
(37,295,o),
(37,184,cs),
(37,78,o),
(99,-9,o),
(209,-9,cs),
(259,-9,o),
(302,10,o),
(331,52,c)
);
},
{
closed = 1;
nodes = (
(172,61,o),
(114,94,o),
(114,184,cs),
(114,266,o),
(165,306,o),
(223,306,cs),
(269,306,o),
(331,282,o),
(331,184,cs),
(331,87,o),
(269,61,o),
(220,61,cs)
);
},
{
closed = 1;
nodes = (
(345,508,o),
(341,512,o),
(336,512,cs),
(302,512,ls),
(297,512,o),
(293,509,o),
(291,502,cs),
(288,490,o),
(283,484,o),
(271,484,cs),
(244,484,o),
(209,513,o),
(170,513,cs),
(133,513,o),
(111,486,o),
(108,438,cs),
(108,432,o),
(110,429,o),
(116,429,cs),
(151,429,ls),
(156,429,o),
(159,432,o),
(160,439,cs),
(162,450,o),
(167,458,o),
(180,458,cs),
(204,458,o),
(241,430,o),
(276,430,cs),
(318,430,o),
(340,455,o),
(345,503,cs)
);
}
);
width = 459;
}
);
note = atilde;
unicode = 227;
},
{
glyphname = adieresis;
kernLeft = a;
kernRight = a;
layers = (
{
layerId = m01;
shapes = (
{
closed = 1;
nodes = (
(331,9,ls),
(331,3,o),
(333,0,o),
(339,0,cs),
(398,0,ls),
(404,0,o),
(405,3,o),
(405,9,cs),
(405,359,ls),
(405,366,o),
(404,368,o),
(398,368,cs),
(393,368,ls),
(362,368,o),
(341,354,o),
(335,319,c),
(311,353,o),
(268,377,o),
(212,377,cs),
(108,377,o),
(37,295,o),
(37,184,cs),
(37,78,o),
(99,-9,o),
(209,-9,cs),
(259,-9,o),
(302,10,o),
(331,52,c)
);
},
{
closed = 1;
nodes = (
(172,61,o),
(114,94,o),
(114,184,cs),
(114,266,o),
(165,306,o),
(223,306,cs),
(269,306,o),
(331,282,o),
(331,184,cs),
(331,87,o),
(269,61,o),
(220,61,cs)
);
},
{
closed = 1;
nodes = (
(107,442,o),
(127,422,o),
(151,422,cs),
(176,422,o),
(196,442,o),
(196,467,cs),
(196,493,o),
(176,513,o),
(151,513,cs),
(127,513,o),
(107,493,o),
(107,467,cs)
);
},
{
closed = 1;
nodes = (
(243,442,o),
(263,422,o),
(288,422,cs),
(313,422,o),
(333,442,o),
(333,467,cs),
(333,493,o),
(313,513,o),
(288,513,cs),
(263,513,o),
(243,493,o),
(243,467,cs)
);
}
);
width = 459;
}
);
note = adieresis;
unicode = 228;
},
{
glyphname = aring;
kernLeft = a;
kernRight = a;
layers = (
{
layerId = m01;
shapes = (
{
closed = 1;
nodes = (
(331,9,ls),
(331,3,o),
(333,0,o),
(339,0,cs),
(398,0,ls),
(404,0,o),
(405,3,o),
(405,9,cs),
(405,359,ls),
(405,366,o),
(404,368,o),
(398,368,cs),
(393,368,ls),
(362,368,o),
(341,354,o),
(335,319,c),
(311,353,o),
(268,377,o),
(212,377,cs),
(108,377,o),
(37,295,o),
(37,184,cs),
(37,78,o),
(99,-9,o),
(209,-9,cs),
(259,-9,o),
(302,10,o),
(331,52,c)
);
},
{
closed = 1;
nodes = (
(172,61,o),
(114,94,o),
(114,184,cs),
(114,266,o),
(165,306,o),
(223,306,cs),
(269,306,o),
(331,282,o),
(331,184,cs),
(331,87,o),
(269,61,o),
(220,61,cs)
);
},
{
closed = 1;
nodes = (
(149,450,o),
(181,419,o),
(220,419,cs),
(258,419,o),
(290,450,o),
(290,489,cs),
(290,528,o),
(258,559,o),
(220,559,cs),
(181,559,o),
(149,528,o),
(149,489,cs)
);
},
{
closed = 1;
nodes = (
(201,455,o),
(186,470,o),
(186,489,cs),
(186,509,o),
(201,524,o),
(220,524,cs),
(238,524,o),
(253,509,o),
(253,489,cs),
(253,470,o),
(238,455,o),
(220,455,cs)
);
}
);
width = 459;
}
);
note = aring;
unicode = 229;
},
{
glyphname = ae;
kernLeft = a;
kernRight = e;
layers = (
{
layerId = m01;
shapes = (
{
closed = 1;
nodes = (
(441,9,o),
(492,-9,o),
(546,-9,cs),
(642,-9,o),
(689,46,o),
(689,87,cs),
(689,94,o),
(687,101,o),
(680,101,cs),
(675,101,o),
(671,97,o),
(666,93,cs),
(639,73,o),
(611,56,o),
(555,56,cs),
(489,56,o),
(441,87,o),
(434,157,c),
(679,157,ls),
(688,157,o),
(693,160,o),
(694,169,cs),
(695,179,o),
(696,192,o),
(696,209,cs),
(696,294,o),
(651,377,o),
(534,377,cs),
(480,377,o),
(436,355,o),
(406,319,c),
(406,360,ls),
(406,366,o),
(404,368,o),
(398,368,cs),
(395,368,ls),
(363,368,o),
(342,353,o),
(337,319,c),
(312,353,o),
(270,377,o),
(213,377,cs),
(109,377,o),
(38,295,o),
(38,184,cs),
(38,78,o),
(101,-9,o),
(210,-9,cs),
(260,-9,o),
(305,10,o),
(333,52,c),
(333,9,ls),
(333,3,o),
(336,0,o),
(341,0,cs),
(398,0,ls),
(404,0,o),
(406,3,o),
(406,9,cs),
(406,49,l)
);
},
{
closed = 1;
nodes = (
(173,61,o),
(115,94,o),
(115,184,cs),
(115,266,o),
(166,306,o),
(224,306,cs),
(270,306,o),
(332,282,o),
(332,184,cs),
(332,87,o),
(271,61,o),
(221,61,cs)
);
},
{
closed = 1;
nodes = (
(441,276,o),
(477,312,o),
(534,312,cs),
(606,312,o),
(624,259,o),
(621,214,c),
(434,214,l)
);
}
);
width = 731;
}
);
note = ae;
unicode = 230;
},
{
glyphname = ccedilla;
kernLeft = c;
kernRight = c;
layers = (
{
layerId = m01;
shapes = (
{
closed = 1;
nodes = (
(311,3,o),
(344,49,o),
(344,86,cs),
(344,94,o),
(341,101,o),
(334,101,cs),
(330,101,o),
(325,97,o),
(322,94,cs),
(304,76,o),
(275,57,o),
(231,57,cs),
(156,57,o),
(115,104,o),
(115,182,cs),
(115,262,o),
(160,307,o),
(223,307,cs),
(260,307,o),
(282,299,o),
(312,283,cs),
(315,281,o),
(318,280,o),
(320,280,cs),
(324,280,o),
(326,283,o),
(327,288,cs),
(332,307,ls),
(339,333,o),
(331,351,o),
(304,362,cs),
(279,372,o),
(254,377,o),
(220,377,cs),
(112,377,o),
(38,300,o),
(38,183,cs),
(38,77,o),
(94,7,o),
(180,-7,c),
(127,-89,ls),
(125,-93,o),
(126,-98,o),
(131,-98,cs),
(181,-98,ls),
(193,-98,o),
(200,-97,o),
(205,-87,cs),
(245,-8,l)
);
}
);
width = 363;
}
);
note = ccedilla;
unicode = 231;
},
{
glyphname = egrave;
kernLeft = e;
kernRight = e;
layers = (
{
layerId = m01;
shapes = (
{
closed = 1;
nodes = (
(359,157,ls),
(369,157,o),
(373,160,o),
(374,169,cs),
(375,179,o),
(376,191,o),
(376,208,cs),
(376,294,o),
(329,377,o),
(212,377,cs),
(108,377,o),
(37,296,o),
(37,184,cs),
(37,51,o),
(126,-9,o),
(224,-9,cs),
(320,-9,o),
(370,44,o),
(370,87,cs),
(370,94,o),
(367,101,o),
(360,101,cs),
(356,101,o),
(351,96,o),
(346,93,cs),
(318,73,o),
(289,56,o),
(233,56,cs),
(164,56,o),
(119,87,o),
(111,157,c)
);
},
{
closed = 1;
nodes = (
(119,275,o),
(155,311,o),
(211,311,cs),
(284,311,o),
(304,259,o),
(302,214,c),
(113,214,l)
);
},
{
closed = 1;
nodes = (
(206,506,ls),
(199,513,o),
(194,516,o),
(181,516,cs),
(117,516,ls),
(111,516,o),
(109,510,o),
(113,507,cs),
(195,441,ls),
(204,433,o),
(211,430,o),
(224,430,cs),
(276,430,ls),
(282,430,o),
(284,436,o),
(280,439,cs)
);
}
);
width = 412;
}
);
note = egrave;
unicode = 232;
},
{
glyphname = eacute;
kernLeft = e;
kernRight = e;
layers = (
{
layerId = m01;
shapes = (
{
closed = 1;
nodes = (
(359,157,ls),
(369,157,o),
(373,160,o),
(374,169,cs),
(375,179,o),
(376,191,o),
(376,208,cs),
(376,294,o),
(329,377,o),
(212,377,cs),
(108,377,o),
(37,296,o),
(37,184,cs),
(37,51,o),
(126,-9,o),
(224,-9,cs),
(320,-9,o),
(370,44,o),
(370,87,cs),
(370,94,o),
(367,101,o),
(360,101,cs),
(356,101,o),
(351,96,o),
(346,93,cs),
(318,73,o),
(289,56,o),
(233,56,cs),
(164,56,o),
(119,87,o),
(111,157,c)
);
},
{
closed = 1;
nodes = (
(119,275,o),
(155,311,o),
(211,311,cs),
(284,311,o),
(304,259,o),
(302,214,c),
(113,214,l)
);
},
{
closed = 1;
nodes = (
(126,436,o),
(128,430,o),
(134,430,cs),
(186,430,ls),
(198,430,o),
(206,433,o),
(215,441,cs),
(296,507,l),
(301,510,o),
(299,516,o),
(293,516,cs),
(227,516,ls),
(216,516,o),
(211,513,o),
(203,506,cs),
(130,439,ls)
);
}
);
width = 412;
}
);
note = eacute;
unicode = 233;
},
{
glyphname = ecircumflex;
kernLeft = e;
kernRight = e;
layers = (
{
layerId = m01;
shapes = (
{
closed = 1;
nodes = (
(359,157,ls),
(369,157,o),
(373,160,o),
(374,169,cs),
(375,179,o),
(376,191,o),
(376,208,cs),
(376,294,o),
(329,377,o),
(212,377,cs),
(108,377,o),
(37,296,o),
(37,184,cs),
(37,51,o),
(126,-9,o),
(224,-9,cs),
(320,-9,o),
(370,44,o),
(370,87,cs),
(370,94,o),
(367,101,o),
(360,101,cs),
(356,101,o),
(351,96,o),
(346,93,cs),
(318,73,o),
(289,56,o),
(233,56,cs),
(164,56,o),
(119,87,o),
(111,157,c)
);
},
{
closed = 1;
nodes = (
(119,275,o),
(155,311,o),
(211,311,cs),
(284,311,o),
(304,259,o),
(302,214,c),
(113,214,l)
);
},
{
closed = 1;
nodes = (
(255,442,ls),
(264,433,o),
(272,430,o),
(284,430,cs),
(331,430,ls),
(336,430,o),
(338,436,o),
(335,439,cs),
(265,506,ls),
(257,514,o),
(253,516,o),
(241,516,cs),
(188,516,ls),
(176,516,o),
(171,514,o),
(163,506,cs),
(94,439,l),
(90,436,o),
(92,430,o),
(98,430,cs),
(145,430,ls),
(157,430,o),
(166,433,o),
(174,442,cs),
(214,485,l)
);
}
);
width = 412;
}
);
note = ecircumflex;
unicode = 234;
},
{
glyphname = edieresis;
kernLeft = e;
kernRight = e;
layers = (
{
layerId = m01;
shapes = (
{
closed = 1;
nodes = (
(359,157,ls),
(369,157,o),
(373,160,o),
(374,169,cs),
(375,179,o),
(376,191,o),
(376,208,cs),
(376,294,o),
(329,377,o),
(212,377,cs),
(108,377,o),
(37,296,o),
(37,184,cs),
(37,51,o),
(126,-9,o),
(224,-9,cs),
(320,-9,o),
(370,44,o),
(370,87,cs),
(370,94,o),
(367,101,o),
(360,101,cs),
(356,101,o),
(351,96,o),
(346,93,cs),
(318,73,o),
(289,56,o),
(233,56,cs),
(164,56,o),
(119,87,o),
(111,157,c)
);
},
{
closed = 1;
nodes = (
(119,275,o),
(155,311,o),
(211,311,cs),
(284,311,o),
(304,259,o),
(302,214,c),
(113,214,l)
);
},
{
closed = 1;
nodes = (
(100,442,o),
(120,422,o),
(145,422,cs),
(170,422,o),
(190,442,o),
(190,467,cs),
(190,493,o),
(170,513,o),
(145,513,cs),
(120,513,o),
(100,493,o),
(100,467,cs)
);
},
{
closed = 1;
nodes = (
(236,442,o),
(256,422,o),
(281,422,cs),
(306,422,o),
(326,442,o),
(326,467,cs),
(326,493,o),
(306,513,o),
(281,513,cs),
(256,513,o),
(236,493,o),
(236,467,cs)
);
}
);
width = 412;
}
);
note = edieresis;
unicode = 235;
},
{
glyphname = igrave;
kernLeft = i;
kernRight = i;
layers = (
{
layerId = m01;
shapes = (
{
closed = 1;
nodes = (
(121,0,ls),
(126,0,o),
(129,3,o),
(129,9,cs),
(129,299,ls),
(129,346,o),
(106,368,o),
(67,368,cs),
(62,368,ls),
(56,368,o),
(54,366,o),
(54,359,cs),
(54,9,ls),
(54,3,o),
(56,0,o),
(62,0,cs)
);
},
{
closed = 1;
nodes = (
(100,506,ls),
(92,513,o),
(87,516,o),
(75,516,cs),
(11,516,ls),
(5,516,o),
(3,510,o),
(7,507,cs),
(89,441,l),
(97,433,o),
(105,430,o),
(117,430,cs),
(170,430,ls),
(176,430,o),
(178,436,o),
(174,439,cs)
);
}
);
width = 180;
}
);
note = igrave;
unicode = 236;
},
{
glyphname = iacute;
kernLeft = i;
kernRight = i;
layers = (
{
layerId = m01;
shapes = (
{
closed = 1;
nodes = (
(121,0,ls),
(127,0,o),
(129,3,o),
(129,9,cs),
(129,299,ls),
(129,346,o),
(106,368,o),
(67,368,cs),
(62,368,ls),
(56,368,o),
(55,366,o),
(55,359,cs),
(55,9,ls),
(55,3,o),
(56,0,o),
(62,0,cs)
);
},
{
closed = 1;
nodes = (
(3,436,o),
(5,430,o),
(11,430,cs),
(64,430,ls),
(75,430,o),
(84,433,o),
(92,441,c),
(174,507,ls),
(178,510,o),
(176,516,o),
(170,516,cs),
(104,516,ls),
(94,516,o),
(89,513,o),
(80,506,cs),
(7,439,ls)
);
}
);
width = 180;
}
);
note = iacute;
unicode = 237;
},
{
glyphname = icircumflex;
kernLeft = i;
kernRight = i;
layers = (
{
layerId = m01;
shapes = (
{
closed = 1;
nodes = (
(120,0,ls),
(126,0,o),
(128,3,o),
(128,9,cs),
(128,299,ls),
(128,346,o),
(105,368,o),
(67,368,cs),
(62,368,ls),
(55,368,o),
(54,366,o),
(54,359,cs),
(54,9,ls),
(54,3,o),
(55,0,o),
(62,0,cs)
);
},
{
closed = 1;
nodes = (
(131,442,ls),
(140,433,o),
(148,430,o),
(160,430,cs),
(207,430,ls),
(212,430,o),
(213,436,o),
(210,439,cs),
(141,506,ls),
(133,514,o),
(129,516,o),
(117,516,cs),
(63,516,ls),
(52,516,o),
(47,514,o),
(38,506,cs),
(-30,439,l),
(-34,436,o),
(-32,430,o),
(-26,430,cs),
(20,430,ls),
(33,430,o),
(42,433,o),
(49,442,c),
(90,485,l)
);
}
);
width = 180;
}
);
note = icircumflex;
unicode = 238;
},
{
glyphname = idieresis;
kernLeft = i;
kernRight = i;
layers = (
{
layerId = m01;
shapes = (
{
closed = 1;
nodes = (
(119,0,ls),
(125,0,o),
(127,3,o),
(127,9,cs),
(127,299,ls),
(127,346,o),
(104,368,o),
(65,368,cs),
(60,368,ls),
(54,368,o),
(53,366,o),
(53,359,cs),
(53,9,ls),
(53,3,o),
(54,0,o),
(60,0,cs)
);
},
{
closed = 1;
nodes = (
(-23,442,o),
(-3,422,o),
(21,422,cs),
(46,422,o),
(66,442,o),
(66,467,cs),
(66,493,o),
(46,513,o),
(21,513,cs),
(-3,513,o),
(-23,493,o),
(-23,467,cs)
);
},
{
closed = 1;
nodes = (
(113,442,o),
(133,422,o),
(158,422,cs),
(183,422,o),
(203,442,o),
(203,467,cs),
(203,493,o),
(183,513,o),
(158,513,cs),
(133,513,o),
(113,493,o),
(113,467,cs)
);
}
);
width = 180;
}
);
note = idieresis;
unicode = 239;
},
{
glyphname = eth;
layers = (
{
layerId = m01;
shapes = (
{
closed = 1;
nodes = (
(236,368,o),
(225,369,o),
(214,369,cs),
(99,369,o),
(38,282,o),
(38,173,cs),
(38,62,o),
(114,-9,o),
(223,-9,cs),
(349,-9,o),
(407,78,o),
(407,195,cs),
(407,242,o),
(389,284,o),
(361,322,cs),
(256,472,l),
(306,499,ls),
(311,502,o),
(311,505,o),
(309,510,c),
(291,534,l),
(289,539,o),
(285,541,o),
(280,538,cs),
(228,511,l),
(220,522,ls),
(201,548,o),
(182,556,o),
(144,556,cs),
(124,556,ls),
(117,556,o),
(116,551,o),
(119,547,cs),
(166,479,l),
(106,447,ls),
(101,444,o),
(99,442,o),
(102,436,c),
(120,412,l),
(122,407,o),
(126,406,o),
(130,407,c),
(193,441,l),
(246,367,l)
);
},
{
closed = 1;
nodes = (
(158,59,o),
(114,101,o),
(114,179,cs),
(114,257,o),
(158,300,o),
(222,300,cs),
(284,300,o),
(331,257,o),
(331,179,cs),
(331,99,o),
(285,59,o),
(221,59,cs)
);
}
);
width = 444;
}
);
note = eth;
unicode = 240;
},
{
glyphname = ntilde;
kernLeft = n;
kernRight = n;
layers = (
{
layerId = m01;
shapes = (
{
closed = 1;
nodes = (
(119,350,o),
(96,368,o),
(65,368,cs),
(60,368,ls),
(54,368,o),
(52,366,o),
(52,359,cs),
(52,9,ls),
(52,3,o),
(54,0,o),
(60,0,cs),
(119,0,ls),
(124,0,o),
(126,3,o),
(126,9,cs),
(126,198,ls),
(126,272,o),
(163,307,o),
(223,307,cs),
(279,307,o),
(315,272,o),
(315,202,cs),
(315,9,ls),
(315,3,o),
(317,0,o),
(323,0,cs),
(382,0,ls),
(388,0,o),
(390,3,o),
(390,9,cs),
(390,216,ls),
(390,315,o),
(333,376,o),
(240,376,cs),
(186,376,o),
(145,351,o),
(124,318,c)
);
},
{
closed = 1;
nodes = (
(339,508,o),
(335,512,o),
(330,512,cs),
(296,512,ls),
(291,512,o),
(287,509,o),
(285,502,cs),
(282,490,o),
(277,484,o),
(265,484,cs),
(238,484,o),
(203,513,o),
(164,513,cs),
(127,513,o),
(105,486,o),
(102,438,cs),
(102,432,o),
(104,429,o),
(110,429,cs),
(145,429,ls),
(150,429,o),
(153,432,o),
(154,439,cs),
(156,450,o),
(161,458,o),
(174,458,cs),
(198,458,o),
(235,430,o),
(270,430,cs),
(311,430,o),
(334,455,o),
(339,503,cs)
);
}
);
width = 441;
}
);
note = ntilde;
unicode = 241;
},
{
glyphname = ograve;
kernLeft = o;
kernRight = o;
layers = (
{
layerId = m01;
shapes = (
{
closed = 1;
nodes = (
(336,-9,o),
(409,68,o),
(409,184,cs),
(409,299,o),
(335,377,o),
(222,377,cs),
(110,377,o),
(37,299,o),
(37,183,cs),
(37,67,o),
(110,-9,o),
(223,-9,cs)
);
},
{
closed = 1;
nodes = (
(158,62,o),
(114,104,o),
(114,183,cs),
(114,261,o),
(158,306,o),
(222,306,cs),
(284,306,o),
(332,261,o),
(332,183,cs),
(332,102,o),
(284,62,o),
(222,62,cs)
);
},
{
closed = 1;
nodes = (
(228,506,ls),
(220,513,o),
(215,516,o),
(203,516,cs),
(139,516,ls),
(133,516,o),
(131,510,o),
(135,507,cs),
(216,441,ls),
(225,433,o),
(233,430,o),
(245,430,cs),
(298,430,ls),
(304,430,o),
(306,436,o),
(301,439,c)
);
}
);
width = 447;
}
);
note = ograve;
unicode = 242;
},
{
glyphname = oacute;
kernLeft = o;
kernRight = o;
layers = (
{
layerId = m01;
shapes = (
{
closed = 1;
nodes = (
(336,-9,o),
(409,68,o),
(409,184,cs),
(409,299,o),
(335,377,o),
(222,377,cs),
(110,377,o),
(37,299,o),
(37,183,cs),
(37,67,o),
(110,-9,o),
(223,-9,cs)
);
},
{
closed = 1;
nodes = (
(158,62,o),
(114,104,o),
(114,183,cs),
(114,261,o),
(158,306,o),
(222,306,cs),
(284,306,o),
(332,261,o),
(332,183,cs),
(332,102,o),
(284,62,o),
(222,62,cs)
);
},
{
closed = 1;
nodes = (
(138,436,o),
(140,430,o),
(146,430,cs),
(199,430,ls),
(210,430,o),
(219,433,o),
(228,441,cs),
(309,507,ls),
(313,510,o),
(311,516,o),
(305,516,cs),
(239,516,ls),
(229,516,o),
(224,513,o),
(215,506,cs),
(142,439,ls)
);
}
);
width = 447;
}
);
note = oacute;
unicode = 243;
},
{
glyphname = ocircumflex;
kernLeft = o;
kernRight = o;
layers = (
{
layerId = m01;
shapes = (
{
closed = 1;
nodes = (
(336,-9,o),
(409,68,o),
(409,184,cs),
(409,299,o),
(335,377,o),
(222,377,cs),
(110,377,o),
(37,299,o),
(37,183,cs),
(37,67,o),
(110,-9,o),
(223,-9,cs)
);
},
{
closed = 1;
nodes = (
(158,62,o),
(114,104,o),
(114,183,cs),
(114,261,o),
(158,306,o),
(222,306,cs),
(284,306,o),
(332,261,o),
(332,183,cs),
(332,102,o),
(284,62,o),
(222,62,cs)
);
},
{
closed = 1;
nodes = (
(264,442,ls),
(273,433,o),
(281,430,o),
(293,430,cs),
(340,430,ls),
(345,430,o),
(346,436,o),
(344,439,c),
(274,506,ls),
(266,514,o),
(262,516,o),
(250,516,cs),
(196,516,ls),
(185,516,o),
(180,514,o),
(171,506,cs),
(103,439,l),
(99,436,o),
(101,430,o),
(107,430,cs),
(154,430,ls),
(166,430,o),
(175,433,o),
(183,442,cs),
(223,485,l)
);
}
);
width = 447;
}
);
note = ocircumflex;
unicode = 244;
},
{
glyphname = otilde;
kernLeft = o;
kernRight = o;
layers = (
{
layerId = m01;
shapes = (
{
closed = 1;
nodes = (
(336,-9,o),
(409,68,o),
(409,184,cs),
(409,299,o),
(335,377,o),
(222,377,cs),
(110,377,o),
(37,299,o),
(37,183,cs),
(37,67,o),
(110,-9,o),
(223,-9,cs)
);
},
{
closed = 1;
nodes = (
(158,62,o),
(114,104,o),
(114,183,cs),
(114,261,o),
(158,306,o),
(222,306,cs),
(284,306,o),
(332,261,o),
(332,183,cs),
(332,102,o),
(284,62,o),
(222,62,cs)
);
},
{
closed = 1;
nodes = (
(339,508,o),
(335,512,o),
(330,512,cs),
(296,512,ls),
(291,512,o),
(287,509,o),
(285,502,cs),
(282,490,o),
(277,484,o),
(265,484,cs),
(238,484,o),
(203,513,o),
(164,513,cs),
(127,513,o),
(105,486,o),
(102,438,cs),
(102,432,o),
(104,429,o),
(110,429,cs),
(145,429,ls),
(150,429,o),
(153,432,o),
(154,439,cs),
(156,450,o),
(161,458,o),
(174,458,cs),
(198,458,o),
(235,430,o),
(270,430,cs),
(311,430,o),
(334,455,o),
(339,503,cs)
);
}
);
width = 447;
}
);
note = otilde;
unicode = 245;
},
{
glyphname = odieresis;
kernLeft = o;
kernRight = o;
layers = (
{
layerId = m01;
shapes = (
{
closed = 1;
nodes = (
(336,-9,o),
(409,68,o),
(409,184,cs),
(409,299,o),
(335,377,o),
(222,377,cs),
(110,377,o),
(37,299,o),
(37,183,cs),
(37,67,o),
(110,-9,o),
(223,-9,cs)
);
},
{
closed = 1;
nodes = (
(158,62,o),
(114,104,o),
(114,183,cs),
(114,261,o),
(158,306,o),
(222,306,cs),
(284,306,o),
(332,261,o),
(332,183,cs),
(332,102,o),
(284,62,o),
(222,62,cs)
);
},
{
closed = 1;
nodes = (
(110,442,o),
(130,422,o),
(155,422,cs),
(180,422,o),
(200,442,o),
(200,467,cs),
(200,493,o),
(180,513,o),
(155,513,cs),
(130,513,o),
(110,493,o),
(110,467,cs)
);
},
{
closed = 1;
nodes = (
(246,442,o),
(266,422,o),
(291,422,cs),
(316,422,o),
(336,442,o),
(336,467,cs),
(336,493,o),
(316,513,o),
(291,513,cs),
(266,513,o),
(246,493,o),
(246,467,cs)
);
}
);
width = 447;
}
);
note = odieresis;
unicode = 246;
},
{
glyphname = divide;
layers = (
{
layerId = m01;
shapes = (
{
closed = 1;
nodes = (
(358,238,ls),
(364,238,o),
(366,242,o),
(366,247,cs),
(366,257,ls),
(366,285,o),
(348,304,o),
(315,304,cs),
(45,304,ls),
(39,304,o),
(37,301,o),
(37,295,cs),
(37,247,ls),
(37,242,o),
(39,238,o),
(45,238,cs)
);
},
{
closed = 1;
nodes = (
(158,381,o),
(178,362,o),
(201,362,cs),
(225,362,o),
(244,381,o),
(244,404,cs),
(244,429,o),
(225,448,o),
(201,448,cs),
(178,448,o),
(158,429,o),
(158,404,cs)
);
},
{
closed = 1;
nodes = (
(158,113,o),
(178,94,o),
(201,94,cs),
(225,94,o),
(244,113,o),
(244,137,cs),
(244,161,o),
(225,181,o),
(201,181,cs),
(178,181,o),
(158,161,o),
(158,137,cs)
);
}
);
width = 403;
}
);
note = divide;
unicode = 247;
},
{
glyphname = oslash;
kernLeft = o;
kernRight = o;
layers = (
{
layerId = m01;
shapes = (
{
closed = 1;
nodes = (
(125,116,o),
(115,146,o),
(115,183,cs),
(115,262,o),
(159,306,o),
(223,306,cs),
(241,306,o),
(257,302,o),
(271,294,c),
(144,96,l)
);
},
{
closed = 1;
nodes = (
(325,238,o),
(333,213,o),
(333,183,cs),
(333,102,o),
(285,61,o),
(223,61,cs),
(211,61,o),
(200,62,o),
(190,66,c),
(312,257,l)
);
},
{
closed = 1;
nodes = (
(337,-9,o),
(410,68,o),
(410,184,cs),
(410,299,o),
(336,377,o),
(223,377,cs),
(111,377,o),
(38,299,o),
(38,183,cs),
(38,67,o),
(111,-9,o),
(224,-9,cs)
);
}
);
width = 447;
}
);
note = oslash;
unicode = 248;
},
{
glyphname = ugrave;
kernLeft = u;
kernRight = u;
layers = (
{
layerId = m01;
shapes = (
{
closed = 1;
nodes = (
(322,-10,o),
(378,57,o),
(378,167,cs),
(378,299,ls),
(378,346,o),
(356,368,o),
(316,368,cs),
(311,368,ls),
(306,368,o),
(303,366,o),
(303,359,cs),
(303,161,ls),
(303,88,o),
(267,59,o),
(213,59,cs),
(158,59,o),
(123,93,o),
(123,164,cs),
(123,299,ls),
(123,346,o),
(101,368,o),
(62,368,cs),
(57,368,ls),
(51,368,o),
(49,366,o),
(49,359,cs),
(49,172,ls),
(49,59,o),
(103,-10,o),
(213,-10,cs)
);
},
{
closed = 1;
nodes = (
(208,506,ls),
(201,513,o),
(196,516,o),
(183,516,cs),
(119,516,ls),
(113,516,o),
(111,510,o),
(115,507,cs),
(197,441,ls),
(206,433,o),
(213,430,o),
(226,430,cs),
(278,430,ls),
(284,430,o),
(286,436,o),
(282,439,cs)
);
}
);
width = 432;
}
);
note = ugrave;
unicode = 249;
},
{
glyphname = uacute;
kernLeft = u;
kernRight = u;
layers = (
{
layerId = m01;
shapes = (
{
closed = 1;
nodes = (
(322,-10,o),
(378,57,o),
(378,167,cs),
(378,299,ls),
(378,346,o),
(356,368,o),
(316,368,cs),
(311,368,ls),
(306,368,o),
(303,366,o),
(303,359,cs),
(303,161,ls),
(303,88,o),
(267,59,o),
(213,59,cs),
(158,59,o),
(123,93,o),
(123,164,cs),
(123,299,ls),
(123,346,o),
(101,368,o),
(62,368,cs),
(57,368,ls),
(51,368,o),
(49,366,o),
(49,359,cs),
(49,172,ls),
(49,59,o),
(103,-10,o),
(213,-10,cs)
);
},
{
closed = 1;
nodes = (
(127,436,o),
(128,430,o),
(135,430,cs),
(187,430,ls),
(199,430,o),
(207,433,o),
(216,441,cs),
(297,507,l),
(302,510,o),
(300,516,o),
(293,516,cs),
(228,516,ls),
(217,516,o),
(212,513,o),
(204,506,cs),
(131,439,ls)
);
}
);
width = 432;
}
);
note = uacute;
unicode = 250;
},
{
glyphname = ucircumflex;
kernLeft = u;
kernRight = u;
layers = (
{
layerId = m01;
shapes = (
{
closed = 1;
nodes = (
(322,-10,o),
(378,57,o),
(378,167,cs),
(378,299,ls),
(378,346,o),
(356,368,o),
(316,368,cs),
(311,368,ls),
(306,368,o),
(303,366,o),
(303,359,cs),
(303,161,ls),
(303,88,o),
(267,59,o),
(213,59,cs),
(158,59,o),
(123,93,o),
(123,164,cs),
(123,299,ls),
(123,346,o),
(101,368,o),
(62,368,cs),
(57,368,ls),
(51,368,o),
(49,366,o),
(49,359,cs),
(49,172,ls),
(49,59,o),
(103,-10,o),
(213,-10,cs)
);
},
{
closed = 1;
nodes = (
(251,442,ls),
(260,433,o),
(268,430,o),
(280,430,cs),
(327,430,ls),
(332,430,o),
(333,436,o),
(331,439,c),
(261,506,ls),
(253,514,o),
(249,516,o),
(237,516,cs),
(183,516,ls),
(172,516,o),
(167,514,o),
(158,506,cs),
(90,439,l),
(86,436,o),
(88,430,o),
(94,430,cs),
(141,430,ls),
(153,430,o),
(162,433,o),
(170,442,cs),
(210,485,l)
);
}
);
width = 432;
}
);
note = ucircumflex;
unicode = 251;
},
{
glyphname = udieresis;
kernLeft = u;
kernRight = u;
layers = (
{
layerId = m01;
shapes = (
{
closed = 1;
nodes = (
(322,-10,o),
(378,57,o),
(378,167,cs),
(378,299,ls),
(378,346,o),
(356,368,o),
(316,368,cs),
(311,368,ls),
(306,368,o),
(303,366,o),
(303,359,cs),
(303,161,ls),
(303,88,o),
(267,59,o),
(213,59,cs),
(158,59,o),
(123,93,o),
(123,164,cs),
(123,299,ls),
(123,346,o),
(101,368,o),
(62,368,cs),
(57,368,ls),
(51,368,o),
(49,366,o),
(49,359,cs),
(49,172,ls),
(49,59,o),
(103,-10,o),
(213,-10,cs)
);
},
{
closed = 1;
nodes = (
(101,442,o),
(121,422,o),
(146,422,cs),
(171,422,o),
(191,442,o),
(191,467,cs),
(191,493,o),
(171,513,o),
(146,513,cs),
(121,513,o),
(101,493,o),
(101,467,cs)
);
},
{
closed = 1;
nodes = (
(237,442,o),
(257,422,o),
(282,422,cs),
(307,422,o),
(327,442,o),
(327,467,cs),
(327,493,o),
(307,513,o),
(282,513,cs),
(257,513,o),
(237,493,o),
(237,467,cs)
);
}
);
width = 432;
}
);
note = udieresis;
unicode = 252;
},
{
glyphname = yacute;
kernLeft = y;
kernRight = y;
layers = (
{
layerId = m01;
shapes = (
{
closed = 1;
nodes = (
(115,-84,o),
(99,-106,o),
(63,-106,cs),
(44,-106,o),
(29,-97,o),
(11,-82,cs),
(8,-79,o),
(6,-78,o),
(2,-78,cs),
(-5,-78,o),
(-8,-86,o),
(-8,-93,cs),
(-8,-131,o),
(25,-171,o),
(76,-171,cs),
(152,-171,o),
(182,-108,o),
(216,-9,cs),
(347,359,l),
(348,364,o),
(347,368,o),
(342,368,cs),
(287,368,ls),
(278,368,o),
(274,366,o),
(271,357,cs),
(183,88,l),
(111,306,ls),
(94,354,o),
(78,368,o),
(37,368,cs),
(20,368,ls),
(15,368,o),
(14,364,o),
(15,359,c),
(143,-7,l)
);
},
{
closed = 1;
nodes = (
(105,436,o),
(107,430,o),
(113,430,cs),
(166,430,ls),
(178,430,o),
(186,433,o),
(195,441,cs),
(276,507,ls),
(280,510,o),
(278,516,o),
(272,516,cs),
(206,516,ls),
(196,516,o),
(191,513,o),
(183,506,cs),
(109,439,ls)
);
}
);
width = 368;
}
);
note = yacute;
unicode = 253;
},
{
glyphname = thorn;
layers = (
{
layerId = m01;
shapes = (
{
closed = 1;
nodes = (
(154,9,o),
(200,-9,o),
(252,-9,cs),
(360,-9,o),
(422,77,o),
(422,184,cs),
(422,296,o),
(357,377,o),
(247,377,cs),
(193,377,o),
(151,353,o),
(127,320,c),
(127,487,ls),
(127,534,o),
(105,556,o),
(66,556,cs),
(61,556,ls),
(55,556,o),
(53,553,o),
(53,547,cs),
(53,-151,ls),
(53,-157,o),
(55,-160,o),
(61,-160,cs),
(120,-160,ls),
(125,-160,o),
(127,-157,o),
(127,-151,cs),
(127,49,l)
);
},
{
closed = 1;
nodes = (
(183,61,o),
(127,97,o),
(127,184,cs),
(127,274,o),
(181,306,o),
(236,306,cs),
(304,306,o),
(345,257,o),
(345,184,cs),
(345,104,o),
(295,61,o),
(238,61,cs)
);
}
);
width = 459;
}
);
note = thorn;
unicode = 254;
},
{
glyphname = ydieresis;
kernLeft = y;
kernRight = y;
layers = (
{
layerId = m01;
shapes = (
{
closed = 1;
nodes = (
(115,-84,o),
(99,-106,o),
(63,-106,cs),
(44,-106,o),
(29,-97,o),
(11,-82,cs),
(8,-79,o),
(6,-78,o),
(2,-78,cs),
(-5,-78,o),
(-8,-86,o),
(-8,-93,cs),
(-8,-131,o),
(25,-171,o),
(76,-171,cs),
(152,-171,o),
(182,-108,o),
(216,-9,cs),
(347,359,l),
(348,364,o),
(347,368,o),
(342,368,cs),
(287,368,ls),
(278,368,o),
(274,366,o),
(271,357,cs),
(183,88,l),
(111,306,ls),
(94,354,o),
(78,368,o),
(37,368,cs),
(20,368,ls),
(15,368,o),
(14,364,o),
(15,359,c),
(143,-7,l)
);
},
{
closed = 1;
nodes = (
(69,442,o),
(89,422,o),
(114,422,cs),
(139,422,o),
(159,442,o),
(159,467,cs),
(159,493,o),
(139,513,o),
(114,513,cs),
(89,513,o),
(69,493,o),
(69,467,cs)
);
},
{
closed = 1;
nodes = (
(205,442,o),
(225,422,o),
(250,422,cs),
(275,422,o),
(295,442,o),
(295,467,cs),
(295,493,o),
(275,513,o),
(250,513,cs),
(225,513,o),
(205,493,o),
(205,467,cs)
);
}
);
width = 368;
}
);
note = ydieresis;
unicode = 255;
},
{
glyphname = dotlessi;
kernLeft = r;
kernRight = i;
layers = (
{
layerId = m01;
shapes = (
{
closed = 1;
nodes = (
(119,0,ls),
(124,0,o),
(126,3,o),
(126,9,cs),
(126,299,ls),
(126,346,o),
(104,368,o),
(65,368,cs),
(60,368,ls),
(54,368,o),
(52,366,o),
(52,359,cs),
(52,9,ls),
(52,3,o),
(54,0,o),
(60,0,cs)
);
}
);
width = 180;
}
);
note = dotlessi;
unicode = 305;
},
{
glyphname = Lslash;
layers = (
{
layerId = m01;
shapes = (
{
closed = 1;
nodes = (
(149,246,l),
(285,318,ls),
(290,321,o),
(292,326,o),
(292,333,cs),
(292,383,ls),
(292,388,o),
(289,391,o),
(284,388,cs),
(149,315,l),
(149,485,ls),
(149,533,o),
(126,556,o),
(87,556,cs),
(81,556,ls),
(75,556,o),
(73,553,o),
(73,547,cs),
(73,273,l),
(27,248,l),
(21,246,o),
(18,241,o),
(18,234,cs),
(18,185,ls),
(18,180,o),
(22,177,o),
(28,180,cs),
(73,204,l),
(73,9,ls),
(73,3,o),
(75,0,o),
(81,0,cs),
(349,0,ls),
(356,0,o),
(360,4,o),
(360,11,cs),
(360,27,ls),
(360,54,o),
(345,71,o),
(315,71,cs),
(149,71,l)
);
}
);
width = 378;
}
);
note = Lslash;
unicode = 321;
},
{
glyphname = lslash;
layers = (
{
layerId = m01;
shapes = (
{
closed = 1;
nodes = (
(68,106,ls),
(68,26,o),
(104,-9,o),
(161,-9,cs),
(225,-9,o),
(247,43,o),
(247,76,cs),
(247,82,o),
(245,89,o),
(239,89,cs),
(235,89,o),
(232,87,o),
(229,83,cs),
(215,68,o),
(202,59,o),
(181,59,cs),
(155,59,o),
(142,78,o),
(142,111,cs),
(142,242,l),
(199,272,ls),
(205,276,o),
(208,280,o),
(208,286,cs),
(208,335,ls),
(208,340,o),
(203,343,o),
(198,340,cs),
(142,310,l),
(142,487,ls),
(142,534,o),
(120,556,o),
(81,556,cs),
(76,556,ls),
(70,556,o),
(68,553,o),
(68,547,cs),
(68,268,l),
(27,247,ls),
(21,244,o),
(18,238,o),
(18,233,cs),
(18,185,ls),
(18,180,o),
(22,177,o),
(28,180,cs),
(68,202,l)
);
}
);
width = 248;
}
);
note = lslash;
unicode = 322;
},
{
glyphname = OE;
kernLeft = O;
kernRight = E;
layers = (
{
layerId = m01;
shapes = (
{
closed = 1;
nodes = (
(549,242,l),
(753,242,ls),
(761,242,o),
(764,246,o),
(764,252,cs),
(764,268,ls),
(764,296,o),
(749,312,o),
(719,312,cs),
(549,312,l),
(549,485,l),
(772,485,ls),
(779,485,o),
(783,489,o),
(783,496,cs),
(783,513,ls),
(783,541,o),
(768,556,o),
(738,556,cs),
(482,556,ls),
(476,556,o),
(473,553,o),
(473,547,cs),
(473,489,l),
(434,538,o),
(375,567,o),
(301,567,cs),
(143,567,o),
(49,453,o),
(49,277,cs),
(49,101,o),
(142,-10,o),
(301,-10,cs),
(376,-10,o),
(434,18,o),
(473,67,c),
(473,9,ls),
(473,3,o),
(476,0,o),
(482,0,cs),
(781,0,ls),
(788,0,o),
(792,4,o),
(792,11,cs),
(792,27,ls),
(792,54,o),
(777,71,o),
(747,71,cs),
(549,71,l)
);
},
{
closed = 1;
nodes = (
(212,62,o),
(128,109,o),
(128,277,cs),
(128,444,o),
(212,495,o),
(301,495,cs),
(389,495,o),
(473,444,o),
(473,277,cs),
(473,109,o),
(389,62,o),
(301,62,cs)
);
}
);
width = 821;
}
);
note = OE;
unicode = 338;
},
{
glyphname = oe;
kernLeft = o;
kernRight = e;
layers = (
{
layerId = m01;
shapes = (
{
closed = 1;
nodes = (
(403,13,o),
(460,-9,o),
(517,-9,cs),
(614,-9,o),
(663,44,o),
(663,87,cs),
(663,94,o),
(660,101,o),
(653,101,cs),
(649,101,o),
(644,97,o),
(639,93,cs),
(611,73,o),
(582,56,o),
(526,56,cs),
(460,56,o),
(414,87,o),
(407,157,c),
(652,157,ls),
(662,157,o),
(667,160,o),
(668,169,cs),
(669,179,o),
(669,191,o),
(669,208,cs),
(669,294,o),
(622,377,o),
(505,377,cs),
(445,377,o),
(399,348,o),
(370,303,c),
(340,349,o),
(289,377,o),
(223,377,cs),
(111,377,o),
(38,299,o),
(38,183,cs),
(38,67,o),
(111,-9,o),
(224,-9,cs),
(290,-9,o),
(340,19,o),
(370,64,c)
);
},
{
closed = 1;
nodes = (
(159,61,o),
(115,104,o),
(115,183,cs),
(115,262,o),
(159,306,o),
(223,306,cs),
(285,306,o),
(333,262,o),
(333,183,cs),
(333,102,o),
(285,61,o),
(223,61,cs)
);
},
{
closed = 1;
nodes = (
(414,276,o),
(449,311,o),
(505,311,cs),
(577,311,o),
(596,259,o),
(595,214,c),
(407,214,l)
);
}
);
width = 704;
}
);
note = oe;
unicode = 339;
},
{
glyphname = Scaron;
kernLeft = S;
kernRight = S;
layers = (
{
layerId = m01;
shapes = (
{
closed = 1;
nodes = (
(21,68,o),
(80,-11,o),
(217,-11,cs),
(342,-11,o),
(416,58,o),
(416,159,cs),
(416,343,o),
(114,294,o),
(114,418,cs),
(114,468,o),
(160,498,o),
(223,498,cs),
(277,498,o),
(329,481,o),
(370,455,cs),
(377,451,o),
(380,449,o),
(385,449,cs),
(390,449,o),
(392,453,o),
(393,459,cs),
(398,479,ls),
(406,508,o),
(393,527,o),
(360,539,c),
(323,556,o),
(278,566,o),
(224,566,cs),
(116,566,o),
(37,507,o),
(37,414,cs),
(37,223,o),
(339,271,o),
(339,150,cs),
(339,94,o),
(291,59,o),
(209,59,cs),
(136,59,o),
(87,88,o),
(47,136,cs),
(43,141,o),
(39,143,o),
(34,143,cs),
(26,143,o),
(21,135,o),
(21,123,cs)
);
},
{
closed = 1;
nodes = (
(183,683,ls),
(174,692,o),
(167,693,o),
(154,693,cs),
(108,693,ls),
(102,693,o),
(101,688,o),
(104,684,c),
(172,618,ls),
(180,610,o),
(185,608,o),
(197,608,cs),
(251,608,ls),
(263,608,o),
(268,611,o),
(275,618,cs),
(344,684,ls),
(348,688,o),
(346,693,o),
(340,693,cs),
(294,693,ls),
(282,693,o),
(274,692,o),
(265,683,cs),
(224,640,l)
);
}
);
width = 444;
}
);
note = Scaron;
unicode = 352;
},
{
glyphname = scaron;
kernLeft = s;
layers = (
{
layerId = m01;
shapes = (
{
closed = 1;
nodes = (
(261,287,o),
(265,285,o),
(268,285,cs),
(271,285,o),
(274,287,o),
(275,292,cs),
(278,305,ls),
(284,333,o),
(278,348,o),
(251,359,cs),
(227,371,o),
(199,377,o),
(166,377,cs),
(91,377,o),
(30,337,o),
(30,267,cs),
(30,150,o),
(220,167,o),
(220,101,cs),
(220,72,o),
(196,53,o),
(148,53,cs),
(98,53,o),
(67,73,o),
(42,96,cs),
(40,98,o),
(36,101,o),
(33,101,cs),
(26,101,o),
(22,96,o),
(22,84,cs),
(22,40,o),
(72,-11,o),
(155,-11,cs),
(242,-11,o),
(295,37,o),
(295,108,cs),
(295,223,o),
(106,209,o),
(106,273,cs),
(106,299,o),
(130,313,o),
(165,313,cs),
(199,313,o),
(227,305,o),
(259,288,cs)
);
},
{
closed = 1;
nodes = (
(119,505,ls),
(110,514,o),
(102,516,o),
(90,516,cs),
(43,516,ls),
(37,516,o),
(36,510,o),
(39,507,cs),
(108,440,ls),
(116,432,o),
(121,430,o),
(133,430,cs),
(186,430,ls),
(198,430,o),
(203,433,o),
(210,440,cs),
(280,507,l),
(284,510,o),
(281,516,o),
(276,516,cs),
(229,516,ls),
(217,516,o),
(209,514,o),
(200,505,cs),
(159,462,l)
);
}
);
width = 317;
}
);
note = scaron;
unicode = 353;
},
{
glyphname = Ydieresis;
kernLeft = Y;
kernRight = Y;
layers = (
{
layerId = m01;
shapes = (
{
closed = 1;
nodes = (
(186,9,ls),
(186,3,o),
(187,0,o),
(194,0,cs),
(253,0,ls),
(259,0,o),
(261,3,o),
(261,9,cs),
(261,212,l),
(441,544,ls),
(444,551,o),
(442,556,o),
(435,556,cs),
(377,556,ls),
(369,556,o),
(364,552,o),
(360,543,cs),
(226,292,l),
(112,506,ls),
(92,542,o),
(74,556,o),
(39,556,cs),
(11,556,ls),
(4,556,o),
(3,551,o),
(5,547,cs),
(186,213,l)
);
},
{
closed = 1;
nodes = (
(109,620,o),
(129,600,o),
(153,600,cs),
(178,600,o),
(198,620,o),
(198,645,cs),
(198,671,o),
(178,691,o),
(153,691,cs),
(129,691,o),
(109,671,o),
(109,645,cs)
);
},
{
closed = 1;
nodes = (
(245,620,o),
(265,600,o),
(290,600,cs),
(314,600,o),
(334,620,o),
(334,645,cs),
(334,671,o),
(314,691,o),
(290,691,cs),
(265,691,o),
(245,671,o),
(245,645,cs)
);
}
);
width = 445;
}
);
note = Ydieresis;
unicode = 376;
},
{
glyphname = Zcaron;
kernLeft = Z;
kernRight = Z;
layers = (
{
layerId = m01;
shapes = (
{
closed = 1;
nodes = (
(399,455,ls),
(409,470,o),
(412,478,o),
(412,492,cs),
(412,505,ls),
(412,543,o),
(389,556,o),
(356,556,cs),
(48,556,ls),
(42,556,o),
(40,552,o),
(40,547,cs),
(40,494,ls),
(40,488,o),
(42,485,o),
(48,485,cs),
(328,485,l),
(46,88,ls),
(36,73,o),
(33,66,o),
(33,51,cs),
(33,9,ls),
(33,3,o),
(35,0,o),
(41,0,cs),
(402,0,ls),
(410,0,o),
(414,4,o),
(414,11,cs),
(414,27,ls),
(414,54,o),
(399,71,o),
(369,71,cs),
(124,71,l)
);
},
{
closed = 1;
nodes = (
(180,683,ls),
(171,692,o),
(164,693,o),
(151,693,cs),
(105,693,ls),
(99,693,o),
(98,688,o),
(101,684,c),
(169,618,ls),
(177,610,o),
(182,608,o),
(194,608,cs),
(248,608,ls),
(260,608,o),
(265,611,o),
(272,618,cs),
(341,684,ls),
(345,688,o),
(343,693,o),
(337,693,cs),
(291,693,ls),
(279,693,o),
(271,692,o),
(262,683,cs),
(221,640,l)
);
}
);
width = 449;
}
);
note = Zcaron;
unicode = 381;
},
{
glyphname = zcaron;
kernLeft = z;
kernRight = z;
layers = (
{
layerId = m01;
shapes = (
{
closed = 1;
nodes = (
(290,275,ls),
(300,287,o),
(304,296,o),
(304,313,cs),
(304,354,o),
(290,368,o),
(251,368,cs),
(44,368,ls),
(38,368,o),
(36,366,o),
(36,359,cs),
(36,310,ls),
(36,304,o),
(38,302,o),
(44,302,cs),
(224,302,l),
(44,76,ls),
(34,63,o),
(31,58,o),
(31,46,cs),
(31,9,ls),
(31,3,o),
(33,0,o),
(39,0,cs),
(297,0,ls),
(303,0,o),
(304,3,o),
(304,9,cs),
(304,57,ls),
(304,63,o),
(303,66,o),
(297,66,cs),
(124,66,l)
);
},
{
closed = 1;
nodes = (
(124,505,ls),
(115,514,o),
(107,516,o),
(95,516,cs),
(48,516,ls),
(42,516,o),
(42,510,o),
(44,507,c),
(113,440,ls),
(121,432,o),
(126,430,o),
(138,430,cs),
(192,430,ls),
(203,430,o),
(208,433,o),
(215,440,cs),
(285,507,l),
(289,510,o),
(287,516,o),
(281,516,cs),
(234,516,ls),
(222,516,o),
(214,514,o),
(205,505,cs),
(164,462,l)
);
}
);
width = 337;
}
);
note = zcaron;
unicode = 382;
},
{
glyphname = florin;
layers = (
{
layerId = m01;
shapes = (
{
closed = 1;
nodes = (
(66,-47,ls),
(59,-89,o),
(41,-106,o),
(12,-106,cs),
(-8,-106,o),
(-22,-94,o),
(-36,-83,c),
(-39,-82,o),
(-41,-81,o),
(-44,-81,cs),
(-55,-81,o),
(-57,-96,o),
(-57,-103,cs),
(-57,-133,o),
(-35,-171,o),
(21,-171,cs),
(78,-171,o),
(125,-133,o),
(140,-52,cs),
(204,302,l),
(293,302,ls),
(299,302,o),
(302,304,o),
(303,310,cs),
(312,359,ls),
(313,365,o),
(311,368,o),
(305,368,cs),
(214,368,l),
(227,437,ls),
(234,480,o),
(252,496,o),
(280,496,cs),
(301,496,o),
(315,485,o),
(329,474,cs),
(332,472,o),
(334,471,o),
(336,471,cs),
(347,471,o),
(350,487,o),
(350,495,cs),
(350,524,o),
(329,562,o),
(273,562,cs),
(215,562,o),
(167,524,o),
(153,442,cs),
(140,368,l),
(73,368,ls),
(67,368,o),
(64,365,o),
(63,359,cs),
(54,310,l),
(54,304,o),
(55,302,o),
(61,302,cs),
(128,302,l)
);
}
);
width = 382;
}
);
note = florin;
unicode = 402;
},
{
glyphname = circumflex;
layers = (
{
layerId = m01;
shapes = (
{
closed = 1;
nodes = (
(166,442,ls),
(175,433,o),
(183,430,o),
(195,430,cs),
(242,430,ls),
(247,430,o),
(248,436,o),
(245,439,cs),
(176,506,ls),
(168,514,o),
(164,516,o),
(152,516,cs),
(98,516,ls),
(87,516,o),
(82,514,o),
(73,506,cs),
(5,439,l),
(1,436,o),
(3,430,o),
(9,430,cs),
(55,430,ls),
(68,430,o),
(77,433,o),
(84,442,c),
(125,485,l)
);
}
);
width = 246;
}
);
note = circumflex;
unicode = 710;
},
{
glyphname = caron;
layers = (
{
layerId = m01;
shapes = (
{
closed = 1;
nodes = (
(83,505,ls),
(74,514,o),
(67,516,o),
(54,516,cs),
(8,516,ls),
(2,516,o),
(1,510,o),
(4,507,cs),
(72,440,ls),
(80,432,o),
(85,430,o),
(97,430,cs),
(151,430,ls),
(163,430,o),
(168,433,o),
(175,440,cs),
(244,507,l),
(248,510,o),
(246,516,o),
(240,516,cs),
(194,516,ls),
(182,516,o),
(174,514,o),
(165,505,cs),
(124,462,l)
);
}
);
width = 246;
}
);
note = caron;
unicode = 711;
},
{
glyphname = breve;
layers = (
{
layerId = m01;
shapes = (
{
closed = 1;
nodes = (
(11,457,o),
(46,422,o),
(110,422,cs),
(176,422,o),
(210,457,o),
(220,507,c),
(220,513,o),
(218,516,o),
(214,516,cs),
(172,516,ls),
(167,516,o),
(165,514,o),
(163,508,cs),
(157,485,o),
(141,470,o),
(110,470,cs),
(80,470,o),
(64,485,o),
(58,508,c),
(55,514,o),
(55,516,o),
(49,516,cs),
(8,516,ls),
(3,516,o),
(1,513,o),
(2,507,cs)
);
}
);
width = 219;
}
);
note = breve;
unicode = 728;
},
{
glyphname = dotaccent;
layers = (
{
layerId = m01;
shapes = (
{
closed = 1;
nodes = (
(0,442,o),
(20,422,o),
(45,422,cs),
(69,422,o),
(88,442,o),
(88,467,cs),
(88,493,o),
(69,513,o),
(45,513,cs),
(20,513,o),
(0,493,o),
(0,467,cs)
);
}
);
width = 88;
}
);
note = dotaccent;
unicode = 729;
},
{
glyphname = ring;
layers = (
{
layerId = m01;
shapes = (
{
closed = 1;
nodes = (
(-1,450,o),
(31,419,o),
(70,419,cs),
(108,419,o),
(140,450,o),
(140,489,cs),
(140,528,o),
(108,559,o),
(70,559,cs),
(31,559,o),
(-1,528,o),
(-1,489,cs)
);
},
{
closed = 1;
nodes = (
(51,455,o),
(36,470,o),
(36,489,cs),
(36,509,o),
(51,524,o),
(70,524,cs),
(88,524,o),
(102,509,o),
(102,489,cs),
(102,470,o),
(88,455,o),
(70,455,cs)
);
}
);
width = 141;
}
);
note = ring;
unicode = 730;
},
{
glyphname = ogonek;
layers = (
{
layerId = m01;
shapes = (
{
closed = 1;
nodes = (
(127,-135,o),
(129,-133,o),
(129,-127,cs),
(129,-101,ls),
(129,-97,o),
(127,-93,o),
(121,-96,c),
(114,-97,o),
(106,-99,o),
(94,-99,cs),
(68,-99,o),
(56,-87,o),
(56,-66,cs),
(56,-39,o),
(78,-21,o),
(111,-3,cs),
(116,-1,o),
(114,2,o),
(111,2,cs),
(59,2,ls),
(56,2,o),
(52,2,o),
(49,0,cs),
(24,-13,o),
(0,-38,o),
(0,-73,cs),
(0,-113,o),
(31,-142,o),
(83,-142,cs),
(97,-142,o),
(108,-140,o),
(121,-137,cs)
);
}
);
width = 129;
}
);
note = ogonek;
unicode = 731;
},
{
glyphname = tilde;
layers = (
{
layerId = m01;
shapes = (
{
closed = 1;
nodes = (
(237,508,o),
(233,512,o),
(228,512,cs),
(194,512,ls),
(189,512,o),
(185,509,o),
(183,502,cs),
(180,490,o),
(175,484,o),
(163,484,cs),
(136,484,o),
(101,513,o),
(62,513,cs),
(25,513,o),
(3,486,o),
(0,438,cs),
(0,432,o),
(2,429,o),
(8,429,cs),
(43,429,ls),
(48,429,o),
(51,432,o),
(52,439,cs),
(54,450,o),
(59,458,o),
(72,458,cs),
(96,458,o),
(133,430,o),
(168,430,cs),
(209,430,o),
(232,455,o),
(237,503,cs)
);
}
);
width = 237;
}
);
note = tilde;
unicode = 732;
},
{
glyphname = hungarumlaut;
layers = (
{
layerId = m01;
shapes = (
{
closed = 1;
nodes = (
(1,436,o),
(3,431,o),
(8,431,cs),
(54,431,ls),
(65,431,o),
(74,432,o),
(82,442,cs),
(137,507,ls),
(140,511,o),
(138,516,o),
(132,516,cs),
(79,516,ls),
(68,516,o),
(61,514,o),
(55,506,cs),
(4,439,l)
);
},
{
closed = 1;
nodes = (
(193,431,ls),
(205,431,o),
(212,433,o),
(220,442,cs),
(277,507,ls),
(279,510,o),
(278,516,o),
(272,516,cs),
(218,516,ls),
(207,516,o),
(200,514,o),
(194,506,cs),
(143,439,l),
(140,436,o),
(142,431,o),
(147,431,cs)
);
}
);
width = 276;
}
);
note = hungarumlaut;
unicode = 733;
},
{
glyphname = uni03BC;
layers = (
{
layerId = m01;
shapes = (
{
closed = 1;
nodes = (
(150,1,o),
(179,-10,o),
(219,-10,cs),
(326,-10,o),
(382,57,o),
(382,167,cs),
(382,299,ls),
(382,346,o),
(360,368,o),
(320,368,cs),
(315,368,ls),
(310,368,o),
(307,366,o),
(307,360,cs),
(307,161,ls),
(307,88,o),
(271,59,o),
(217,59,cs),
(162,59,o),
(127,93,o),
(127,164,cs),
(127,299,ls),
(127,346,o),
(105,368,o),
(66,368,cs),
(61,368,ls),
(55,368,o),
(53,366,o),
(53,360,cs),
(53,-151,ls),
(53,-157,o),
(55,-160,o),
(61,-160,cs),
(120,-160,ls),
(125,-160,o),
(127,-157,o),
(127,-151,cs),
(127,22,l)
);
}
);
width = 433;
}
);
note = uni03BC;
unicode = 956;
},
{
glyphname = uni060C;
layers = (
{
layerId = m01;
shapes = (
{
closed = 1;
nodes = (
(113,118,o),
(126,136,o),
(135,147,cs),
(146,158,o),
(153,177,o),
(136,193,c),
(134,194,o),
(133,196,o),
(131,193,c),
(85,157,o),
(47,105,o),
(47,46,cs),
(47,13,o),
(72,-11,o),
(101,-11,cs),
(131,-11,o),
(154,14,o),
(154,44,cs),
(154,70,o),
(138,94,o),
(109,98,c)
);
}
);
width = 202;
}
);
note = uni060C;
unicode = 1548;
},
{
glyphname = uni061B;
layers = (
{
layerId = m01;
shapes = (
{
closed = 1;
nodes = (
(134,208,o),
(158,233,o),
(158,263,cs),
(158,289,o),
(141,313,o),
(112,318,c),
(117,338,o),
(130,355,o),
(139,366,cs),
(149,378,o),
(157,397,o),
(140,412,cs),
(138,414,o),
(136,416,o),
(134,413,c),
(89,377,o),
(51,324,o),
(51,266,cs),
(51,233,o),
(76,208,o),
(104,208,cs)
);
},
{
closed = 1;
nodes = (
(75,99,o),
(50,74,o),
(50,44,cs),
(50,14,o),
(75,-11,o),
(104,-11,cs),
(134,-11,o),
(158,14,o),
(158,44,cs),
(158,74,o),
(134,99,o),
(104,99,cs)
);
}
);
width = 208;
}
);
note = uni061B;
unicode = 1563;
},
{
glyphname = uni061F;
layers = (
{
layerId = m01;
shapes = (
{
closed = 1;
nodes = (
(268,154,o),
(272,159,o),
(272,164,cs),
(272,218,ls),
(272,316,o),
(135,329,o),
(134,409,cs),
(133,472,o),
(184,488,o),
(217,488,cs),
(250,488,o),
(274,479,o),
(297,470,cs),
(303,468,o),
(308,466,o),
(312,466,cs),
(321,466,o),
(325,473,o),
(324,483,cs),
(322,523,o),
(272,559,o),
(211,559,cs),
(124,559,o),
(56,505,o),
(57,413,cs),
(58,287,o),
(194,287,o),
(195,210,cs),
(195,164,ls),
(195,159,o),
(200,154,o),
(205,154,cs),
(262,154,ls)
);
},
{
closed = 1;
nodes = (
(206,99,o),
(181,74,o),
(181,44,cs),
(181,14,o),
(206,-11,o),
(235,-11,cs),
(265,-11,o),
(289,14,o),
(289,44,cs),
(289,74,o),
(265,99,o),
(235,99,cs)
);
}
);
width = 373;
}
);
note = uni061F;
unicode = 1567;
},
{
glyphname = uni0621;
layers = (
{
layerId = m01;
shapes = (
{
closed = 1;
nodes = (
(195,69,o),
(160,123,o),
(160,174,cs),
(160,242,o),
(202,282,o),
(262,282,cs),
(292,282,o),
(317,273,o),
(341,261,cs),
(347,258,o),
(351,256,o),
(355,256,cs),
(365,256,o),
(366,268,o),
(366,276,cs),
(366,292,o),
(356,308,o),
(342,319,cs),
(323,336,o),
(292,348,o),
(255,348,cs),
(162,348,o),
(88,283,o),
(88,176,cs),
(88,137,o),
(101,97,o),
(132,64,c),
(111,62,o),
(93,54,o),
(80,44,cs),
(58,29,o),
(49,3,o),
(55,-18,cs),
(57,-23,o),
(60,-26,o),
(64,-26,cs),
(68,-26,o),
(71,-24,o),
(76,-22,c),
(99,-6,o),
(125,0,o),
(158,0,cs),
(395,0,ls),
(405,0,o),
(407,2,o),
(407,12,cs),
(407,17,ls),
(407,46,o),
(385,69,o),
(346,69,cs),
(261,69,ls)
);
}
);
width = 454;
}
);
note = uni0621;
unicode = 1569;
},
{
glyphname = uni0622;
layers = (
{
layerId = m01;
shapes = (
{
closed = 1;
nodes = (
(63,662,o),
(81,655,o),
(101,648,cs),
(124,640,o),
(149,632,o),
(167,632,cs),
(192,632,o),
(210,653,o),
(210,676,cs),
(210,684,o),
(207,692,o),
(202,700,c),
(201,703,o),
(199,704,o),
(196,704,cs),
(194,704,o),
(193,704,o),
(192,703,cs),
(189,701,o),
(185,694,o),
(181,689,cs),
(175,681,o),
(168,677,o),
(160,677,cs),
(150,677,o),
(131,683,o),
(111,690,cs),
(89,698,o),
(64,706,o),
(45,706,cs),
(21,706,o),
(3,685,o),
(3,662,cs),
(3,654,o),
(5,646,o),
(10,638,c),
(12,636,o),
(14,634,o),
(17,634,cs),
(19,634,o),
(20,634,o),
(21,635,cs),
(24,637,o),
(28,644,o),
(32,649,cs),
(38,658,o),
(45,662,o),
(52,662,cs)
);
},
{
closed = 1;
nodes = (
(120,0,o),
(143,24,o),
(143,68,cs),
(143,548,ls),
(143,553,o),
(140,556,o),
(135,556,cs),
(127,556,ls),
(90,556,o),
(67,532,o),
(67,488,cs),
(67,8,ls),
(67,2,o),
(69,0,o),
(75,0,cs),
(82,0,ls)
);
}
);
width = 209;
}
);
note = uni0622;
unicode = 1570;
},
{
glyphname = uni0623;
layers = (
{
layerId = m01;
shapes = (
{
closed = 1;
nodes = (
(102,684,o),
(87,699,o),
(87,720,cs),
(87,740,o),
(102,754,o),
(124,754,cs),
(137,754,o),
(149,750,o),
(159,745,cs),
(164,743,o),
(169,741,o),
(172,739,c),
(178,739,o),
(180,743,o),
(180,750,cs),
(178,778,o),
(150,798,o),
(115,798,cs),
(72,797,o),
(40,763,o),
(40,721,cs),
(40,708,o),
(44,694,o),
(50,682,c),
(25,678,o),
(11,666,o),
(11,647,cs),
(11,644,o),
(11,639,o),
(13,634,cs),
(14,630,o),
(16,628,o),
(19,628,cs),
(22,628,o),
(24,629,o),
(31,632,cs),
(48,639,o),
(63,639,o),
(85,639,cs),
(192,639,ls),
(199,639,o),
(201,642,o),
(201,648,cs),
(201,652,ls),
(201,671,o),
(187,684,o),
(166,684,cs),
(122,684,ls)
);
},
{
closed = 1;
nodes = (
(90,556,o),
(67,532,o),
(67,488,cs),
(67,8,ls),
(67,2,o),
(69,0,o),
(75,0,cs),
(82,0,ls),
(120,0,o),
(143,24,o),
(143,68,cs),
(143,548,ls),
(143,553,o),
(140,556,o),
(135,556,cs),
(128,556,ls)
);
}
);
width = 209;
}
);
note = uni0623;
unicode = 1571;
},
{
glyphname = uni0624;
layers = (
{
layerId = m01;
shapes = (
{
closed = 1;
nodes = (
(143,448,o),
(146,451,o),
(152,453,cs),
(169,459,o),
(183,460,o),
(205,460,cs),
(312,460,ls),
(319,460,o),
(322,462,o),
(322,468,cs),
(322,472,ls),
(322,492,o),
(308,504,o),
(287,504,cs),
(243,504,ls),
(223,504,o),
(208,519,o),
(208,541,cs),
(208,561,o),
(222,574,o),
(245,574,cs),
(257,574,o),
(270,571,o),
(280,566,cs),
(285,563,o),
(289,561,o),
(293,560,cs),
(299,559,o),
(300,563,o),
(300,571,cs),
(298,599,o),
(270,619,o),
(235,618,cs),
(192,618,o),
(160,584,o),
(160,541,cs),
(160,528,o),
(164,514,o),
(171,502,c),
(170,502,ls),
(141,498,o),
(127,480,o),
(133,455,cs),
(134,451,o),
(136,448,o),
(139,448,cs)
);
},
{
closed = 1;
nodes = (
(353,338,o),
(305,377,o),
(227,377,cs),
(130,377,o),
(56,304,o),
(56,182,cs),
(56,73,o),
(122,-9,o),
(223,-9,c),
(257,-11,o),
(290,-2,o),
(325,16,c),
(320,-74,o),
(283,-142,o),
(200,-143,cs),
(151,-143,o),
(130,-137,o),
(102,-127,cs),
(99,-126,o),
(94,-124,o),
(89,-124,cs),
(80,-124,o),
(76,-131,o),
(77,-139,cs),
(85,-186,o),
(143,-214,o),
(205,-214,cs),
(280,-215,o),
(335,-182,o),
(364,-124,cs),
(400,-57,o),
(402,26,o),
(402,118,cs),
(402,177,o),
(395,236,o),
(378,276,cs)
);
},
{
closed = 1;
nodes = (
(324,108,o),
(324,99,o),
(323,92,c),
(298,72,o),
(265,63,o),
(229,63,cs),
(170,63,o),
(134,112,o),
(134,184,cs),
(134,253,o),
(170,306,o),
(228,306,cs),
(268,306,o),
(292,283,o),
(307,249,cs),
(320,219,o),
(325,161,o),
(324,117,cs)
);
}
);
width = 457;
}
);
note = uni0624;
unicode = 1572;
},
{
glyphname = uni0625;
layers = (
{
layerId = m01;
shapes = (
{
closed = 1;
nodes = (
(102,0,o),
(109,3,o),
(118,8,cs),
(138,18,o),
(147,39,o),
(147,68,cs),
(147,548,ls),
(147,553,o),
(145,556,o),
(139,556,cs),
(132,556,ls),
(116,556,o),
(110,553,o),
(100,548,cs),
(80,538,o),
(71,517,o),
(71,488,cs),
(71,8,ls),
(71,2,o),
(74,0,o),
(80,0,cs),
(86,0,ls)
);
},
{
closed = 1;
nodes = (
(104,-183,o),
(89,-168,o),
(89,-147,cs),
(89,-127,o),
(104,-113,o),
(126,-113,cs),
(139,-113,o),
(151,-117,o),
(161,-122,cs),
(166,-124,o),
(171,-127,o),
(174,-128,c),
(180,-128,o),
(182,-124,o),
(182,-117,cs),
(180,-89,o),
(152,-69,o),
(117,-69,cs),
(74,-70,o),
(42,-104,o),
(42,-147,cs),
(42,-159,o),
(46,-174,o),
(52,-186,c),
(52,-186,l),
(22,-189,o),
(8,-208,o),
(14,-233,cs),
(15,-237,o),
(17,-239,o),
(21,-239,cs),
(24,-239,o),
(27,-237,o),
(34,-234,cs),
(50,-228,o),
(65,-228,o),
(86,-228,cs),
(194,-228,ls),
(201,-228,o),
(203,-226,o),
(203,-219,cs),
(203,-216,ls),
(203,-196,o),
(189,-183,o),
(168,-183,cs),
(124,-183,ls)
);
}
);
width = 209;
}
);
note = uni0625;
unicode = 1573;
},
{
glyphname = uni0626;
layers = (
{
layerId = m01;
shapes = (
{
closed = 1;
nodes = (
(235,321,o),
(237,323,o),
(237,329,cs),
(237,333,ls),
(237,352,o),
(223,365,o),
(202,365,cs),
(158,365,ls),
(138,365,o),
(123,380,o),
(123,401,cs),
(123,421,o),
(137,435,o),
(160,435,cs),
(173,435,o),
(185,431,o),
(195,426,cs),
(200,424,o),
(205,422,o),
(208,421,cs),
(214,420,o),
(216,424,o),
(216,431,cs),
(214,459,o),
(186,479,o),
(151,479,cs),
(108,478,o),
(76,444,o),
(76,402,cs),
(76,389,o),
(80,374,o),
(86,363,c),
(86,363,l),
(56,359,o),
(42,341,o),
(48,316,cs),
(49,311,o),
(51,309,o),
(55,309,cs),
(58,309,o),
(61,312,o),
(68,314,cs),
(84,320,o),
(99,321,o),
(120,321,cs),
(228,321,ls)
);
},
{
closed = 1;
nodes = (
(406,124,o),
(365,153,o),
(365,203,cs),
(365,269,o),
(414,306,o),
(473,306,cs),
(514,306,o),
(546,292,o),
(566,282,cs),
(571,279,o),
(575,277,o),
(579,277,cs),
(588,277,o),
(591,285,o),
(591,296,cs),
(591,341,o),
(536,377,o),
(464,377,cs),
(368,377,o),
(288,311,o),
(288,202,cs),
(288,114,o),
(345,64,o),
(424,47,cs),
(484,33,o),
(544,30,o),
(544,-6,cs),
(544,-7,o),
(544,-9,o),
(544,-12,c),
(528,-92,o),
(443,-143,o),
(348,-143,cs),
(225,-143,o),
(134,-68,o),
(134,59,cs),
(134,108,o),
(146,161,o),
(176,214,c),
(179,218,o),
(181,223,o),
(181,227,cs),
(181,234,o),
(177,238,o),
(170,238,cs),
(164,238,o),
(159,236,o),
(153,233,c),
(98,197,o),
(60,124,o),
(60,39,cs),
(60,-96,o),
(168,-214,o),
(347,-214,cs),
(499,-214,o),
(609,-129,o),
(625,1,cs),
(634,75,o),
(546,96,o),
(456,114,cs)
);
}
);
width = 676;
}
);
note = uni0626;
unicode = 1574;
},
{
glyphname = uni0627;
layers = (
{
layerId = m01;
shapes = (
{
closed = 1;
nodes = (
(120,0,o),
(143,24,o),
(143,68,cs),
(143,548,ls),
(143,553,o),
(140,556,o),
(135,556,cs),
(128,556,ls),
(90,556,o),
(67,532,o),
(67,488,cs),
(67,8,ls),
(67,2,o),
(69,0,o),
(75,0,cs),
(82,0,ls)
);
}
);
width = 209;
}
);
note = uni0627;
unicode = 1575;
},
{
glyphname = uni0628;
layers = (
{
layerId = m01;
shapes = (
{
closed = 1;
nodes = (
(178,74,o),
(123,101,o),
(123,177,cs),
(123,214,o),
(134,241,o),
(163,278,cs),
(167,283,o),
(168,287,o),
(168,292,cs),
(168,298,o),
(165,303,o),
(157,303,cs),
(153,303,o),
(148,302,o),
(140,298,cs),
(85,269,o),
(56,209,o),
(56,154,cs),
(56,49,o),
(134,0,o),
(242,0,cs),
(535,0,ls),
(634,0,o),
(694,62,o),
(694,168,cs),
(694,350,ls),
(694,356,o),
(692,358,o),
(686,358,cs),
(679,358,ls),
(642,358,o),
(618,334,o),
(618,291,cs),
(618,169,ls),
(618,113,o),
(591,74,o),
(538,74,cs),
(245,74,ls)
);
},
{
closed = 1;
nodes = (
(352,-69,o),
(330,-91,o),
(330,-119,cs),
(330,-147,o),
(352,-169,o),
(380,-169,cs),
(407,-169,o),
(429,-147,o),
(429,-119,cs),
(429,-91,o),
(407,-69,o),
(380,-69,cs)
);
}
);
width = 761;
}
);
note = uni0628;
unicode = 1576;
},
{
glyphname = uni0629;
layers = (
{
layerId = m01;
shapes = (
{
closed = 1;
nodes = (
(150,525,o),
(170,544,o),
(170,571,cs),
(170,596,o),
(150,615,o),
(125,615,cs),
(101,615,o),
(82,596,o),
(82,571,cs),
(82,544,o),
(101,525,o),
(125,525,cs)
);
},
{
closed = 1;
nodes = (
(277,525,o),
(295,544,o),
(295,571,cs),
(295,596,o),
(277,615,o),
(252,615,cs),
(227,615,o),
(208,596,o),
(208,571,cs),
(208,544,o),
(227,525,o),
(252,525,cs)
);
},
{
closed = 1;
nodes = (
(312,351,o),
(305,357,o),
(298,362,cs),
(264,390,o),
(235,407,o),
(215,449,c),
(213,456,o),
(211,459,o),
(205,458,c),
(204,457,o),
(199,456,o),
(198,455,c),
(173,442,o),
(161,421,o),
(168,395,c),
(174,383,o),
(179,375,o),
(187,367,c),
(90,322,o),
(56,245,o),
(56,176,cs),
(56,54,o),
(136,-9,o),
(229,-9,cs),
(335,-9,o),
(403,66,o),
(403,176,cs),
(403,242,o),
(378,294,o),
(320,344,cs)
);
},
{
closed = 1;
nodes = (
(176,62,o),
(134,109,o),
(134,173,cs),
(135,226,o),
(155,277,o),
(235,313,c),
(260,293,o),
(272,283,o),
(289,264,cs),
(316,234,o),
(324,204,o),
(324,177,cs),
(326,108,o),
(284,62,o),
(229,62,cs)
);
}
);
width = 458;
}
);
note = uni0629;
unicode = 1577;
},
{
glyphname = uni062A;
layers = (
{
layerId = m01;
shapes = (
{
closed = 1;
nodes = (
(345,377,o),
(364,396,o),
(364,422,cs),
(364,448,o),
(345,467,o),
(320,467,cs),
(295,467,o),
(277,448,o),
(277,422,cs),
(277,396,o),
(295,377,o),
(320,377,cs)
);
},
{
closed = 1;
nodes = (
(471,377,o),
(490,396,o),
(490,422,cs),
(490,448,o),
(471,467,o),
(447,467,cs),
(422,467,o),
(402,448,o),
(402,422,cs),
(402,396,o),
(422,377,o),
(447,377,cs)
);
},
{
closed = 1;
nodes = (
(178,74,o),
(123,101,o),
(123,177,cs),
(123,214,o),
(134,241,o),
(163,278,cs),
(167,283,o),
(168,287,o),
(168,292,cs),
(168,298,o),
(165,303,o),
(157,303,cs),
(153,303,o),
(148,302,o),
(140,298,cs),
(85,269,o),
(56,209,o),
(56,154,cs),
(56,49,o),
(134,0,o),
(242,0,cs),
(535,0,ls),
(634,0,o),
(694,62,o),
(694,168,cs),
(694,350,ls),
(694,356,o),
(692,358,o),
(686,358,cs),
(679,358,ls),
(642,358,o),
(618,334,o),
(618,291,cs),
(618,169,ls),
(618,113,o),
(591,74,o),
(538,74,cs),
(245,74,ls)
);
}
);
width = 761;
}
);
note = uni062A;
unicode = 1578;
},
{
glyphname = uni062B;
layers = (
{
layerId = m01;
shapes = (
{
closed = 1;
nodes = (
(409,472,o),
(428,491,o),
(428,516,cs),
(428,542,o),
(409,562,o),
(385,562,cs),
(360,562,o),
(340,542,o),
(340,516,cs),
(340,491,o),
(360,472,o),
(385,472,cs)
);
},
{
closed = 1;
nodes = (
(344,376,o),
(364,395,o),
(364,421,cs),
(364,447,o),
(344,466,o),
(319,466,cs),
(295,466,o),
(276,447,o),
(276,421,cs),
(276,395,o),
(295,376,o),
(319,376,cs)
);
},
{
closed = 1;
nodes = (
(402,395,o),
(421,376,o),
(446,376,cs),
(470,376,o),
(489,395,o),
(489,421,cs),
(489,447,o),
(470,466,o),
(446,466,cs),
(421,466,o),
(402,447,o),
(402,421,cs)
);
},
{
closed = 1;
nodes = (
(642,358,o),
(618,334,o),
(618,291,cs),
(618,169,ls),
(618,113,o),
(591,74,o),
(538,74,cs),
(245,74,ls),
(178,74,o),
(123,101,o),
(123,177,cs),
(123,214,o),
(134,241,o),
(163,278,cs),
(167,283,o),
(168,287,o),
(168,292,cs),
(168,298,o),
(165,303,o),
(157,303,cs),
(153,303,o),
(148,302,o),
(140,298,cs),
(85,269,o),
(56,209,o),
(56,154,cs),
(56,49,o),
(134,0,o),
(242,0,cs),
(535,0,ls),
(634,0,o),
(694,62,o),
(694,168,cs),
(694,350,ls),
(694,356,o),
(692,358,o),
(686,358,cs),
(679,358,ls)
);
}
);
width = 761;
}
);
note = uni062B;
unicode = 1579;
},
{
glyphname = uni062C;
layers = (
{
layerId = m01;
shapes = (
{
closed = 1;
nodes = (
(540,0,o),
(564,28,o),
(564,66,cs),
(564,73,o),
(562,74,o),
(555,75,cs),
(542,76,o),
(529,81,o),
(520,90,cs),
(499,113,o),
(487,143,o),
(469,207,cs),
(437,313,o),
(375,377,o),
(276,377,cs),
(196,378,o),
(138,330,o),
(120,276,cs),
(115,261,o),
(115,245,o),
(129,245,cs),
(139,245,o),
(144,251,o),
(153,258,cs),
(190,291,o),
(221,306,o),
(265,306,cs),
(330,306,o),
(367,264,o),
(390,194,cs),
(412,127,o),
(422,93,o),
(442,74,c),
(275,74,ls),
(138,74,o),
(56,-14,o),
(56,-127,cs),
(56,-238,o),
(136,-329,o),
(274,-331,cs),
(350,-332,o),
(437,-305,o),
(464,-240,cs),
(470,-223,o),
(462,-211,o),
(443,-221,cs),
(420,-233,o),
(402,-242,o),
(380,-248,cs),
(352,-257,o),
(324,-261,o),
(284,-260,cs),
(185,-257,o),
(138,-198,o),
(138,-130,cs),
(138,-64,o),
(186,0,o),
(275,0,cs),
(494,0,ls)
);
},
{
closed = 1;
nodes = (
(292,-78,o),
(270,-100,o),
(270,-128,cs),
(270,-156,o),
(292,-178,o),
(320,-178,cs),
(347,-178,o),
(369,-156,o),
(369,-128,cs),
(369,-100,o),
(347,-78,o),
(320,-78,cs)
);
}
);
width = 613;
}
);
note = uni062C;
unicode = 1580;
},
{
glyphname = uni062D;
layers = (
{
layerId = m01;
shapes = (
{
closed = 1;
nodes = (
(540,0,o),
(564,28,o),
(564,66,cs),
(564,73,o),
(562,74,o),
(555,75,cs),
(542,76,o),
(529,81,o),
(520,90,cs),
(499,113,o),
(487,143,o),
(469,207,cs),
(437,313,o),
(375,377,o),
(276,377,cs),
(196,378,o),
(138,330,o),
(120,276,cs),
(115,261,o),
(115,245,o),
(129,245,cs),
(139,245,o),
(144,251,o),
(153,258,cs),
(190,291,o),
(221,306,o),
(265,306,cs),
(330,306,o),
(367,264,o),
(390,194,cs),
(412,127,o),
(422,93,o),
(442,74,c),
(275,74,ls),
(138,74,o),
(56,-14,o),
(56,-127,cs),
(56,-238,o),
(136,-329,o),
(274,-331,cs),
(350,-332,o),
(437,-305,o),
(464,-240,cs),
(470,-223,o),
(462,-211,o),
(443,-221,cs),
(420,-233,o),
(402,-242,o),
(380,-248,cs),
(352,-257,o),
(324,-261,o),
(284,-260,cs),
(185,-257,o),
(138,-198,o),
(138,-130,cs),
(138,-64,o),
(186,0,o),
(275,0,cs),
(494,0,ls)
);
}
);
width = 613;
}
);
note = uni062D;
unicode = 1581;
},
{
glyphname = uni062E;
layers = (
{
layerId = m01;
shapes = (
{
closed = 1;
nodes = (
(248,539,o),
(227,518,o),
(227,489,cs),
(227,462,o),
(248,439,o),
(276,439,cs),
(303,439,o),
(325,462,o),
(325,489,cs),
(325,518,o),
(303,539,o),
(276,539,cs)
);
},
{
closed = 1;
nodes = (
(540,0,o),
(564,28,o),
(564,66,cs),
(564,73,o),
(562,74,o),
(555,75,cs),
(542,76,o),
(529,81,o),
(520,90,cs),
(499,113,o),
(487,143,o),
(469,207,cs),
(437,313,o),
(375,377,o),
(276,377,cs),
(196,378,o),
(138,330,o),
(120,276,cs),
(115,261,o),
(115,245,o),
(129,245,cs),
(139,245,o),
(144,251,o),
(153,258,cs),
(190,291,o),
(221,306,o),
(265,306,cs),
(330,306,o),
(367,264,o),
(390,194,cs),
(412,127,o),
(422,93,o),
(442,74,c),
(275,74,ls),
(138,74,o),
(56,-14,o),
(56,-127,cs),
(56,-238,o),
(136,-329,o),
(274,-331,cs),
(350,-332,o),
(437,-305,o),
(464,-240,cs),
(470,-223,o),
(462,-211,o),
(443,-221,cs),
(420,-233,o),
(402,-242,o),
(380,-248,cs),
(352,-257,o),
(324,-261,o),
(284,-260,cs),
(185,-257,o),
(138,-198,o),
(138,-130,cs),
(138,-64,o),
(186,0,o),
(275,0,cs),
(494,0,ls)
);
}
);
width = 613;
}
);
note = uni062E;
unicode = 1582;
},
{
glyphname = uni062F;
layers = (
{
layerId = m01;
shapes = (
{
closed = 1;
nodes = (
(298,0,o),
(367,69,o),
(367,179,cs),
(367,294,o),
(310,377,o),
(212,377,cs),
(148,377,o),
(105,336,o),
(105,304,cs),
(105,293,o),
(109,288,o),
(118,288,cs),
(125,288,o),
(130,290,o),
(136,293,cs),
(155,301,o),
(172,306,o),
(195,306,cs),
(256,306,o),
(290,257,o),
(290,183,cs),
(290,118,o),
(254,74,o),
(198,74,cs),
(117,74,ls),
(75,74,o),
(50,50,o),
(50,19,cs),
(50,12,ls),
(50,2,o),
(53,0,o),
(64,0,cs),
(200,0,ls)
);
}
);
width = 423;
}
);
note = uni062F;
unicode = 1583;
},
{
glyphname = uni0630;
layers = (
{
layerId = m01;
shapes = (
{
closed = 1;
nodes = (
(129,533,o),
(108,512,o),
(108,483,cs),
(108,456,o),
(129,433,o),
(157,433,cs),
(184,433,o),
(206,456,o),
(206,483,cs),
(206,512,o),
(184,533,o),
(157,533,cs)
);
},
{
closed = 1;
nodes = (
(298,0,o),
(367,69,o),
(367,179,cs),
(367,294,o),
(310,377,o),
(212,377,cs),
(148,377,o),
(105,336,o),
(105,304,cs),
(105,293,o),
(109,288,o),
(118,288,cs),
(125,288,o),
(130,290,o),
(136,293,cs),
(155,301,o),
(172,306,o),
(195,306,cs),
(256,306,o),
(290,257,o),
(290,183,cs),
(290,118,o),
(254,74,o),
(198,74,cs),
(117,74,ls),
(75,74,o),
(50,50,o),
(50,19,cs),
(50,12,ls),
(50,2,o),
(53,0,o),
(64,0,cs),
(200,0,ls)
);
}
);
width = 423;
}
);
note = uni0630;
unicode = 1584;
},
{
glyphname = uni0631;
layers = (
{
layerId = m01;
shapes = (
{
closed = 1;
nodes = (
(-13,-143,o),
(-32,-138,o),
(-61,-128,cs),
(-65,-127,o),
(-71,-124,o),
(-76,-124,cs),
(-86,-124,o),
(-94,-134,o),
(-87,-148,cs),
(-70,-187,o),
(-19,-213,o),
(30,-214,cs),
(143,-216,o),
(193,-127,o),
(193,13,cs),
(193,350,ls),
(193,356,o),
(190,358,o),
(184,358,cs),
(177,358,ls),
(139,358,o),
(117,334,o),
(117,291,cs),
(117,-4,ls),
(117,-89,o),
(88,-142,o),
(17,-143,cs)
);
}
);
width = 256;
}
);
note = uni0631;
unicode = 1585;
},
{
glyphname = uni0632;
layers = (
{
layerId = m01;
shapes = (
{
closed = 1;
nodes = (
(132,528,o),
(110,507,o),
(110,478,cs),
(110,451,o),
(132,428,o),
(159,428,cs),
(187,428,o),
(208,451,o),
(208,478,cs),
(208,507,o),
(187,528,o),
(159,528,cs)
);
},
{
closed = 1;
nodes = (
(-13,-143,o),
(-32,-138,o),
(-61,-128,cs),
(-65,-127,o),
(-71,-124,o),
(-76,-124,cs),
(-86,-124,o),
(-94,-134,o),
(-87,-148,cs),
(-70,-187,o),
(-19,-213,o),
(30,-214,cs),
(143,-216,o),
(193,-127,o),
(193,13,cs),
(193,350,ls),
(193,356,o),
(190,358,o),
(184,358,cs),
(177,358,ls),
(139,358,o),
(117,334,o),
(117,291,cs),
(117,-4,ls),
(117,-89,o),
(88,-142,o),
(17,-143,cs)
);
}
);
width = 256;
}
);
note = uni0632;
unicode = 1586;
},
{
glyphname = uni0633;
layers = (
{
layerId = m01;
shapes = (
{
closed = 1;
nodes = (
(977,358,o),
(954,334,o),
(954,291,cs),
(954,159,ls),
(954,101,o),
(926,65,o),
(873,65,cs),
(819,65,o),
(792,101,o),
(792,159,cs),
(792,331,ls),
(792,336,o),
(789,338,o),
(784,338,cs),
(777,338,ls),
(739,338,o),
(716,315,o),
(716,271,cs),
(716,159,ls),
(716,101,o),
(688,65,o),
(635,65,cs),
(582,65,o),
(554,101,o),
(554,159,cs),
(554,312,ls),
(554,317,o),
(552,319,o),
(546,319,cs),
(539,319,ls),
(523,319,o),
(517,317,o),
(507,312,cs),
(488,302,o),
(478,281,o),
(478,252,cs),
(478,55,ls),
(478,-82,o),
(389,-143,o),
(304,-143,cs),
(216,-143,o),
(128,-82,o),
(130,55,cs),
(130,108,o),
(147,163,o),
(178,213,cs),
(181,217,o),
(183,221,o),
(183,224,cs),
(183,232,o),
(177,236,o),
(170,236,cs),
(165,236,o),
(161,234,o),
(157,232,cs),
(99,199,o),
(57,124,o),
(57,39,cs),
(56,-119,o),
(167,-214,o),
(304,-214,cs),
(433,-214,o),
(535,-134,o),
(552,12,c),
(574,-1,o),
(600,-9,o),
(633,-9,cs),
(687,-9,o),
(729,8,o),
(755,40,c),
(780,11,o),
(815,-9,o),
(872,-9,cs),
(970,-10,o),
(1030,53,o),
(1030,158,cs),
(1030,350,ls),
(1030,356,o),
(1027,358,o),
(1021,358,cs),
(1014,358,ls)
);
}
);
width = 1096;
}
);
note = uni0633;
unicode = 1587;
},
{
glyphname = uni0634;
layers = (
{
layerId = m01;
shapes = (
{
closed = 1;
nodes = (
(779,510,o),
(798,529,o),
(798,554,cs),
(798,581,o),
(779,600,o),
(754,600,cs),
(729,600,o),
(710,581,o),
(710,554,cs),
(710,529,o),
(729,510,o),
(754,510,cs)
);
},
{
closed = 1;
nodes = (
(714,414,o),
(733,433,o),
(733,459,cs),
(733,485,o),
(714,504,o),
(689,504,cs),
(664,504,o),
(645,485,o),
(645,459,cs),
(645,433,o),
(664,414,o),
(689,414,cs)
);
},
{
closed = 1;
nodes = (
(771,433,o),
(790,414,o),
(815,414,cs),
(840,414,o),
(859,433,o),
(859,459,cs),
(859,485,o),
(840,504,o),
(815,504,cs),
(790,504,o),
(771,485,o),
(771,459,cs)
);
},
{
closed = 1;
nodes = (
(977,358,o),
(954,334,o),
(954,291,cs),
(954,159,ls),
(954,101,o),
(926,65,o),
(873,65,cs),
(819,65,o),
(792,101,o),
(792,159,cs),
(792,331,ls),
(792,336,o),
(789,338,o),
(784,338,cs),
(777,338,ls),
(739,338,o),
(716,315,o),
(716,271,cs),
(716,159,ls),
(716,101,o),
(688,65,o),
(635,65,cs),
(582,65,o),
(554,101,o),
(554,159,cs),
(554,312,ls),
(554,317,o),
(552,319,o),
(546,319,cs),
(539,319,ls),
(523,319,o),
(517,317,o),
(507,312,cs),
(488,302,o),
(478,281,o),
(478,252,cs),
(478,55,ls),
(478,-82,o),
(389,-143,o),
(304,-143,cs),
(216,-143,o),
(128,-82,o),
(130,55,cs),
(130,108,o),
(147,163,o),
(178,213,cs),
(181,217,o),
(183,221,o),
(183,224,cs),
(183,232,o),
(177,236,o),
(170,236,cs),
(165,236,o),
(161,234,o),
(157,232,cs),
(99,199,o),
(57,124,o),
(57,39,cs),
(56,-119,o),
(167,-214,o),
(304,-214,cs),
(433,-214,o),
(535,-134,o),
(552,12,c),
(574,-1,o),
(600,-9,o),
(633,-9,cs),
(687,-9,o),
(729,8,o),
(755,40,c),
(780,11,o),
(815,-9,o),
(872,-9,cs),
(970,-10,o),
(1030,53,o),
(1030,158,cs),
(1030,350,ls),
(1030,356,o),
(1027,358,o),
(1021,358,cs),
(1014,358,ls)
);
}
);
width = 1096;
}
);
note = uni0634;
unicode = 1588;
},
{
glyphname = uni0635;
layers = (
{
layerId = m01;
shapes = (
{
closed = 1;
nodes = (
(807,377,o),
(685,239,o),
(639,74,c),
(638,74,ls),
(592,74,o),
(558,104,o),
(557,168,cs),
(557,351,ls),
(557,356,o),
(555,358,o),
(549,358,cs),
(542,358,ls),
(504,358,o),
(481,334,o),
(481,291,cs),
(481,58,ls),
(481,-79,o),
(402,-143,o),
(306,-143,cs),
(216,-143,o),
(128,-82,o),
(130,55,cs),
(130,108,o),
(148,162,o),
(179,213,cs),
(182,217,o),
(184,221,o),
(184,224,cs),
(184,233,o),
(178,236,o),
(171,236,cs),
(167,236,o),
(161,234,o),
(157,232,cs),
(99,199,o),
(57,124,o),
(57,39,cs),
(56,-119,o),
(167,-214,o),
(306,-214,cs),
(437,-214,o),
(540,-136,o),
(555,21,c),
(576,8,o),
(602,0,o),
(633,0,cs),
(1014,0,ls),
(1107,0,o),
(1184,67,o),
(1184,182,cs),
(1184,302,o),
(1099,377,o),
(983,377,cs)
);
},
{
closed = 1;
nodes = (
(761,204,o),
(854,306,o),
(979,306,cs),
(1044,306,o),
(1105,269,o),
(1106,186,cs),
(1107,126,o),
(1069,74,o),
(1009,74,cs),
(722,74,l)
);
}
);
width = 1238;
}
);
note = uni0635;
unicode = 1589;
},
{
glyphname = uni0636;
layers = (
{
layerId = m01;
shapes = (
{
closed = 1;
nodes = (
(980,439,o),
(1002,462,o),
(1002,489,cs),
(1002,518,o),
(980,539,o),
(953,539,cs),
(925,539,o),
(903,518,o),
(903,489,cs),
(903,462,o),
(925,439,o),
(953,439,cs)
);
},
{
closed = 1;
nodes = (
(807,377,o),
(685,239,o),
(639,74,c),
(638,74,ls),
(592,74,o),
(558,104,o),
(557,168,cs),
(557,351,ls),
(557,356,o),
(555,358,o),
(549,358,cs),
(542,358,ls),
(504,358,o),
(481,334,o),
(481,291,cs),
(481,58,ls),
(481,-79,o),
(402,-143,o),
(306,-143,cs),
(216,-143,o),
(128,-82,o),
(130,55,cs),
(130,108,o),
(148,162,o),
(179,213,cs),
(182,217,o),
(184,221,o),
(184,224,cs),
(184,233,o),
(178,236,o),
(171,236,cs),
(167,236,o),
(161,234,o),
(157,232,cs),
(99,199,o),
(57,124,o),
(57,39,cs),
(56,-119,o),
(167,-214,o),
(306,-214,cs),
(437,-214,o),
(540,-136,o),
(555,21,c),
(576,8,o),
(602,0,o),
(633,0,cs),
(1014,0,ls),
(1107,0,o),
(1184,67,o),
(1184,182,cs),
(1184,302,o),
(1099,377,o),
(983,377,cs)
);
},
{
closed = 1;
nodes = (
(761,204,o),
(854,306,o),
(979,306,cs),
(1044,306,o),
(1105,269,o),
(1106,186,cs),
(1107,126,o),
(1069,74,o),
(1009,74,cs),
(722,74,l)
);
}
);
width = 1238;
}
);
note = uni0636;
unicode = 1590;
},
{
glyphname = uni0637;
layers = (
{
layerId = m01;
shapes = (
{
closed = 1;
nodes = (
(401,377,o),
(313,318,o),
(253,235,c),
(253,548,ls),
(253,553,o),
(250,556,o),
(244,556,cs),
(237,556,ls),
(199,556,o),
(176,532,o),
(176,488,cs),
(176,74,l),
(117,74,ls),
(75,74,o),
(50,50,o),
(50,19,cs),
(50,12,ls),
(50,2,o),
(53,0,o),
(64,0,cs),
(544,0,ls),
(637,0,o),
(714,67,o),
(714,182,cs),
(714,302,o),
(629,377,o),
(513,377,cs)
);
},
{
closed = 1;
nodes = (
(291,204,o),
(384,306,o),
(509,306,cs),
(574,306,o),
(635,269,o),
(636,186,cs),
(637,126,o),
(599,74,o),
(539,74,cs),
(253,74,l)
);
}
);
width = 769;
}
);
note = uni0637;
unicode = 1591;
},
{
glyphname = uni0638;
layers = (
{
layerId = m01;
shapes = (
{
closed = 1;
nodes = (
(401,377,o),
(313,318,o),
(253,235,c),
(253,548,ls),
(253,553,o),
(250,556,o),
(244,556,cs),
(237,556,ls),
(199,556,o),
(176,532,o),
(176,488,cs),
(176,74,l),
(117,74,ls),
(75,74,o),
(50,50,o),
(50,19,cs),
(50,12,ls),
(50,2,o),
(53,0,o),
(64,0,cs),
(544,0,ls),
(637,0,o),
(714,67,o),
(714,182,cs),
(714,302,o),
(629,377,o),
(513,377,cs)
);
},
{
closed = 1;
nodes = (
(511,439,o),
(532,462,o),
(532,489,cs),
(532,518,o),
(511,539,o),
(483,539,cs),
(456,539,o),
(434,518,o),
(434,489,cs),
(434,462,o),
(456,439,o),
(483,439,cs)
);
},
{
closed = 1;
nodes = (
(291,204,o),
(384,306,o),
(509,306,cs),
(574,306,o),
(635,269,o),
(636,186,cs),
(637,126,o),
(599,74,o),
(539,74,cs),
(253,74,l)
);
}
);
width = 769;
}
);
note = uni0638;
unicode = 1592;
},
{
glyphname = uni0639;
layers = (
{
layerId = m01;
shapes = (
{
closed = 1;
nodes = (
(464,0,o),
(467,2,o),
(467,12,cs),
(467,18,ls),
(467,49,o),
(442,74,o),
(400,74,cs),
(280,74,ls),
(205,74,o),
(172,137,o),
(172,188,cs),
(173,263,o),
(225,306,o),
(292,306,cs),
(335,306,o),
(367,292,o),
(387,282,cs),
(393,279,o),
(396,277,o),
(400,277,cs),
(410,277,o),
(413,286,o),
(413,298,cs),
(410,342,o),
(357,377,o),
(283,377,cs),
(180,377,o),
(94,306,o),
(95,188,cs),
(95,137,o),
(119,82,o),
(161,49,c),
(94,15,o),
(56,-51,o),
(56,-127,cs),
(56,-238,o),
(136,-329,o),
(274,-331,cs),
(350,-332,o),
(437,-305,o),
(464,-240,cs),
(470,-223,o),
(462,-211,o),
(443,-221,cs),
(420,-233,o),
(402,-242,o),
(380,-248,cs),
(352,-257,o),
(324,-261,o),
(284,-260,cs),
(185,-257,o),
(138,-198,o),
(138,-130,cs),
(138,-64,o),
(186,0,o),
(275,0,cs),
(453,0,ls)
);
}
);
width = 516;
}
);
note = uni0639;
unicode = 1593;
},
{
glyphname = uni063A;
layers = (
{
layerId = m01;
shapes = (
{
closed = 1;
nodes = (
(288,439,o),
(309,462,o),
(309,489,cs),
(309,518,o),
(288,539,o),
(260,539,cs),
(233,539,o),
(211,518,o),
(211,489,cs),
(211,462,o),
(233,439,o),
(260,439,cs)
);
},
{
closed = 1;
nodes = (
(450,0,o),
(453,2,o),
(453,12,cs),
(453,18,ls),
(453,49,o),
(428,74,o),
(386,74,cs),
(266,74,ls),
(191,74,o),
(158,137,o),
(158,188,cs),
(159,263,o),
(211,306,o),
(278,306,cs),
(321,306,o),
(353,292,o),
(373,282,cs),
(379,279,o),
(382,277,o),
(386,277,cs),
(396,277,o),
(399,286,o),
(399,298,cs),
(396,342,o),
(343,377,o),
(269,377,cs),
(166,377,o),
(80,306,o),
(81,188,cs),
(81,137,o),
(105,82,o),
(147,49,c),
(80,15,o),
(42,-51,o),
(42,-127,cs),
(42,-238,o),
(122,-329,o),
(260,-331,cs),
(336,-332,o),
(423,-305,o),
(450,-240,cs),
(456,-223,o),
(448,-211,o),
(429,-221,cs),
(406,-233,o),
(388,-242,o),
(366,-248,cs),
(338,-257,o),
(310,-261,o),
(270,-260,cs),
(171,-257,o),
(124,-198,o),
(124,-130,cs),
(124,-64,o),
(172,0,o),
(261,0,cs),
(439,0,ls)
);
}
);
width = 502;
}
);
note = uni063A;
unicode = 1594;
},
{
glyphname = uni0640;
layers = (
{
layerId = m01;
shapes = (
{
closed = 1;
nodes = (
(-3,0,l),
(113,0,l),
(113,74,l),
(-3,74,l)
);
}
);
width = 104;
}
);
note = uni0640;
unicode = 1600;
},
{
glyphname = uni0641;
layers = (
{
layerId = m01;
shapes = (
{
closed = 1;
nodes = (
(651,439,o),
(673,462,o),
(673,489,cs),
(673,518,o),
(651,539,o),
(624,539,cs),
(596,539,o),
(574,518,o),
(574,489,cs),
(574,462,o),
(596,439,o),
(624,439,cs)
);
},
{
closed = 1;
nodes = (
(522,377,o),
(450,299,o),
(450,188,cs),
(450,144,o),
(463,102,o),
(486,74,c),
(231,74,ls),
(164,74,o),
(109,101,o),
(109,177,cs),
(109,214,o),
(120,241,o),
(149,278,cs),
(153,283,o),
(154,287,o),
(154,292,cs),
(154,298,o),
(151,303,o),
(143,303,cs),
(139,303,o),
(134,302,o),
(126,298,cs),
(71,269,o),
(42,209,o),
(42,154,cs),
(42,49,o),
(120,0,o),
(228,0,cs),
(625,0,ls),
(722,2,o),
(792,78,o),
(792,188,cs),
(792,299,o),
(720,377,o),
(621,377,cs)
);
},
{
closed = 1;
nodes = (
(559,74,o),
(528,134,o),
(528,190,cs),
(528,246,o),
(559,306,o),
(621,306,cs),
(683,306,o),
(715,246,o),
(715,190,cs),
(715,134,o),
(683,74,o),
(621,74,cs)
);
}
);
width = 864;
}
);
note = uni0641;
unicode = 1601;
},
{
glyphname = uni0642;
layers = (
{
layerId = m01;
shapes = (
{
closed = 1;
nodes = (
(416,444,o),
(435,463,o),
(435,489,cs),
(435,515,o),
(416,534,o),
(391,534,cs),
(367,534,o),
(348,515,o),
(348,489,cs),
(348,463,o),
(367,444,o),
(391,444,cs)
);
},
{
closed = 1;
nodes = (
(542,444,o),
(561,463,o),
(561,489,cs),
(561,515,o),
(542,534,o),
(518,534,cs),
(493,534,o),
(473,515,o),
(473,489,cs),
(473,463,o),
(493,444,o),
(518,444,cs)
);
},
{
closed = 1;
nodes = (
(583,338,o),
(533,377,o),
(455,377,cs),
(359,377,o),
(284,304,o),
(284,182,cs),
(284,73,o),
(350,-9,o),
(451,-9,c),
(484,-11,o),
(515,-2,o),
(546,13,c),
(524,-87,o),
(452,-143,o),
(343,-143,cs),
(222,-143,o),
(132,-69,o),
(130,56,cs),
(130,106,o),
(142,160,o),
(173,214,cs),
(175,218,o),
(178,223,o),
(178,227,cs),
(178,234,o),
(173,238,o),
(166,238,cs),
(160,238,o),
(155,236,o),
(149,233,c),
(95,197,o),
(58,126,o),
(57,41,cs),
(56,-95,o),
(163,-214,o),
(343,-214,cs),
(519,-215,o),
(624,-110,o),
(630,82,cs),
(632,147,o),
(629,228,o),
(608,276,cs)
);
},
{
closed = 1;
nodes = (
(363,253,o),
(398,306,o),
(456,306,cs),
(496,306,o),
(522,283,o),
(537,249,cs),
(550,219,o),
(553,161,o),
(553,117,cs),
(553,108,o),
(552,99,o),
(552,92,c),
(526,72,o),
(493,63,o),
(458,63,cs),
(399,63,o),
(363,112,o),
(363,184,cs)
);
}
);
width = 685;
}
);
note = uni0642;
unicode = 1602;
},
{
glyphname = uni0643;
layers = (
{
layerId = m01;
shapes = (
{
closed = 1;
nodes = (
(642,556,o),
(618,532,o),
(618,488,cs),
(618,169,ls),
(618,113,o),
(591,74,o),
(538,74,cs),
(245,74,ls),
(178,74,o),
(123,101,o),
(123,177,cs),
(123,214,o),
(134,241,o),
(163,278,cs),
(167,283,o),
(168,287,o),
(168,292,cs),
(168,298,o),
(165,303,o),
(157,303,cs),
(153,303,o),
(148,302,o),
(140,298,cs),
(85,269,o),
(56,209,o),
(56,154,cs),
(56,49,o),
(134,0,o),
(242,0,cs),
(535,0,ls),
(634,0,o),
(694,62,o),
(694,168,cs),
(694,547,ls),
(694,553,o),
(692,556,o),
(686,556,cs),
(679,556,ls)
);
},
{
closed = 1;
nodes = (
(298,259,o),
(300,260,o),
(304,261,c),
(304,262,o),
(305,262,o),
(307,262,c),
(325,269,o),
(339,270,o),
(360,270,cs),
(475,270,ls),
(483,270,o),
(485,273,o),
(485,279,cs),
(485,283,ls),
(485,304,o),
(471,317,o),
(448,317,cs),
(403,317,ls),
(377,317,o),
(357,336,o),
(357,361,cs),
(357,387,o),
(374,402,o),
(403,402,cs),
(415,402,o),
(427,400,o),
(438,394,cs),
(445,391,l),
(449,388,o),
(452,387,o),
(455,387,cs),
(461,387,o),
(464,393,o),
(464,401,cs),
(462,428,o),
(433,449,o),
(395,449,cs),
(345,449,o),
(307,412,o),
(307,362,cs),
(307,342,o),
(314,326,o),
(322,313,c),
(301,307,o),
(286,289,o),
(286,268,cs),
(286,263,o),
(290,259,o),
(295,259,cs)
);
}
);
width = 761;
}
);
note = uni0643;
unicode = 1603;
},
{
glyphname = uni0644;
layers = (
{
layerId = m01;
shapes = (
{
closed = 1;
nodes = (
(449,-214,o),
(558,-121,o),
(557,64,cs),
(557,548,ls),
(557,553,o),
(555,556,o),
(549,556,cs),
(542,556,ls),
(504,556,o),
(481,532,o),
(481,488,cs),
(481,58,ls),
(481,-79,o),
(402,-143,o),
(306,-143,cs),
(216,-143,o),
(128,-82,o),
(130,55,cs),
(130,108,o),
(148,162,o),
(179,213,cs),
(182,217,o),
(184,221,o),
(184,224,cs),
(184,233,o),
(178,236,o),
(171,236,cs),
(167,236,o),
(161,234,o),
(157,232,cs),
(99,199,o),
(57,124,o),
(57,39,cs),
(56,-119,o),
(167,-214,o),
(306,-214,cs)
);
}
);
width = 623;
}
);
note = uni0644;
unicode = 1604;
},
{
glyphname = uni0645;
layers = (
{
layerId = m01;
shapes = (
{
closed = 1;
nodes = (
(289,377,o),
(247,277,o),
(198,173,cs),
(187,148,o),
(178,129,o),
(169,114,c),
(92,103,o),
(46,48,o),
(46,-53,cs),
(46,-280,ls),
(46,-286,o),
(49,-288,o),
(54,-288,cs),
(62,-288,ls),
(99,-288,o),
(122,-264,o),
(122,-221,cs),
(122,-54,ls),
(122,9,o),
(148,39,o),
(195,42,cs),
(205,42,l),
(263,10,o),
(323,-9,o),
(392,-9,cs),
(488,-9,o),
(553,43,o),
(553,163,cs),
(553,271,o),
(503,377,o),
(386,377,cs)
);
},
{
closed = 1;
nodes = (
(361,62,o),
(308,72,o),
(250,104,c),
(258,116,o),
(265,132,o),
(275,153,cs),
(313,239,o),
(346,306,o),
(389,306,cs),
(435,306,o),
(474,266,o),
(474,164,cs),
(474,82,o),
(435,64,o),
(395,63,cs)
);
}
);
width = 608;
}
);
note = uni0645;
unicode = 1605;
},
{
glyphname = uni0646;
layers = (
{
layerId = m01;
shapes = (
{
closed = 1;
nodes = (
(281,430,o),
(259,408,o),
(259,380,cs),
(259,352,o),
(281,330,o),
(309,330,cs),
(336,330,o),
(358,352,o),
(358,380,cs),
(358,408,o),
(336,430,o),
(309,430,cs)
);
},
{
closed = 1;
nodes = (
(449,-214,o),
(558,-121,o),
(557,64,cs),
(557,351,ls),
(557,356,o),
(555,358,o),
(549,358,cs),
(542,358,ls),
(504,358,o),
(481,334,o),
(481,291,cs),
(481,58,ls),
(481,-79,o),
(402,-143,o),
(306,-143,cs),
(216,-143,o),
(128,-82,o),
(130,55,cs),
(130,108,o),
(148,162,o),
(179,213,cs),
(182,217,o),
(184,221,o),
(184,224,cs),
(184,233,o),
(178,236,o),
(171,236,cs),
(167,236,o),
(161,234,o),
(157,232,cs),
(99,199,o),
(57,124,o),
(57,39,cs),
(56,-119,o),
(167,-214,o),
(306,-214,cs)
);
}
);
width = 623;
}
);
note = uni0646;
unicode = 1606;
},
{
glyphname = uni0647;
layers = (
{
layerId = m01;
shapes = (
{
closed = 1;
nodes = (
(312,351,o),
(305,357,o),
(298,362,cs),
(264,390,o),
(235,407,o),
(215,449,c),
(213,456,o),
(211,459,o),
(205,458,c),
(204,457,o),
(199,456,o),
(198,455,c),
(173,442,o),
(161,421,o),
(168,395,c),
(174,383,o),
(179,375,o),
(187,367,c),
(90,322,o),
(56,245,o),
(56,176,cs),
(56,54,o),
(136,-9,o),
(229,-9,cs),
(335,-9,o),
(403,66,o),
(403,176,cs),
(403,242,o),
(378,294,o),
(320,344,cs)
);
},
{
closed = 1;
nodes = (
(176,62,o),
(134,109,o),
(134,173,cs),
(135,226,o),
(155,277,o),
(235,313,c),
(260,293,o),
(272,283,o),
(289,264,cs),
(316,234,o),
(324,204,o),
(324,177,cs),
(326,108,o),
(284,62,o),
(229,62,cs)
);
}
);
width = 458;
}
);
note = uni0647;
unicode = 1607;
},
{
glyphname = uni0648;
layers = (
{
layerId = m01;
shapes = (
{
closed = 1;
nodes = (
(353,338,o),
(305,377,o),
(227,377,cs),
(130,377,o),
(56,304,o),
(56,182,cs),
(56,73,o),
(122,-9,o),
(223,-9,c),
(257,-11,o),
(290,-2,o),
(325,16,c),
(320,-74,o),
(283,-142,o),
(200,-143,cs),
(151,-143,o),
(130,-137,o),
(102,-127,cs),
(99,-126,o),
(94,-124,o),
(89,-124,cs),
(80,-124,o),
(76,-131,o),
(77,-139,cs),
(85,-186,o),
(143,-214,o),
(205,-214,cs),
(280,-215,o),
(335,-182,o),
(364,-124,cs),
(400,-57,o),
(402,26,o),
(402,118,cs),
(402,177,o),
(395,236,o),
(378,276,cs)
);
},
{
closed = 1;
nodes = (
(324,108,o),
(324,99,o),
(323,92,c),
(298,72,o),
(265,63,o),
(229,63,cs),
(170,63,o),
(134,112,o),
(134,184,cs),
(134,253,o),
(170,306,o),
(228,306,cs),
(268,306,o),
(292,283,o),
(307,249,cs),
(320,219,o),
(325,161,o),
(324,117,cs)
);
}
);
width = 457;
}
);
note = uni0648;
unicode = 1608;
},
{
glyphname = uni0649;
layers = (
{
layerId = m01;
shapes = (
{
closed = 1;
nodes = (
(629,75,o),
(542,96,o),
(452,114,cs),
(402,124,o),
(360,153,o),
(360,203,cs),
(360,269,o),
(410,306,o),
(469,306,cs),
(509,306,o),
(542,292,o),
(562,282,cs),
(567,279,o),
(570,277,o),
(574,277,cs),
(584,277,o),
(587,285,o),
(587,296,cs),
(587,341,o),
(532,377,o),
(460,377,cs),
(364,377,o),
(283,311,o),
(283,202,cs),
(283,114,o),
(341,64,o),
(420,47,cs),
(480,33,o),
(540,30,o),
(540,-6,cs),
(540,-7,o),
(540,-9,o),
(539,-12,cs),
(524,-92,o),
(438,-143,o),
(343,-143,cs),
(221,-143,o),
(130,-68,o),
(130,59,cs),
(130,108,o),
(142,161,o),
(172,214,c),
(175,218,o),
(177,223,o),
(177,227,cs),
(177,234,o),
(173,238,o),
(165,238,cs),
(160,238,o),
(154,236,o),
(149,233,cs),
(94,197,o),
(56,124,o),
(56,39,cs),
(56,-96,o),
(163,-214,o),
(343,-214,cs),
(494,-214,o),
(605,-129,o),
(620,1,cs)
);
}
);
width = 676;
}
);
note = uni0649;
unicode = 1609;
},
{
glyphname = uni064A;
layers = (
{
layerId = m01;
shapes = (
{
closed = 1;
nodes = (
(615,75,o),
(528,96,o),
(438,114,cs),
(388,124,o),
(346,153,o),
(346,203,cs),
(346,269,o),
(396,306,o),
(455,306,cs),
(495,306,o),
(528,292,o),
(548,282,cs),
(553,279,o),
(556,277,o),
(560,277,cs),
(570,277,o),
(573,285,o),
(573,296,cs),
(573,341,o),
(518,377,o),
(446,377,cs),
(350,377,o),
(269,311,o),
(269,202,cs),
(269,114,o),
(327,64,o),
(406,47,cs),
(466,33,o),
(526,30,o),
(526,-6,cs),
(526,-7,o),
(526,-9,o),
(525,-12,cs),
(510,-92,o),
(424,-143,o),
(329,-143,cs),
(207,-143,o),
(116,-68,o),
(116,59,cs),
(116,108,o),
(128,161,o),
(158,214,c),
(161,218,o),
(163,223,o),
(163,227,cs),
(163,234,o),
(159,238,o),
(151,238,cs),
(146,238,o),
(140,236,o),
(135,233,cs),
(80,197,o),
(42,124,o),
(42,39,cs),
(42,-96,o),
(149,-214,o),
(329,-214,cs),
(480,-214,o),
(591,-129,o),
(606,1,cs)
);
},
{
closed = 1;
nodes = (
(289,-364,o),
(308,-344,o),
(308,-318,cs),
(308,-293,o),
(289,-274,o),
(264,-274,cs),
(239,-274,o),
(220,-293,o),
(220,-318,cs),
(220,-344,o),
(239,-364,o),
(264,-364,cs)
);
},
{
closed = 1;
nodes = (
(415,-364,o),
(434,-344,o),
(434,-318,cs),
(434,-293,o),
(415,-274,o),
(390,-274,cs),
(365,-274,o),
(346,-293,o),
(346,-318,cs),
(346,-344,o),
(365,-364,o),
(390,-364,cs)
);
}
);
width = 679;
}
);
note = uni064A;
unicode = 1610;
},
{
glyphname = uni064B;
layers = (
{
layerId = m01;
shapes = (
{
closed = 1;
nodes = (
(14,758,o),
(-8,746,o),
(-8,722,cs),
(-8,719,o),
(-8,714,o),
(-6,709,cs),
(-5,704,o),
(-3,702,o),
(0,702,cs),
(3,702,o),
(5,704,o),
(12,707,cs),
(29,713,o),
(44,714,o),
(66,714,cs),
(173,714,ls),
(180,714,o),
(182,716,o),
(182,722,cs),
(182,726,ls),
(182,746,o),
(168,758,o),
(147,758,cs),
(53,758,ls)
);
},
{
closed = 1;
nodes = (
(14,665,o),
(-8,652,o),
(-8,628,cs),
(-8,626,o),
(-8,621,o),
(-6,616,cs),
(-5,611,o),
(-3,609,o),
(0,609,cs),
(3,609,o),
(5,611,o),
(12,613,cs),
(29,620,o),
(44,621,o),
(66,621,cs),
(173,621,ls),
(180,621,o),
(182,623,o),
(182,629,cs),
(182,633,ls),
(182,652,o),
(168,665,o),
(147,665,cs),
(53,665,ls)
);
}
);
width = 0;
}
);
note = uni064B;
unicode = 1611;
},
{
glyphname = uni064C;
layers = (
{
layerId = m01;
shapes = (
{
closed = 1;
nodes = (
(129,647,o),
(103,621,o),
(103,584,cs),
(103,563,o),
(118,540,o),
(133,527,c),
(120,516,ls),
(116,513,o),
(113,511,o),
(109,511,cs),
(105,511,o),
(99,515,o),
(92,521,cs),
(74,536,o),
(61,544,o),
(46,544,cs),
(22,544,o),
(7,522,o),
(7,500,cs),
(7,493,o),
(8,487,o),
(11,481,cs),
(13,477,o),
(14,474,o),
(19,474,cs),
(24,474,o),
(27,481,o),
(30,487,cs),
(36,497,o),
(40,502,o),
(46,502,cs),
(53,502,o),
(59,494,o),
(65,489,cs),
(80,477,o),
(94,468,o),
(106,468,cs),
(116,468,o),
(125,471,o),
(136,479,cs),
(164,499,l),
(175,488,l),
(178,486,o),
(180,484,o),
(182,484,cs),
(184,484,o),
(186,485,o),
(188,487,cs),
(196,493,o),
(200,501,o),
(200,508,cs),
(200,513,o),
(199,518,o),
(195,523,c),
(213,539,o),
(234,556,o),
(234,588,cs),
(234,623,o),
(208,647,o),
(168,647,cs)
);
},
{
closed = 1;
nodes = (
(152,561,o),
(143,573,o),
(143,584,cs),
(143,599,o),
(153,611,o),
(169,611,cs),
(181,611,o),
(194,601,o),
(194,584,cs),
(194,574,o),
(186,563,o),
(166,549,c)
);
}
);
width = 0;
}
);
note = uni064C;
unicode = 1612;
},
{
glyphname = uni064D;
layers = (
{
layerId = m01;
shapes = (
{
closed = 1;
nodes = (
(14,-71,o),
(-8,-84,o),
(-8,-108,cs),
(-8,-111,o),
(-8,-116,o),
(-6,-121,cs),
(-5,-125,o),
(-3,-127,o),
(0,-127,cs),
(3,-127,o),
(5,-126,o),
(12,-123,cs),
(29,-116,o),
(44,-116,o),
(66,-116,cs),
(173,-116,ls),
(180,-116,o),
(182,-113,o),
(182,-107,cs),
(182,-103,ls),
(182,-84,o),
(168,-71,o),
(147,-71,cs),
(53,-71,ls)
);
},
{
closed = 1;
nodes = (
(14,-164,o),
(-8,-177,o),
(-8,-201,cs),
(-8,-204,o),
(-8,-209,o),
(-6,-214,cs),
(-5,-218,o),
(-3,-221,o),
(0,-221,cs),
(3,-221,o),
(5,-219,o),
(12,-216,cs),
(29,-209,o),
(44,-209,o),
(66,-209,cs),
(173,-209,ls),
(180,-209,o),
(182,-207,o),
(182,-201,cs),
(182,-197,ls),
(182,-177,o),
(168,-164,o),
(147,-164,cs),
(53,-164,ls)
);
}
);
width = 0;
}
);
note = uni064D;
unicode = 1613;
},
{
glyphname = uni064E;
layers = (
{
layerId = m01;
shapes = (
{
closed = 1;
nodes = (
(14,665,o),
(-8,652,o),
(-8,628,cs),
(-8,626,o),
(-8,621,o),
(-6,616,cs),
(-5,611,o),
(-3,609,o),
(0,609,cs),
(3,609,o),
(5,611,o),
(12,613,cs),
(29,620,o),
(44,621,o),
(66,621,cs),
(173,621,ls),
(180,621,o),
(182,623,o),
(182,629,cs),
(182,633,ls),
(182,652,o),
(168,665,o),
(147,665,cs),
(53,665,ls)
);
}
);
width = 0;
}
);
note = uni064E;
unicode = 1614;
},
{
glyphname = uni064F;
layers = (
{
layerId = m01;
shapes = (
{
closed = 1;
nodes = (
(50,516,o),
(28,502,o),
(3,488,cs),
(0,486,o),
(0,483,o),
(2,481,c),
(5,476,ls),
(12,467,o),
(21,464,o),
(31,464,cs),
(43,464,o),
(52,472,o),
(58,474,cs),
(66,478,o),
(84,491,o),
(106,507,c),
(118,495,ls),
(122,491,o),
(126,490,o),
(131,494,cs),
(144,505,o),
(147,518,o),
(137,531,c),
(155,546,o),
(175,562,o),
(176,592,cs),
(178,629,o),
(151,654,o),
(111,654,cs),
(71,654,o),
(44,627,o),
(45,589,cs),
(46,569,o),
(61,547,o),
(76,534,c)
);
},
{
closed = 1;
nodes = (
(95,568,o),
(86,579,o),
(86,591,cs),
(85,606,o),
(94,618,o),
(112,618,cs),
(124,618,o),
(137,607,o),
(136,591,cs),
(136,581,o),
(128,570,o),
(109,557,c)
);
}
);
width = 0;
}
);
note = uni064F;
unicode = 1615;
},
{
glyphname = uni0650;
layers = (
{
layerId = m01;
shapes = (
{
closed = 1;
nodes = (
(14,-71,o),
(-8,-84,o),
(-8,-108,cs),
(-8,-111,o),
(-8,-116,o),
(-6,-121,cs),
(-5,-125,o),
(-3,-127,o),
(0,-127,cs),
(3,-127,o),
(5,-126,o),
(12,-123,cs),
(29,-116,o),
(44,-116,o),
(66,-116,cs),
(173,-116,ls),
(180,-116,o),
(182,-113,o),
(182,-107,cs),
(182,-103,ls),
(182,-84,o),
(168,-71,o),
(147,-71,cs),
(53,-71,ls)
);
}
);
width = 0;
}
);
note = uni0650;
unicode = 1616;
},
{
glyphname = uni0651;
layers = (
{
layerId = m01;
shapes = (
{
closed = 1;
nodes = (
(224,619,o),
(211,602,o),
(211,572,cs),
(211,547,ls),
(211,523,o),
(200,510,o),
(182,510,cs),
(163,510,o),
(152,523,o),
(152,547,cs),
(152,613,ls),
(152,617,o),
(150,619,o),
(146,619,cs),
(139,619,ls),
(116,619,o),
(103,603,o),
(103,572,cs),
(103,547,ls),
(103,523,o),
(92,510,o),
(74,510,cs),
(54,510,o),
(44,523,o),
(44,547,cs),
(44,613,ls),
(44,617,o),
(42,619,o),
(38,619,cs),
(31,619,ls),
(8,619,o),
(-5,602,o),
(-5,572,cs),
(-5,552,ls),
(-5,497,o),
(23,466,o),
(75,466,cs),
(96,466,o),
(114,472,o),
(128,486,c),
(141,473,o),
(159,466,o),
(182,466,cs),
(231,466,o),
(261,498,o),
(261,552,cs),
(261,613,ls),
(261,617,o),
(259,619,o),
(254,619,cs),
(247,619,ls)
);
}
);
width = 0;
}
);
note = uni0651;
unicode = 1617;
},
{
glyphname = uni0652;
layers = (
{
layerId = m01;
shapes = (
{
closed = 1;
nodes = (
(-3,490,o),
(25,465,o),
(61,465,cs),
(98,465,o),
(125,491,o),
(125,531,cs),
(125,571,o),
(98,596,o),
(61,596,cs),
(25,596,o),
(-3,571,o),
(-3,531,cs)
);
},
{
closed = 1;
nodes = (
(88,514,o),
(78,501,o),
(61,501,cs),
(45,501,o),
(35,514,o),
(35,531,cs),
(35,547,o),
(45,561,o),
(61,561,cs),
(78,561,o),
(88,547,o),
(88,531,cs)
);
}
);
width = 0;
}
);
note = uni0652;
unicode = 1618;
},
{
glyphname = uni0653;
layers = (
{
layerId = m01;
shapes = (
{
closed = 1;
nodes = (
(68,651,o),
(86,644,o),
(106,637,cs),
(129,629,o),
(154,621,o),
(172,621,cs),
(197,621,o),
(215,642,o),
(215,665,cs),
(215,673,o),
(212,681,o),
(207,689,c),
(206,692,o),
(204,693,o),
(201,693,cs),
(199,693,o),
(198,693,o),
(197,692,cs),
(194,690,o),
(190,683,o),
(186,678,cs),
(180,669,o),
(173,666,o),
(165,666,cs),
(155,666,o),
(136,672,o),
(116,679,cs),
(94,687,o),
(69,695,o),
(50,695,cs),
(26,695,o),
(8,674,o),
(8,651,cs),
(8,643,o),
(10,635,o),
(15,627,cs),
(17,624,o),
(19,623,o),
(22,623,cs),
(24,623,o),
(25,623,o),
(26,624,cs),
(29,626,o),
(33,633,o),
(37,638,cs),
(43,647,o),
(50,651,o),
(57,651,cs)
);
}
);
width = 0;
}
);
note = uni0653;
unicode = 1619;
},
{
glyphname = uni0654;
layers = (
{
layerId = m01;
shapes = (
{
closed = 1;
nodes = (
(117,661,o),
(102,676,o),
(102,697,cs),
(102,717,o),
(117,731,o),
(139,731,cs),
(152,731,o),
(164,727,o),
(174,722,cs),
(179,720,o),
(184,718,o),
(187,717,cs),
(193,716,o),
(195,720,o),
(195,727,cs),
(193,756,o),
(165,776,o),
(130,775,cs),
(87,774,o),
(55,741,o),
(55,698,cs),
(55,685,o),
(59,671,o),
(65,659,c),
(40,656,o),
(26,643,o),
(26,624,cs),
(26,622,o),
(26,617,o),
(28,612,cs),
(29,607,o),
(31,605,o),
(34,605,cs),
(37,605,o),
(39,607,o),
(46,609,cs),
(63,616,o),
(78,617,o),
(100,617,cs),
(207,617,ls),
(214,617,o),
(216,619,o),
(216,625,cs),
(216,629,ls),
(216,648,o),
(202,661,o),
(181,661,cs),
(137,661,ls)
);
}
);
width = 0;
}
);
note = uni0654;
unicode = 1620;
},
{
glyphname = uni0655;
layers = (
{
layerId = m01;
shapes = (
{
closed = 1;
nodes = (
(95,-185,o),
(80,-170,o),
(80,-149,cs),
(80,-129,o),
(95,-115,o),
(117,-115,cs),
(130,-115,o),
(142,-119,o),
(152,-124,cs),
(157,-126,o),
(162,-128,o),
(165,-129,cs),
(171,-130,o),
(173,-126,o),
(173,-119,cs),
(171,-91,o),
(143,-71,o),
(108,-71,cs),
(65,-72,o),
(33,-106,o),
(33,-148,cs),
(33,-161,o),
(37,-175,o),
(43,-187,c),
(18,-191,o),
(4,-203,o),
(4,-222,cs),
(4,-224,o),
(4,-229,o),
(6,-234,cs),
(7,-239,o),
(9,-241,o),
(12,-241,cs),
(15,-241,o),
(17,-239,o),
(24,-237,cs),
(41,-230,o),
(56,-229,o),
(78,-229,cs),
(185,-229,ls),
(192,-229,o),
(194,-227,o),
(194,-221,cs),
(194,-217,ls),
(194,-198,o),
(180,-185,o),
(159,-185,cs),
(115,-185,ls)
);
}
);
width = 0;
}
);
note = uni0655;
unicode = 1621;
},
{
glyphname = smallv;
layers = (
{
layerId = m01;
shapes = (
{
closed = 1;
nodes = (
(240,483,o),
(226,474,o),
(217,451,cs),
(197,404,l),
(177,451,ls),
(168,474,o),
(153,483,o),
(129,483,cs),
(118,483,o),
(116,481,o),
(119,472,cs),
(167,355,ls),
(170,348,o),
(176,344,o),
(183,344,cs),
(210,344,ls),
(218,344,o),
(224,348,o),
(227,355,cs),
(274,472,ls),
(278,481,o),
(275,483,o),
(265,483,cs)
);
}
);
width = 333;
}
);
note = smallv;
unicode = 1626;
},
{
glyphname = zero.ar;
layers = (
{
layerId = m01;
shapes = (
{
closed = 1;
nodes = (
(173,61,o),
(125,114,o),
(125,278,cs),
(125,441,o),
(173,496,o),
(252,496,cs),
(329,496,o),
(378,441,o),
(378,278,cs),
(378,114,o),
(329,61,o),
(252,61,cs)
);
},
{
closed = 1;
nodes = (
(383,-10,o),
(455,89,o),
(455,278,cs),
(455,466,o),
(380,567,o),
(252,567,cs),
(122,567,o),
(48,466,o),
(48,278,cs),
(48,89,o),
(120,-10,o),
(252,-10,cs)
);
}
);
width = 502;
}
);
note = zero.ar;
unicode = 1632;
},
{
glyphname = one.ar;
layers = (
{
layerId = m01;
shapes = (
{
closed = 1;
nodes = (
(44,69,ls),
(38,69,o),
(36,67,o),
(36,61,cs),
(36,9,ls),
(36,3,o),
(38,0,o),
(44,0,cs),
(319,0,ls),
(328,0,o),
(330,4,o),
(330,11,cs),
(330,26,ls),
(330,54,o),
(315,69,o),
(285,69,cs),
(219,69,l),
(219,501,ls),
(219,537,o),
(203,556,o),
(170,556,cs),
(157,556,ls),
(140,556,o),
(125,553,o),
(108,547,cs),
(47,525,ls),
(40,523,o),
(37,518,o),
(37,511,cs),
(37,453,ls),
(37,448,o),
(41,445,o),
(46,447,cs),
(144,484,l),
(144,69,l)
);
}
);
width = 353;
}
);
note = one.ar;
unicode = 1633;
},
{
glyphname = two.ar;
layers = (
{
layerId = m01;
shapes = (
{
closed = 1;
nodes = (
(138,195,o),
(395,223,o),
(395,407,cs),
(395,512,o),
(326,567,o),
(218,567,cs),
(166,567,o),
(124,553,o),
(88,538,cs),
(55,524,o),
(43,507,o),
(52,478,cs),
(58,458,ls),
(60,453,o),
(62,450,o),
(66,450,cs),
(70,450,o),
(74,452,o),
(79,455,cs),
(121,482,o),
(165,498,o),
(213,498,cs),
(280,498,o),
(318,464,o),
(318,406,cs),
(318,243,o),
(37,258,o),
(37,9,cs),
(37,3,o),
(39,0,o),
(45,0,cs),
(388,0,ls),
(396,0,o),
(399,4,o),
(399,11,cs),
(399,27,ls),
(399,54,o),
(384,69,o),
(354,69,cs),
(125,69,l)
);
}
);
width = 446;
}
);
note = two.ar;
unicode = 1634;
},
{
glyphname = three.ar;
layers = (
{
layerId = m01;
shapes = (
{
closed = 1;
nodes = (
(354,315,o),
(383,363,o),
(383,419,cs),
(383,515,o),
(309,567,o),
(204,567,cs),
(153,567,o),
(108,552,o),
(77,538,cs),
(45,523,o),
(32,507,o),
(41,478,cs),
(47,458,ls),
(49,453,o),
(51,450,o),
(56,450,cs),
(59,450,o),
(63,453,o),
(68,456,cs),
(109,483,o),
(149,499,o),
(201,499,cs),
(261,499,o),
(308,475,o),
(308,412,cs),
(308,355,o),
(272,324,o),
(207,324,cs),
(116,324,ls),
(109,324,o),
(106,318,o),
(106,311,cs),
(106,294,ls),
(106,266,o),
(118,254,o),
(148,254,cs),
(205,254,ls),
(267,254,o),
(324,228,o),
(324,159,cs),
(324,97,o),
(276,58,o),
(202,58,cs),
(135,58,o),
(88,86,o),
(54,129,cs),
(48,136,o),
(45,139,o),
(39,139,cs),
(30,139,o),
(25,129,o),
(25,117,cs),
(25,68,o),
(82,-10,o),
(208,-10,cs),
(324,-10,o),
(401,59,o),
(401,157,cs),
(401,238,o),
(345,279,o),
(294,291,c)
);
}
);
width = 441;
}
);
note = three.ar;
unicode = 1635;
},
{
glyphname = four.ar;
layers = (
{
layerId = m01;
shapes = (
{
closed = 1;
nodes = (
(279,9,ls),
(279,3,o),
(281,0,o),
(287,0,cs),
(347,0,ls),
(353,0,o),
(354,3,o),
(354,9,cs),
(354,128,l),
(424,128,ls),
(432,128,o),
(435,132,o),
(435,138,cs),
(435,154,ls),
(435,182,o),
(420,197,o),
(390,197,cs),
(354,197,l),
(354,508,ls),
(354,543,o),
(335,556,o),
(307,556,cs),
(277,556,ls),
(259,556,o),
(249,548,o),
(243,537,c),
(26,208,ls),
(17,195,o),
(16,190,o),
(16,177,cs),
(16,136,ls),
(16,130,o),
(18,128,o),
(24,128,cs),
(279,128,l)
);
},
{
closed = 1;
nodes = (
(279,476,l),
(279,197,l),
(95,197,l)
);
}
);
width = 458;
}
);
note = four.ar;
unicode = 1636;
},
